<svg xmlns="http://www.w3.org/2000/svg" width="339.089" height="100.471" viewBox="0 0 339.089 100.471"><defs><style>.a,.d{fill:#fff;}.b{fill:#c9c6c6;}.c{fill:#010101;}.d{opacity:0.1;}</style></defs><path class="a" d="M492.4,721.51a9.624,9.624,0,0,1-9.625,9.623H167.441a9.637,9.637,0,0,1-9.648-9.623V644.772a9.65,9.65,0,0,1,9.648-9.635H482.758a9.634,9.634,0,0,1,9.635,9.633v0l0,76.738Z" transform="translate(-155.556 -632.901)"/><path class="b" d="M478.949,729.562H163.63A11.886,11.886,0,0,1,151.745,717.7V640.965a11.893,11.893,0,0,1,11.885-11.874H478.947a11.9,11.9,0,0,1,11.884,11.874V717.7a11.884,11.884,0,0,1-11.882,11.861Z" transform="translate(-151.745 -629.091)"/><path class="c" d="M492.4,721.51a9.624,9.624,0,0,1-9.625,9.623H167.441a9.637,9.637,0,0,1-9.648-9.623V644.772a9.65,9.65,0,0,1,9.648-9.635H482.758a9.634,9.634,0,0,1,9.635,9.633v0l0,76.738Z" transform="translate(-155.556 -632.901)"/><path class="d" d="M748.721,629.091H579.827L645.98,729.562H748.721a11.893,11.893,0,0,0,11.885-11.869V640.965A11.9,11.9,0,0,0,748.721,629.091Z" transform="translate(-421.518 -629.091)"/><path class="a" d="M290.412,710.562c-.072-7.92,6.486-11.773,6.786-11.952A14.6,14.6,0,0,0,285.7,692.4c-4.835-.509-9.524,2.892-11.987,2.892-2.512,0-6.3-2.843-10.392-2.76a15.3,15.3,0,0,0-12.879,7.853c-5.57,9.64-1.416,23.806,3.92,31.6,2.669,3.819,5.788,8.077,9.871,7.927,3.994-.162,5.486-2.543,10.306-2.543,4.776,0,6.177,2.543,10.34,2.447,4.287-.066,6.985-3.833,9.561-7.684a31.493,31.493,0,0,0,4.372-8.9,13.781,13.781,0,0,1-8.406-12.665Zm-7.865-23.29a14.019,14.019,0,0,0,3.21-10.048A14.288,14.288,0,0,0,276.52,682c-1.981,2.315-3.751,6.109-3.294,9.677,3.493.261,7.079-1.762,9.32-4.406Z" transform="translate(-212.279 -659.424)"/><g transform="translate(108.37 43.912)"><path class="a" d="M472.4,781.018h-5.582l-3.058-9.606H453.133l-2.913,9.606h-5.434l10.532-32.7h6.5l10.579,32.7Zm-9.561-13.635-2.765-8.539q-.439-1.308-1.649-6.16h-.1q-.487,2.086-1.554,6.16l-2.719,8.539Zm36.593,1.556q0,6.015-3.269,9.507a9.587,9.587,0,0,1-7.271,3.106q-4.685,0-6.735-3.344v12.372h-5.24V765.189q0-3.778-.195-7.75h4.608l.293,3.737h.1a9.324,9.324,0,0,1,14.922-.927,13.037,13.037,0,0,1,2.787,8.689Zm-5.339.192a9.722,9.722,0,0,0-1.553-5.679,5.368,5.368,0,0,0-4.562-2.327,5.449,5.449,0,0,0-3.517,1.285,5.96,5.96,0,0,0-2.062,3.374,6.824,6.824,0,0,0-.243,1.595v3.934a6.305,6.305,0,0,0,1.578,4.344,5.237,5.237,0,0,0,4.1,1.772,5.372,5.372,0,0,0,4.609-2.28A10.036,10.036,0,0,0,494.094,769.13Zm32.466-.192q0,6.015-3.269,9.507a9.592,9.592,0,0,1-7.273,3.106q-4.686,0-6.735-3.344v12.372h-5.24V765.189q0-3.778-.194-7.75h4.609l.293,3.737h.1a9.326,9.326,0,0,1,14.924-.927,13.048,13.048,0,0,1,2.787,8.689Zm-5.341.192a9.72,9.72,0,0,0-1.556-5.679,5.36,5.36,0,0,0-4.557-2.327,5.473,5.473,0,0,0-3.522,1.285,5.955,5.955,0,0,0-2.059,3.374,7,7,0,0,0-.246,1.595v3.934a6.328,6.328,0,0,0,1.575,4.344,5.25,5.25,0,0,0,4.1,1.772,5.366,5.366,0,0,0,4.609-2.28A10.034,10.034,0,0,0,521.219,769.13Zm35.671,2.715a8.734,8.734,0,0,1-2.908,6.794q-3.192,2.86-8.909,2.863a15.557,15.557,0,0,1-8.47-2.037l1.212-4.367a14.581,14.581,0,0,0,7.57,2.04,7.142,7.142,0,0,0,4.608-1.334,4.358,4.358,0,0,0,1.654-3.563,4.565,4.565,0,0,0-1.362-3.349,12.617,12.617,0,0,0-4.513-2.521q-8.59-3.2-8.593-9.367a8.269,8.269,0,0,1,3.033-6.6,12,12,0,0,1,8.032-2.573,15.873,15.873,0,0,1,7.425,1.553l-1.315,4.271a12.987,12.987,0,0,0-6.285-1.5,6.393,6.393,0,0,0-4.336,1.359,3.888,3.888,0,0,0-1.315,2.963,4.005,4.005,0,0,0,1.507,3.2,16.97,16.97,0,0,0,4.754,2.521,16.121,16.121,0,0,1,6.211,3.976,8.285,8.285,0,0,1,2,5.671Zm17.37-10.475h-5.776v11.448q0,4.368,3.057,4.364a9.206,9.206,0,0,0,2.328-.243l.145,3.978a11.878,11.878,0,0,1-4.075.58,6.281,6.281,0,0,1-4.854-1.894q-1.744-1.9-1.748-6.357V761.36H559.9v-3.931h3.441v-4.317l5.147-1.553v5.87h5.776v3.941Zm26.009,7.664a12.932,12.932,0,0,1-3.107,8.927,11.074,11.074,0,0,1-8.637,3.59,10.558,10.558,0,0,1-8.276-3.44,12.541,12.541,0,0,1-3.082-8.684,12.828,12.828,0,0,1,3.178-8.974,11.018,11.018,0,0,1,8.568-3.494,10.779,10.779,0,0,1,8.344,3.445,12.376,12.376,0,0,1,3.011,8.629Zm-5.432.121a10.557,10.557,0,0,0-1.4-5.563,5.188,5.188,0,0,0-4.71-2.809,5.262,5.262,0,0,0-4.8,2.809,10.732,10.732,0,0,0-1.406,5.661,10.527,10.527,0,0,0,1.406,5.566,5.375,5.375,0,0,0,9.47-.047,10.6,10.6,0,0,0,1.448-5.617Zm22.472-7.109a9.184,9.184,0,0,0-1.652-.145,4.946,4.946,0,0,0-4.272,2.089,7.866,7.866,0,0,0-1.307,4.657v12.372h-5.24V764.865q.007-3.714-.152-7.424h4.564l.192,4.511h.145a8.092,8.092,0,0,1,2.62-3.737,6.339,6.339,0,0,1,3.788-1.263,8.419,8.419,0,0,1,1.31.1l0,5Zm23.436,6.067a12.3,12.3,0,0,1-.192,2.376H624.833a6.838,6.838,0,0,0,2.281,5.342,7.8,7.8,0,0,0,5.142,1.647,17.393,17.393,0,0,0,6.361-1.113l.821,3.634a19.668,19.668,0,0,1-7.907,1.457q-5.486,0-8.617-3.224a11.918,11.918,0,0,1-3.129-8.659A13.506,13.506,0,0,1,622.7,760.7a10.046,10.046,0,0,1,8.246-3.782,8.791,8.791,0,0,1,7.72,3.782,12.726,12.726,0,0,1,2.079,7.416Zm-5-1.359a7.087,7.087,0,0,0-1.018-4.027,4.575,4.575,0,0,0-4.173-2.187,4.969,4.969,0,0,0-4.171,2.135,7.825,7.825,0,0,0-1.551,4.074l10.913,0Z" transform="translate(-444.786 -747.833)"/></g><g transform="translate(111.437 18.626)"><path class="a" d="M456.849,696.506a33.417,33.417,0,0,1-3.768-.192V680.5a28.576,28.576,0,0,1,4.436-.334c6.01,0,8.777,2.956,8.777,7.775C466.294,693.5,463.025,696.506,456.849,696.506Zm.88-14.309a10.518,10.518,0,0,0-2.075.167v12.018a13.655,13.655,0,0,0,1.74.071c3.937,0,6.179-2.241,6.179-6.437C463.574,684.274,461.546,682.2,457.729,682.2Zm17.19,14.429c-3.387,0-5.581-2.529-5.581-5.962,0-3.577,2.241-6.128,5.773-6.128,3.338,0,5.582,2.408,5.582,5.939,0,3.622-2.313,6.151-5.774,6.151Zm.1-10.207c-1.86,0-3.053,1.74-3.053,4.172,0,2.386,1.217,4.125,3.029,4.125s3.028-1.86,3.028-4.175c0-2.359-1.192-4.123-3-4.123Zm24.989-1.644-3.625,11.588h-2.362l-1.5-5.032a38.27,38.27,0,0,1-.932-3.742h-.049a25.139,25.139,0,0,1-.929,3.742l-1.6,5.032h-2.387l-3.411-11.588h2.647l1.312,5.509q.465,1.969.787,3.72h.049c.189-.975.5-2.194.954-3.7l1.647-5.531h2.1l1.575,5.413c.381,1.312.691,2.6.932,3.816h.069a33.332,33.332,0,0,1,.786-3.816l1.408-5.413,2.529,0Zm13.346,11.588h-2.576v-6.654c0-2.049-.787-3.076-2.338-3.076a2.675,2.675,0,0,0-2.576,2.838v6.892h-2.576v-8.276c0-1.025-.024-2.123-.1-3.315h2.266l.121,1.789h.071a4.164,4.164,0,0,1,3.675-2.025c2.433,0,4.031,1.86,4.031,4.887l0,6.939Zm7.1,0h-2.578V679.457h2.578Zm9.391.263c-3.384,0-5.582-2.529-5.582-5.962,0-3.577,2.241-6.128,5.771-6.128,3.341,0,5.582,2.408,5.582,5.939,0,3.622-2.313,6.151-5.771,6.151Zm.1-10.207c-1.861,0-3.053,1.74-3.053,4.172,0,2.386,1.219,4.125,3.026,4.125s3.028-1.86,3.028-4.175c0-2.359-1.187-4.123-3-4.123Zm15.831,9.944-.187-1.334h-.069a3.957,3.957,0,0,1-3.389,1.6,3.37,3.37,0,0,1-3.552-3.411c0-2.86,2.48-4.339,6.774-4.339v-.214c0-1.526-.809-2.29-2.406-2.29a5.428,5.428,0,0,0-3.028.86l-.523-1.693a7.406,7.406,0,0,1,3.979-1c3.028,0,4.557,1.6,4.557,4.794V693.6a17.549,17.549,0,0,0,.167,2.767l-2.322,0Zm-.354-5.772c-2.861,0-4.3.693-4.3,2.337a1.642,1.642,0,0,0,1.767,1.811,2.467,2.467,0,0,0,2.529-2.359Zm15.017,5.772-.12-1.86h-.071a3.886,3.886,0,0,1-3.721,2.123c-2.795,0-4.864-2.457-4.864-5.915,0-3.625,2.146-6.178,5.075-6.178a3.483,3.483,0,0,1,3.269,1.575h.052v-6.652h2.578V693.24c0,1.12.027,2.17.1,3.123Zm-.381-6.819a2.8,2.8,0,0,0-2.713-3.005c-1.909,0-3.077,1.693-3.077,4.076,0,2.337,1.211,3.937,3.025,3.937a2.892,2.892,0,0,0,2.765-3.077v-1.931Zm18.926,7.082c-3.385,0-5.579-2.529-5.579-5.962,0-3.577,2.242-6.128,5.771-6.128,3.34,0,5.581,2.408,5.581,5.939,0,3.622-2.31,6.151-5.773,6.151Zm.1-10.207c-1.858,0-3.05,1.74-3.05,4.172,0,2.386,1.217,4.125,3.026,4.125s3.028-1.86,3.028-4.175c.005-2.359-1.187-4.123-3-4.123Zm19.531,9.944h-2.578v-6.654c0-2.049-.787-3.076-2.338-3.076a2.673,2.673,0,0,0-2.573,2.838v6.892h-2.578v-8.276c0-1.025-.025-2.123-.1-3.315h2.266l.121,1.789h.071a4.162,4.162,0,0,1,3.672-2.027c2.433,0,4.033,1.86,4.033,4.887Zm17.33-9.657h-2.834v5.627c0,1.433.5,2.147,1.5,2.147a5.093,5.093,0,0,0,1.143-.12l.071,1.956a5.712,5.712,0,0,1-2,.287c-2.03,0-3.244-1.12-3.244-4.054v-5.843h-1.691v-1.931h1.691v-2.123l2.529-.764v2.885h2.834v1.934Zm13.636,9.657H627v-6.6c0-2.074-.784-3.123-2.337-3.123a2.526,2.526,0,0,0-2.578,2.743v6.986h-2.573V679.457h2.573v6.961h.052a3.908,3.908,0,0,1,3.486-1.885c2.453,0,3.952,1.907,3.952,4.937v6.892Zm13.971-5.175h-7.73a3.326,3.326,0,0,0,3.652,3.432,8.7,8.7,0,0,0,3.124-.548l.4,1.789a9.68,9.68,0,0,1-3.889.715c-3.625,0-5.771-2.29-5.771-5.841s2.2-6.224,5.481-6.224c2.962,0,4.82,2.194,4.82,5.509a4.954,4.954,0,0,1-.089,1.167Zm-2.362-1.836c0-1.789-.9-3.052-2.549-3.052a3.054,3.054,0,0,0-2.817,3.052Z" transform="translate(-453.081 -679.457)"/></g></svg>