<svg xmlns="http://www.w3.org/2000/svg" width="42.39" height="48" viewBox="0 0 42.39 48"><defs><style>.a{fill:#fff;stroke:#fff;}</style></defs><g transform="translate(-29.966 0.5)"><g transform="translate(30.556)"><g transform="translate(0)"><path class="a" d="M70.094,297.684a8.32,8.32,0,0,0-5.588-6.54l-6.522-2.174V288H56.467v1.422l-1.132,4.526-3.062-3.674H50.047l-3.062,3.674-1.131-4.526V288H44.338v.97l-6.522,2.174a8.322,8.322,0,0,0-5.588,6.54L30.556,307.71H71.765Zm-22.623,8.51h-8.36l.675-6.747-1.509-.151-.69,6.9H32.347l1.377-8.261a6.809,6.809,0,0,1,4.573-5.351l6.264-2.088,1.68,6.719,1.709-2.051.9,1.357Zm5.848,0H49l1.434-10.035-1.475-2.213,1.8-2.156h.806l1.8,2.156-1.475,2.213Zm11.415,0-.69-6.9-1.509.151.675,6.747H54.85l-1.382-9.675.9-1.357,1.709,2.051,1.68-6.719,6.264,2.088a6.809,6.809,0,0,1,4.573,5.351l1.377,8.261Z" transform="translate(-30.556 -260.71)"/><path class="a" d="M115.371,20.425a8.288,8.288,0,0,0,2.107,3.557l2.956,2.956a3.764,3.764,0,0,0,2.68,1.11h3.553a3.766,3.766,0,0,0,2.68-1.11l2.956-2.956a8.292,8.292,0,0,0,2.107-3.557,3.765,3.765,0,0,0,1.827-6.78h.023V9.1a3.8,3.8,0,0,0-3.225-3.748A8.113,8.113,0,0,0,125.437,0h-.546A11.384,11.384,0,0,0,113.52,11.371v2.274h.023a3.764,3.764,0,0,0,1.828,6.78Zm17.858-2.34a6.778,6.778,0,0,1-2,4.825l-2.956,2.956a2.289,2.289,0,0,1-1.608.666h-3.553a2.291,2.291,0,0,1-1.608-.666L118.55,22.91a6.778,6.778,0,0,1-2-4.824V14.4h2.978a13.6,13.6,0,0,0,8.983-3.355l.232.387a6.147,6.147,0,0,0,4.485,2.918Zm3.032-1.408a2.27,2.27,0,0,1-1.552,2.145c.021-.243.036-.489.036-.737V14.543A2.271,2.271,0,0,1,136.262,16.677Zm-21.226-5.306a9.866,9.866,0,0,1,9.855-9.855h.546a6.587,6.587,0,0,1,6.306,4.757l.157.55h.572A2.277,2.277,0,0,1,134.746,9.1v3.867a3.787,3.787,0,0,0-.758-.077,4.621,4.621,0,0,1-3.943-2.233l-1.214-2.023-.687.687a12.1,12.1,0,0,1-8.614,3.568h-3.737a3.787,3.787,0,0,0-.758.077Zm0,3.172v3.543c0,.248.014.493.036.738a2.26,2.26,0,0,1-.036-4.281Z" transform="translate(-104.286)"/></g></g></g></svg>