<svg xmlns="http://www.w3.org/2000/svg" width="34.231" height="33.263" viewBox="0 0 34.231 33.263"><defs><style>.a{fill:#2b335e;}.b{fill:#fc2861;}</style></defs><g transform="translate(-763.261 -6578.238)"><path class="a" d="M928.066,6732.858c-.776-.092-1.37-.2-1.37-.67,0-.629.825-.724,1.318-.724a1.792,1.792,0,0,1,1.429.629l.063.1,1.224-.566-.061-.125a2.412,2.412,0,0,0-1.888-1.308v-.815h-1.433v.813c-1.331.2-2.121.936-2.121,1.993,0,1.725,1.565,1.9,2.707,2.027,1.016.12,1.489.371,1.489.789,0,.8-1.107.861-1.446.861a1.863,1.863,0,0,1-1.694-.877l-.053-.125-1.329.563.054.125a2.8,2.8,0,0,0,2.393,1.632v.882h1.433v-.926a2.205,2.205,0,0,0,2.167-2.135C930.947,6733.213,929.282,6733.008,928.066,6732.858Z" transform="translate(-142.634 -133.373)"/><path class="a" d="M792.829,6589.21a11.174,11.174,0,1,0-12.338,11.318,11.174,11.174,0,1,0,12.338-11.318Zm-20,.2a8.83,8.83,0,1,1,8.83,8.83A8.84,8.84,0,0,1,772.829,6589.413Zm18.832,19.741a8.839,8.839,0,0,1-8.825-8.628,11.2,11.2,0,0,0,9.791-8.979,8.83,8.83,0,0,1-.966,17.606Z" transform="translate(-6.373 0)"/><path class="a" d="M965.936,6590.388l-2.44-1.642-1.31,1.947,5.682,3.822,3.912-5.814-1.946-1.31-1.626,2.417a7.71,7.71,0,0,0-7.434-5.714v2.346A5.362,5.362,0,0,1,965.936,6590.388Z" transform="translate(-174.288 -5.168)"/><path class="a" d="M769.1,6767.665l2.441,1.642,1.31-1.946-5.682-3.823-3.912,5.814,1.947,1.31,1.626-2.418a7.71,7.71,0,0,0,7.434,5.715v-2.346A5.361,5.361,0,0,1,769.1,6767.665Z" transform="translate(0 -163.511)"/><path class="b" d="M831.82,6620.839c-.876-.1-1.547-.227-1.547-.756,0-.71.932-.816,1.487-.816a2.019,2.019,0,0,1,1.613.71l.071.117,1.381-.64-.069-.141a2.719,2.719,0,0,0-2.13-1.476v-.921h-1.617v.916c-1.5.223-2.394,1.057-2.394,2.25,0,1.946,1.767,2.144,3.055,2.288,1.147.135,1.681.418,1.681.89,0,.9-1.249.972-1.632.972a2.1,2.1,0,0,1-1.912-.99l-.06-.142-1.5.636.06.142a3.156,3.156,0,0,0,2.7,1.843v1h1.617v-1.046a2.489,2.489,0,0,0,2.445-2.409C835.071,6621.24,833.193,6621.008,831.82,6620.839Z" transform="translate(-56.405 -32.779)"/></g></svg>