<svg xmlns="http://www.w3.org/2000/svg" width="208.493" height="50.509" viewBox="0 0 208.493 50.509"><defs><style>.a{fill:#fc2861;}.b{fill:#2b335e;}</style></defs><path class="a" d="M836.19,59.1V23.433a3.354,3.354,0,0,1,3.249-3.354H864.2v3.933a3.086,3.086,0,0,1-3.249,3.05H843.175V37.6h15.607v3.837a3.13,3.13,0,0,1-3.184,3.184H843.238L843.173,59.1Z" transform="translate(-836.19 -20.075)"/><path class="a" d="M878.332,28.442h6.516V55.892h-6.4l-.336-4.009a10.434,10.434,0,0,1-8.908,4.845c-8.128.054-14.141-4.955-14.141-14.588,0-9.467,6.292-14.422,14.311-14.366a10.078,10.078,0,0,1,8.743,4.454Zm-16.477,13.7a7.862,7.862,0,0,0,8.128,8.352c10.69,0,10.69-16.647,0-16.647a7.826,7.826,0,0,0-8.128,8.3Z" transform="translate(-828.293 -16.862)"/><path class="a" d="M899.895,34.113a2.345,2.345,0,0,1-2.989.481,9.918,9.918,0,0,0-5.221-1.259c-3.229,0-5.011,1-5.011,2.728,0,1.789,1.615,2.784,5.123,3.007,5.176.333,11.748,1.5,11.748,8.8,0,4.843-3.953,9.02-11.8,9.02a16.066,16.066,0,0,1-12.7-4.9l1.91-2.768a2.352,2.352,0,0,1,3.211-.624,16.469,16.469,0,0,0,7.687,2.39c2.562.056,4.955-1.281,4.955-3.285,0-1.894-1.565-2.683-5.456-2.9C886.177,44.412,880,42.52,880,36.284c0-6.348,6.569-8.575,11.581-8.575a14.737,14.737,0,0,1,10.69,3.618Z" transform="translate(-818.256 -16.91)"/><path class="a" d="M909.639,23.385v6.95h8.05v3.016a2.869,2.869,0,0,1-2.831,2.876h-5.268V48.042a3.408,3.408,0,0,0,3.564,3.9,7.774,7.774,0,0,0,3.285-.832l1.894,5.789a15.19,15.19,0,0,1-5.624,1.169c-5.957.224-9.856-3.173-9.856-10.022l.025-11.835h-2.46a2.71,2.71,0,0,1-2.683-2.683v-3.2h5.123V23.439Z" transform="translate(-810.433 -18.692)"/><g transform="translate(114.493)"><path class="b" d="M933.133,47.631h-9.195V59.1h-7.03V23.373a3.255,3.255,0,0,1,3.249-3.247c4.443-.013,8-.049,12.969-.049C952.175,20.077,952.231,47.631,933.133,47.631Zm-9.2-6.737h9.2a6.9,6.9,0,1,0,0-13.809h-9.2Z" transform="translate(-916.909 -20.077)"/><path class="b" d="M962.724,28.442h6.516V55.892h-6.4l-.335-4.009a10.433,10.433,0,0,1-8.908,4.845c-8.128.054-14.143-4.955-14.143-14.588,0-9.467,6.292-14.422,14.311-14.366a10.077,10.077,0,0,1,8.743,4.454Zm-16.482,13.7a7.863,7.863,0,0,0,8.128,8.352c10.69,0,10.69-16.647,0-16.647a7.826,7.826,0,0,0-8.128,8.3Z" transform="translate(-907.476 -16.862)"/><path class="b" d="M974.318,41.062h0l-4.443-12.815h-7.891l8.855,21.642Z" transform="translate(-898.047 -16.658)"/><path class="b" d="M990.32,28.247l-16.75,38.92h-7.462l3.226-7.526.108-.257,5.31-12.148,3.032-6.967L982.8,28.247Z" transform="translate(-896.321 -16.658)"/></g></svg>