<svg xmlns="http://www.w3.org/2000/svg" width="132.09" height="32" viewBox="0 0 132.09 32"><defs><style>.a{fill:#fc2861;}.b{fill:#fff;}</style></defs><path class="a" d="M836.19,44.546V22.182a2.1,2.1,0,0,1,2.037-2.1H853.75v2.466a1.935,1.935,0,0,1-2.037,1.912H840.569v6.606h9.785v2.406a1.962,1.962,0,0,1-2,2h-7.75l-.041,9.081Z" transform="translate(-836.19 -20.076)"/><path class="a" d="M869.651,28.2h4.085V45.723h-4.014l-.21-2.56a6.514,6.514,0,0,1-5.585,3.094c-5.1.034-8.865-3.164-8.865-9.314,0-6.044,3.945-9.208,8.972-9.172a6.284,6.284,0,0,1,5.481,2.844Zm-10.33,8.745a5.072,5.072,0,0,0,1.387,3.817,4.883,4.883,0,0,0,3.709,1.515c6.7,0,6.7-10.628,0-10.628a4.86,4.86,0,0,0-3.7,1.5,5.049,5.049,0,0,0-1.393,3.8Z" transform="translate(-838.279 -20.93)"/><path class="a" d="M892.117,31.785a1.452,1.452,0,0,1-1.874.307,6.13,6.13,0,0,0-3.273-.8c-2.024,0-3.142.639-3.142,1.741,0,1.142,1.012,1.777,3.212,1.92,3.245.213,7.365.959,7.365,5.615,0,3.092-2.479,5.758-7.4,5.758a9.976,9.976,0,0,1-7.96-3.129l1.2-1.767a1.458,1.458,0,0,1,2.013-.4,10.194,10.194,0,0,0,4.82,1.526c1.607.036,3.107-.818,3.107-2.1,0-1.209-.981-1.713-3.421-1.848-3.245-.25-7.12-1.457-7.12-5.438,0-4.052,4.119-5.474,7.26-5.474a9.136,9.136,0,0,1,6.7,2.309Z" transform="translate(-840.479 -20.926)"/><path class="a" d="M905.2,23.385v4.357h5.047v1.891a1.8,1.8,0,0,1-1.775,1.8h-3.3v7.407a2.137,2.137,0,0,0,2.235,2.443,4.874,4.874,0,0,0,2.059-.522l1.188,3.629a9.524,9.524,0,0,1-3.526.733c-3.734.14-6.179-1.989-6.179-6.283l.015-7.42h-1.542a1.7,1.7,0,0,1-1.682-1.682v-2h3.212V23.419Z" transform="translate(-842.362 -20.443)"/><g transform="translate(73.157)"><path class="b" d="M927.081,37.352h-5.765v7.19h-4.407v-22.4a2.041,2.041,0,0,1,2.037-2.036c2.786-.008,5.015-.031,8.131-.031C939.019,20.077,939.054,37.352,927.081,37.352Zm-5.766-4.224h5.766a4.329,4.329,0,1,0,0-8.657h-5.766Z" transform="translate(-916.909 -20.077)"/><path class="b" d="M954.041,28.2h4.085V45.723h-4.015l-.21-2.56a6.513,6.513,0,0,1-5.585,3.094c-5.1.034-8.867-3.164-8.867-9.314,0-6.044,3.945-9.208,8.972-9.172a6.284,6.284,0,0,1,5.481,2.844Zm-10.333,8.745A5.073,5.073,0,0,0,945.1,40.76a4.884,4.884,0,0,0,3.708,1.516c6.7,0,6.7-10.628,0-10.628a4.86,4.86,0,0,0-3.7,1.5,5.049,5.049,0,0,0-1.393,3.8Z" transform="translate(-919.404 -20.93)"/><path class="b" d="M969.717,36.281h0l-2.785-8.034h-4.947l5.551,13.569Z" transform="translate(-921.899 -20.847)"/><path class="b" d="M981.288,28.247l-10.5,24.4h-4.678l2.023-4.719.067-.161,3.329-7.616,1.9-4.368,3.142-7.536Z" transform="translate(-922.356 -20.648)"/></g></svg>