<svg xmlns="http://www.w3.org/2000/svg" xmlns:xlink="http://www.w3.org/1999/xlink" width="774" height="628.315" viewBox="0 0 774 628.315"><defs><style>.a{fill:#eff5f8;}.ar,.b,.o,.w{fill:none;}.aa,.b{stroke:#fc2861;stroke-width:0.25px;}.aa,.b,.o,.w{stroke-miterlimit:10;}.c{fill:#86593e;}.d{fill:#b58e67;}.e{fill:#775cff;}.f{fill:#452b94;}.g{fill:#064266;}.h{fill:#dedddd;}.i{fill:#f2a5a5;}.aa,.j{fill:#fff;}.ad,.k{fill:#231f20;}.k{opacity:0.15;}.ac,.k{isolation:isolate;}.l{fill:#ffb9b0;}.m{fill:#5f281c;}.n{fill:#232b57;}.o{stroke:#422e2d;}.p{fill:#709480;}.q{fill:#b4c6b6;}.r{fill:#f1eadf;}.s{fill:#efebdf;}.t{fill:#b7c9b9;}.u{fill:#004a87;}.v{fill:#e3e3e3;}.w{stroke:#fff;}.x{fill:#042751;}.y{fill:#ffb092;}.z{opacity:0.27;}.ab{fill:#0dcb82;}.ac{opacity:0.23;}.ae{fill:#2892d7;}.af{fill:#0e6eaf;}.ag{fill:#02eba3;}.ah{fill:#0abc84;}.ai{fill:#fda601;}.aj{fill:#f9c723;}.ak{fill:#7447fd;}.al{fill:#6737bf;}.am{fill:#aa1548;}.an{fill:#fc2861;}.ao{fill:#ffcc3b;}.ap{fill:#1981bb;}.aq{fill:#1f1440;}.ar{stroke:#5f281c;}.as{fill:url(#a);}</style><linearGradient id="a" x1="-0.001" y1="0.5" x2="1.002" y2="0.5" gradientUnits="objectBoundingBox"><stop offset="0" stop-color="#fc2861"/><stop offset="1" stop-color="#fc2861"/></linearGradient></defs><g transform="translate(-250 -73)"><g transform="translate(802.151 705.304)"><g transform="translate(-552.151 -632.304)"><path class="a" d="M33.64,370.816C33.64,266,167.3,42.014,357.382,72.32,493.989,94.1,437.245,245.393,690.6,301.752,887.9,345.644,831.336,626.374,554.272,641.61,246.975,658.5,33.64,567.247,33.64,370.816Z" transform="translate(-33.64 -69.526)"/><path class="b" d="M674.584,426.889c-88.113,72.2-28.748,196.174,5.959,184.7,31-10.23-44-172.817-154.7-159.983-182.35,21.139-233.722,105.439-357.99,72.474-125.111-33.2-149.477-172.065-27.941-251.415,121-79-71.5-214.2-86.61-170.507-8.635,24.879,86.9,85.932,155.106,27.831s158.479-65.6,215.15,40.1,172.34,43.085,246.336,28.564S863.919,271.673,674.584,426.889Z" transform="translate(-17.712 -54.133)"/></g><rect class="c" width="102.652" height="15.071" transform="translate(-334.911 -100.738)"/><path class="d" d="M401.9,807.43H389.119L328.91,639.71h12.779Z" transform="translate(-594.94 -819.138)"/><path class="d" d="M312.49,807.43h12.779l15.052-167.72H327.542Z" transform="translate(-608.625 -819.138)"/><path class="d" d="M271.44,807.43h12.8l60.191-167.72H331.649Z" transform="translate(-642.836 -819.138)"/><path class="e" d="M282.162,575H388.279a9.937,9.937,0,0,1,9.937,9.937V695.143H284.545A6.509,6.509,0,0,1,278,688.671V579.089A4.088,4.088,0,0,1,282.162,575Z" transform="translate(-637.369 -873.068)"/><path class="e" d="M306.56,640.538H407.287a7.994,7.994,0,0,1,7.994,7.994h0a7.994,7.994,0,0,1-7.994,7.994H306.56V640.52Z" transform="translate(-613.567 -818.463)"/><path class="f" d="M149.7,354.812V258.6a6.765,6.765,0,0,0-6.784-6.765h0a6.765,6.765,0,0,0-6.765,6.765v97.464a31.938,31.938,0,0,0,31.92,31.92h23.468a7.994,7.994,0,0,0,7.994-7.994h0a8.012,8.012,0,0,0-7.994-8.012H166.878A17.179,17.179,0,0,1,149.7,354.812Z" transform="translate(-500.359 -549.897)"/><path class="g" d="M244.277,355.668H190.283a37.291,37.291,0,0,1-35.476-48.658l8.91-27.868,79.093-9.552Z" transform="translate(-486.29 -535.096)"/><path class="h" d="M357.276,536.03,380.028,617.1H357.276L333.35,576.566Z" transform="translate(-591.24 -905.545)"/><path class="i" d="M228.867,255l58.357,11.294-1.577,4.859s-51.794,12.357-78.488-12.43Z" transform="translate(-441.179 -547.256)"/><path class="i" d="M251.577,262.242l25.118-2.292-6.967,6.27A15.547,15.547,0,0,1,250,267.1h0Z" transform="translate(-405.476 -543.13)"/><path class="i" d="M265.452,260,270,270.267s-6.618,1.5-6.508-8.507Z" transform="translate(-394.234 -543.089)"/><path class="i" d="M261.951,260.68l4.125,10.835S258.431,272.359,261.951,260.68Z" transform="translate(-396.288 -542.522)"/><path class="i" d="M264.852,260l8.525,6.765s-5.757,3.043-9.167-5.5Z" transform="translate(-393.634 -543.089)"/><rect class="j" width="106.007" height="7.535" transform="translate(-246.926 -275.883)"/><path class="j" d="M249.419,217.477,224.246,207.32H194.508L156.52,218.614l17.087,72.2-15.584,38.96h73.593l-5.647-40.757.238-.733a16.189,16.189,0,0,1,8.25-9.314c6.582-3.318,10.4-7.774,11-12.522a24.715,24.715,0,0,0-.422-7.114,70.128,70.128,0,0,1,2.108-34.67Z" transform="translate(-483.383 -586.992)"/><path class="k" d="M226.069,253.025a17.766,17.766,0,0,0,8.91-11.935s-9.039,8.122-40.335,5.189c-36.1-3.355-13.567,23.321-26.474,55.35h53.737l-5.647-40.757.238-.733C217.855,256.032,222.219,254.969,226.069,253.025Z" transform="translate(-473.674 -558.848)"/><path class="l" d="M341.6,562.642,316.45,542.749l13.329-26.969h22.606Z" transform="translate(-605.325 -922.422)"/><path class="m" d="M338.642,539.688l-12.3-15.346,17.8-8.562Z" transform="translate(-597.082 -922.422)"/><path class="n" d="M183.82,164.608a23.376,23.376,0,0,1,13.292-4.859c6.454,0,23.009,6.8,29.169,22.367s8.489,28.711,2.328,46.348L201.421,220Z" transform="translate(-460.631 -626.637)"/><path class="l" d="M231.338,200.205c1.228,14.025-3.373,31.168-17.4,32.451s-34.945-15.437-36.173-29.463-2.457-37.31,16.5-39C221.951,161.759,230.036,186.2,231.338,200.205Z" transform="translate(-466.182 -623.072)"/><path class="n" d="M176.83,201.258s33-.367,40.335-29.169c0,0,5.024.862,11.935,8.635,0,0-3.3-17.014-30.8-17.014C170.193,163.71,176.83,201.258,176.83,201.258Z" transform="translate(-467.025 -623.337)"/><path class="n" d="M211.726,167.1s5.5,22.423-29.756,29.9" transform="translate(-462.173 -620.512)"/><path class="n" d="M202.8,198.322s-5.409,17.142,2.75,33.423c0,0-26.8,3.5-44.478-16.281-.44-17.876,8.489-35.2,19.709-46.733,9.387-9.644,36.063-12.834,42.81,5.629C223.586,174.359,205.215,173.846,202.8,198.322Z" transform="translate(-479.606 -625.608)"/><path class="n" d="M216.414,224.441S228.9,189.459,201.6,166.01" transform="translate(-445.813 -621.42)"/><path class="o" d="M159.56,212.2s2.732-54.159,49.209-50.18" transform="translate(-480.849 -624.924)"/><ellipse class="l" cx="8.159" cy="10.505" rx="8.159" ry="10.505" transform="translate(-295.72 -422.862) rotate(-20.71)"/><rect class="p" width="3.978" height="21.286" transform="translate(-289.168 -444.795)"/><rect class="q" width="3.978" height="21.286" transform="translate(-291.827 -444.795)"/><path class="p" d="M184.455,186.221v-10.3a13.347,13.347,0,0,1,6.38-11l7.554-4.657s-9.7,0-13.989,1.65l-1.137.44a11.77,11.77,0,0,0-7.554,11v12.962Z" transform="translate(-467.39 -626.212)"/><path class="q" d="M182.984,186.428v-10.3a11.77,11.77,0,0,1,6.362-10.469l10.212-5.262-3.117-.275a30.672,30.672,0,0,0-13.531,1.925l-1.137.44a11.77,11.77,0,0,0-7.554,11v12.962Z" transform="translate(-468.632 -626.419)"/><circle class="q" cx="11.257" cy="11.257" r="11.257" transform="translate(-299.325 -429.853)"/><circle class="r" cx="11.257" cy="11.257" r="11.257" transform="translate(-301.544 -429.853)"/><circle class="q" cx="7.059" cy="7.059" r="7.059" transform="translate(-297.345 -425.654)"/><circle class="r" cx="3.208" cy="3.208" r="3.208" transform="translate(-293.495 -421.804)"/><path class="r" d="M356.055,532.042l-26.786-3.08-13.989-18.9,1.467-1.1,13.512,18.279,26,2.988Z" transform="translate(-606.3 -928.105)"/><rect class="q" width="8.929" height="4.95" rx="0.64" transform="translate(-257.414 -400.078)"/><path class="s" d="M309.807,560.37,304.673,575.5l-3.043-10.45Z" transform="translate(-617.676 -885.26)"/><path class="j" d="M310.473,536.65,278.04,617.558h26.786l24.641-37.42Z" transform="translate(-637.336 -905.029)"/><path class="t" d="M245,273.284H221.75a11.624,11.624,0,1,1,23.248,0Z" transform="translate(-429.02 -541.705)"/><path class="l" d="M169.481,254.43l112.7,12.412L280.6,271.7s-88,30.068-141.814-11.459Z" transform="translate(-498.159 -547.731)"/><path class="l" d="M217.683,262.2l25.173-2.2-6.949,6.27a15.547,15.547,0,0,1-19.727.88h0Z" transform="translate(-433.662 -543.089)"/><path class="l" d="M231.614,260l4.565,10.267s-6.619,1.5-6.509-8.507Z" transform="translate(-422.42 -543.089)"/><path class="l" d="M228.117,260.68l4.143,10.835S224.615,272.359,228.117,260.68Z" transform="translate(-424.478 -542.522)"/><path class="l" d="M231.022,260l8.525,6.765s-5.739,3.043-9.167-5.5Z" transform="translate(-421.828 -543.089)"/><path class="n" d="M339.781,290.828H236.487a11.239,11.239,0,0,1-11.239-11.88l4.034-67.084a11.239,11.239,0,0,1,11.239-10.634H343.815a11.257,11.257,0,0,1,11.239,11.9l-4.034,67.084a11.239,11.239,0,0,1-11.239,10.615Z" transform="translate(-426.12 -592.068)"/><path class="u" d="M343.319,290.853H240.025a11.257,11.257,0,0,1-11.257-11.88l4.107-67.139A11.275,11.275,0,0,1,244.132,201.2H347.426a11.257,11.257,0,0,1,11.239,11.9l-4.034,67.084a11.239,11.239,0,0,1-11.312,10.67Z" transform="translate(-423.186 -592.093)"/><path class="n" d="M295.582,236.27h-32.25l13.549,49.5A2.567,2.567,0,0,1,274.406,289H243v5.647h57.752a8.2,8.2,0,0,0,7.9-10.34Zm-2.475,40.592a7.334,7.334,0,1,1,7.334-7.334A7.334,7.334,0,0,1,293.107,276.862Z" transform="translate(-411.31 -562.865)"/><path class="n" d="M280.528,225.69H262.065a7.975,7.975,0,0,0-7.975,7.975v11.422H288.5v-11.5a7.975,7.975,0,0,0-7.975-7.9Z" transform="translate(-402.068 -571.683)"/><path class="v" d="M283.4,225.69H264.939a7.975,7.975,0,0,0-7.939,7.9v11.422h34.413V233.592a7.975,7.975,0,0,0-8.012-7.9Z" transform="translate(-399.642 -571.683)"/><path class="v" d="M304.43,283.888,291.486,236.22H257l1.943,7.132h0l12.174,44.68a5.189,5.189,0,0,1-4.657,6.545h29.793a8.525,8.525,0,0,0,8.177-10.689ZM284.079,276.9a7.334,7.334,0,1,1,7.334-7.334A7.334,7.334,0,0,1,284.079,276.9Z" transform="translate(-399.642 -562.907)"/><path class="u" d="M283.4,225.69H264.939a7.975,7.975,0,0,0-7.939,7.9v11.422h34.413V233.592a7.975,7.975,0,0,0-8.012-7.9Z" transform="translate(-399.642 -571.683)"/><path class="u" d="M304.43,283.888,291.486,236.22H257l1.943,7.132h0l12.174,44.68a5.189,5.189,0,0,1-4.657,6.545h29.793a8.525,8.525,0,0,0,8.177-10.689ZM284.079,276.9a7.334,7.334,0,1,1,7.334-7.334A7.334,7.334,0,0,1,284.079,276.9Z" transform="translate(-399.642 -562.907)"/><path class="w" d="M300.821,292.7l-12.944-47.668h-.11v-11.4a7.975,7.975,0,0,0-7.975-7.975H261.33" transform="translate(-396.034 -571.716)"/><path class="w" d="M275.81,236.27l12.944,47.669a8.525,8.525,0,0,1-8.232,10.78" transform="translate(-383.966 -562.865)"/><path class="j" d="M236.6,252.625h0a.788.788,0,0,1-.752-.862l2.108-39.657a.808.808,0,0,1,1.613.092l-2.218,39.656A.807.807,0,0,1,236.6,252.625Z" transform="translate(-417.27 -583.638)"/><path class="j" d="M239.491,252.621h0a.807.807,0,0,1-.77-.862l2.218-39.657a.817.817,0,0,1,1.632.092l-2.237,39.657a.788.788,0,0,1-.843.77Z" transform="translate(-414.878 -583.635)"/><path class="j" d="M242.35,252.622h0a.825.825,0,0,1-.77-.862l2.237-39.657a.77.77,0,0,1,.843-.752.807.807,0,0,1,.77.843l-2.218,39.657a.825.825,0,0,1-.862.77Z" transform="translate(-412.494 -583.635)"/><path class="j" d="M245.253,252.625h0a.788.788,0,0,1-.752-.862l2.218-39.657a.808.808,0,0,1,1.613.092l-2.218,39.656a.807.807,0,0,1-.862.77Z" transform="translate(-410.062 -583.638)"/><path class="j" d="M248.141,252.621h0a.807.807,0,0,1-.77-.862l2.218-39.657a.817.817,0,0,1,1.632.092l-2.237,39.657a.807.807,0,0,1-.843.77Z" transform="translate(-407.669 -583.635)"/><path class="j" d="M281.583,252.625h0a.788.788,0,0,1-.752-.862l2.145-39.657a.808.808,0,0,1,1.613.092l-2.219,39.656a.807.807,0,0,1-.788.77Z" transform="translate(-379.784 -583.638)"/><path class="j" d="M284.471,252.621h0a.807.807,0,0,1-.77-.862l2.218-39.657a.817.817,0,0,1,1.632.092l-2.237,39.657a.806.806,0,0,1-.843.77Z" transform="translate(-377.391 -583.635)"/><path class="j" d="M287.35,252.621h0a.825.825,0,0,1-.77-.862l2.237-39.657a.77.77,0,0,1,.843-.752.807.807,0,0,1,.77.843l-2.218,39.657A.825.825,0,0,1,287.35,252.621Z" transform="translate(-374.991 -583.635)"/><path class="j" d="M290.24,252.622h0a.825.825,0,0,1-.77-.862l2.237-39.657a.77.77,0,0,1,.843-.752.788.788,0,0,1,.77.843L291.1,251.851a.807.807,0,0,1-.862.77Z" transform="translate(-372.582 -583.635)"/><path class="j" d="M293.113,252.621h0a.788.788,0,0,1-.752-.862L294.58,212.1a.807.807,0,0,1,.862-.752.788.788,0,0,1,.752.843l-2.218,39.657a.807.807,0,0,1-.862.77Z" transform="translate(-370.175 -583.635)"/><path class="g" d="M255.164,285.17H219.1L201.28,477.989h5.5c41.875-112.039,53.9-162.44,57.349-182.075a9.167,9.167,0,0,0-8.965-10.744Z" transform="translate(-446.08 -522.112)"/><path class="x" d="M201.64,470.654s39.987-103.037,29.7-172.67c-.66-4.437-12.559-12.834-12.559-12.834Z" transform="translate(-445.78 -522.128)"/><path class="g" d="M258.256,285.17H227.619L155.64,470.637l4.51,7.334c51.867-79.716,99.224-150.467,109.033-177.143a11.66,11.66,0,0,0-10.927-15.657Z" transform="translate(-484.116 -522.112)"/><path class="x" d="M217.983,326.747c-17.509,4.29-35.971-1.833-39.565-12.834a17.124,17.124,0,0,1,6.325-19.4l-7.682-20.626-13.384,1.632-8.874,27.9a37.291,37.291,0,0,0,35.513,48.64H207.5L157.848,480.02C232.284,361.527,217.983,326.747,217.983,326.747Z" transform="translate(-486.287 -531.512)"/><path class="j" d="M299.965,599.44H380.1l.348,16.317H294.74Z" transform="translate(-623.418 -852.699)"/><path class="y" d="M349.062,716.844v22.991l14.392,1.558H344.68l-1.173-14.062-6.637-8.69,7.3-9.13Z" transform="translate(-588.307 -760.966)"/><path class="g" d="M225.478,418.248l-2.237,7.829H208.39a4.62,4.62,0,0,1-4.62-4.62V405.964l-7.59-9.882,10.01-9.772.5,31.9Z" transform="translate(-450.33 -437.821)"/><path class="x" d="M335.39,714.84v29.976l5.207-26.658Z" transform="translate(-589.54 -756.524)"/><path class="y" d="M303.07,716.844v22.991l14.392,1.558H298.67L297.5,727.331l-6.637-8.69,7.315-9.13Z" transform="translate(-626.651 -760.966)"/><path class="g" d="M179.486,418.248l-2.237,7.829H162.4a4.62,4.62,0,0,1-4.639-4.62V405.964l-7.59-9.882L160.2,386.31l.495,31.9Z" transform="translate(-488.675 -437.821)"/><path class="x" d="M289.38,714.84v29.976l5.225-26.658Z" transform="translate(-627.885 -756.524)"/><path class="n" d="M254.54,599.44h73.85V827.534a13.457,13.457,0,0,1-13.457,13.457H268a13.457,13.457,0,0,1-13.457-13.457V599.44Z" transform="translate(-656.921 -852.699)"/><path class="u" d="M248.8,599.44h73.85V827.534a13.457,13.457,0,0,1-13.457,13.457H262.257A13.457,13.457,0,0,1,248.8,827.534V599.44Z" transform="translate(-661.704 -852.699)"/><path class="n" d="M410.57,599.44h73.849V827.534a13.457,13.457,0,0,1-13.457,13.457H424.027a13.457,13.457,0,0,1-13.457-13.457Z" transform="translate(-526.885 -852.699)"/><path class="u" d="M404.82,599.44h73.85V827.534a13.457,13.457,0,0,1-13.457,13.457H418.277a13.457,13.457,0,0,1-13.457-13.457Z" transform="translate(-531.677 -852.699)"/><rect class="u" width="391.652" height="23.248" rx="4.65" transform="translate(-443.431 -268.348)"/><rect class="n" width="278.457" height="23.248" rx="4.65" transform="translate(-273.767 -268.348)"/><rect class="z" width="73.849" height="13.604" transform="translate(-412.904 -245.1)"/><rect class="z" width="73.849" height="13.604" transform="translate(-126.857 -245.1)"/><path class="aa" d="M218.23,211.727l18.847-15.107H356.432a14.374,14.374,0,0,0,14.392-14.392V162.482a14.392,14.392,0,0,0-14.392-14.392H232.622a14.392,14.392,0,0,0-14.392,14.392Z" transform="translate(-431.953 -636.355)"/><line class="b" x1="83.585" transform="translate(-161.746 -476.256)"/><line class="b" x1="83.585" transform="translate(-161.746 -465.146)"/><line class="b" x1="83.585" transform="translate(-161.746 -454.035)"/><path class="ab" d="M250.467,640h0a19.269,19.269,0,0,1,19.269,19.269V783.7a5.042,5.042,0,0,1-5.042,5.042H236.222a5.042,5.042,0,0,1-5.042-5.042V659.287A19.269,19.269,0,0,1,250.467,640Z" transform="translate(-676.389 -818.896)"/><path class="ab" d="M121.856,383.4H109.187a9.5,9.5,0,1,1,0-18.994h12.669a12.834,12.834,0,0,0,12.834-12.834V338.277a9.5,9.5,0,1,1,18.976,0v13.255a31.81,31.81,0,0,1-31.81,31.865Z" transform="translate(-530.745 -486.115)"/><path class="ab" d="M121.3,396.535H108.011A31.828,31.828,0,0,1,76.22,364.744V352.057a9.5,9.5,0,1,1,18.994,0v12.687a12.834,12.834,0,0,0,12.834,12.834H121.34a9.5,9.5,0,1,1,0,18.994Z" transform="translate(-550.305 -474.283)"/><g class="ac" transform="translate(-468.53 -167.162)"><rect class="ad" width="1.577" height="6.6" transform="translate(31.626 9.9)"/><rect class="ad" width="1.577" height="6.6" transform="translate(51.812 0)"/><rect class="ad" width="1.577" height="6.6" transform="translate(40.573 38.391)"/><rect class="ad" width="1.577" height="6.6" transform="translate(46.165 18.389)"/><rect class="ad" width="1.577" height="6.6" transform="translate(54.819 74.913)"/><rect class="ad" width="1.577" height="6.6" transform="translate(76.398 16.061)"/><rect class="ad" width="1.577" height="6.6" transform="translate(31.626 59.347)"/><rect class="ad" width="1.577" height="6.6" transform="translate(33.276 87.563)"/><rect class="ad" width="1.577" height="6.6" transform="translate(48.145 57.844)"/><rect class="ad" width="1.577" height="6.6" transform="translate(0 59.182)"/><rect class="ad" width="1.577" height="6.6" transform="translate(7.59 46.843)"/><rect class="ad" width="1.577" height="6.6" transform="translate(11.074 65.783)"/><rect class="ad" width="1.577" height="6.6" transform="translate(56.212 32.653)"/><rect class="ad" width="1.577" height="6.6" transform="translate(79.698 41.692)"/></g><path class="ae" d="M150.97,378H86.361a2.9,2.9,0,0,0-2.86,3.263l6.692,50.107a10.322,10.322,0,0,0,10.23,8.965h37.621a10.285,10.285,0,0,0,10.23-9.167l5.5-49.942A2.9,2.9,0,0,0,150.97,378Z" transform="translate(-544.257 -444.747)"/><path class="af" d="M289.016,722.287l1.118-10.157h-66.2l1.338,10.157Z" transform="translate(-682.431 -758.783)"/><circle class="b" cx="16.024" cy="16.024" r="16.024" transform="translate(-473.297 -340.914)"/><circle class="b" cx="16.024" cy="16.024" r="16.024" transform="translate(26.727 -303.494)"/><circle class="b" cx="8.012" cy="8.012" r="8.012" transform="translate(16.424 -193.802)"/><path class="b" d="M324.024,467.007,301.73,480.593V453.44Z" transform="translate(-617.592 -974.376)"/><path class="b" d="M558.252,638.037,535.94,651.623V624.47Z" transform="translate(-422.401 -831.839)"/><rect class="aa" width="129.292" height="44.387" rx="6.39" transform="translate(42.751 -287.69)"/><line class="b" x1="83.585" transform="translate(65.614 -276.617)"/><line class="b" x1="83.585" transform="translate(65.614 -265.506)"/><line class="b" x1="83.585" transform="translate(65.614 -254.396)"/><rect class="aa" width="129.292" height="44.387" rx="6.39" transform="translate(-479.787 -429.981)"/><line class="b" x1="83.585" transform="translate(-456.925 -418.889)"/><line class="b" x1="83.585" transform="translate(-456.925 -407.778)"/><line class="b" x1="83.585" transform="translate(-456.925 -396.686)"/><g transform="translate(-84.612 -226.811)"><path class="ag" d="M339.016,347.552A117.908,117.908,0,0,1,342.9,373.22l.935-.825c20.571-18.169,31.443-34.725,37.09-48.072-25.576,16.244-6.307-.128,2.75-7.59,4.437-14.264,2.713-23.541,2.347-25.136v-.257s-6.435,9.424-11.275,10.524A30.508,30.508,0,0,0,361,307.676c-4.309,3.483-2.805,13.329-10.524,16.5,0,10.45-.477,32.03-5.078,2.163C339.145,330.116,336.1,337.743,339.016,347.552Z" transform="translate(-247.606 -290.159)"/><path class="ah" d="M306.69,311.89s5.042,32.855,35.073,45.835C341.763,357.8,367.944,355.947,306.69,311.89Z" transform="translate(-273.618 -273.033)"/><path class="ai" d="M343.078,387.937a28.62,28.62,0,0,0,13.531-22s5.317-10.762,14.172-9.332,20.259-14.667,31.3-23.394a29.957,29.957,0,0,1,22.661-6.527s-13.164-4.089-30.453,6a225.683,225.683,0,0,0-25.154,16.5l-15.364,10.157S340.236,380.9,343.078,387.937Z" transform="translate(-243.619 -261.388)"/><path class="aj" d="M344.883,384.839,350.053,374c5.152-10.835,5.115-18.334,16.611-24.036s28.895-19.929,29.444-20.387c-5.739,3.135-15.8,4.235-23.412,5.83-.568,4.419-2.438,13.677-7.444,2.237-1.6.825-2.548,1.833-2.585,3.117-.183,6.4-6.637,9.332-6.637,9.332C329.684,365.936,344.883,384.839,344.883,384.839Z" transform="translate(-245.424 -258.29)"/><path class="ag" d="M310.394,326.034a79.127,79.127,0,0,0,12.834,15.346c26.163,24.678,22.239,30.526,22.239,30.526a30.288,30.288,0,0,0,13.164,18.829,45.34,45.34,0,0,0-15.694-47.907c-3.8-3.025-7.334-5.5-10.524-7.59,1.283,6.619,1.577,13.164-7.609-4.749-13.054-7.884-20.167-12.1-22-35.55C302.749,294.94,299.265,308.342,310.394,326.034Z" transform="translate(-277.323 -287.159)"/><path class="ak" d="M300.32,336.138v-.568A1.971,1.971,0,0,1,300.32,336.138Z" transform="translate(-278.927 -253.298)"/><path class="al" d="M334.38,361.073s11.147,1.118,11.734,10.872,6.674,21.469,11.33,21.469c0,0,32.561-43.507-14.521-43.213h-.972c4.9,5.207,13.714,15.236-6.509-.11-33.551-1.1-35.33-11.294-35.146-14.191C300,339.512,300.518,354.967,334.38,361.073Z" transform="translate(-278.978 -253.023)"/><path class="al" d="M335.914,367.473A374,374,0,0,0,339.1,412.3a1.283,1.283,0,0,1-1.32-1.137c-.587-6.784-3.667-41.252-6.985-44.588C321.247,356.748,335.914,367.473,335.914,367.473Z" transform="translate(-256.219 -230.914)"/><path class="ak" d="M342.657,351.41s-5.17,19.452-3.19,68.129a1.943,1.943,0,1,1-3.887,0h0c.165-9.882,1.21-56.835,5.83-67.946Z" transform="translate(-249.541 -240.097)"/><path class="aj" d="M346.493,359.31,342.441,414.9a1.212,1.212,0,0,1-2.42-.147h0L345.3,360.1Z" transform="translate(-245.842 -233.513)"/><g transform="translate(93.582 0)"><path class="j" d="M385.521,291.455A87.6,87.6,0,0,1,374.613,311.2c-5.409,7.15-10.817,14.209-15.621,21.762A117.23,117.23,0,0,0,346.836,356.8c-2.933,8.379-3.667,17.216-5.867,25.759a.656.656,0,0,1-1.265-.33c2.108-8.305,2.86-16.886,5.629-25.044a111.362,111.362,0,0,1,10.872-22.276,242.734,242.734,0,0,1,14.832-21.213,97.937,97.937,0,0,0,13.219-22.587c.293-.733,1.558-.4,1.247.348Z" transform="translate(-339.694 -290.696)"/></g><g transform="translate(58.883 58.336)"><path class="al" d="M341.122,364.418c0-8.544-.862-16.5-5.5-23.981a97.164,97.164,0,0,0-14.667-16.849c-.587-.587.348-1.467.917-.88,5.665,5.665,11.55,11.33,15.547,18.334,4.254,7.334,4.969,15.181,4.987,23.449a.66.66,0,0,1-1.3,0Z" transform="translate(-320.768 -322.514)"/></g><g transform="translate(99.495 99.18)"><path class="ai" d="M342.92,371.96c.44-9.424,2.365-19.727,8.947-27.061.275-.312.733.128.458.44-6.454,7.205-8.324,17.4-8.764,26.621,0,.4-.66.4-.642,0Z" transform="translate(-342.92 -344.792)"/></g><path class="am" d="M308.685,373.6s9.827-11.569,17.8-5.977,18.334,26.2,18.334,26.2,3.667-17.857-12.1-28.436-25.3,5.3-25.3,5.3Z" transform="translate(-273.01 -231.481)"/><path class="an" d="M291.674,415.715s-.862-28.858,12.284-28.619a21.049,21.049,0,0,0,7.884-1.412c10.762-14.667,10.065-10.762,7.334-4.345a41.287,41.287,0,0,0,5.189-5.1h0a85.37,85.37,0,0,0,5.207-6.857c3.667-5.243,14.264-2.6,17.674-1.6l1.045.312c-.678-.7-16.317-16.134-35.513-6.215,8.782,1.833,17.417,4.84-5.3,6.105a33,33,0,0,1-13.219,11.844C283.387,384.767,291.674,415.715,291.674,415.715Z" transform="translate(-288.652 -234.127)"/><path class="am" d="M327.733,380.655a183.9,183.9,0,0,1,4.62,25.228.807.807,0,1,0,1.613,0h0c-.678-4.364-3.777-23.211-6.234-28.876C324.946,370.461,327.733,380.655,327.733,380.655Z" transform="translate(-257.113 -220.591)"/><g transform="translate(18.915 128.486)"><path class="j" d="M345.613,367.328c-3.8-7.334-21.6-6.71-28.2-2.97-6.234,3.52-10.1,9.515-17.619,10.817-.825.147-1.192-1.063-.348-1.21,9.35-1.613,13.879-11.44,23.3-12.834,6.325-.953,20.919-.275,23.981,5.629.367.715,2.42,4.565,2.035,3.832Z" transform="translate(-298.969 -360.776)"/></g><path class="ah" d="M342.676,345.879s-7.9,13.549-3.117,34.065a133.839,133.839,0,0,1,24.678-56.194S344.693,334.09,342.676,345.879Z" transform="translate(-247.507 -263.148)"/><path class="ao" d="M349.042,388.458c9.314-3.667,11.275-8.342,11.275-8.342s.972-1.98,15.107-7.9a25.322,25.322,0,0,0,3.007-1.467c-11.294.5-.147-3.667,6.674-5.977a17.619,17.619,0,0,0,3.208-10.89c-3.355,2.842-14.1,6.087-14.1,6.087C346.035,369.977,349.042,388.458,349.042,388.458Z" transform="translate(-238.399 -238.038)"/><g transform="translate(110.634 126.389)"><path class="j" d="M349,384.14c1.375-5.5,5.757-9.259,10.029-12.834a196.891,196.891,0,0,1,16.886-11.624c.293-.2.55.257.275.458-5.317,3.52-10.835,6.8-15.8,10.762-4.529,3.667-9.405,7.664-10.872,13.347a.257.257,0,0,1-.33.183.275.275,0,0,1-.183-.33Z" transform="translate(-348.995 -359.633)"/></g><path class="am" d="M346.477,381.365l-4.29,18.151a.623.623,0,0,1-.752.44h0a.587.587,0,0,1-.385-.715c.733-2.6,3.979-14.172,4.529-18.151C346.092,376.58,346.477,381.365,346.477,381.365Z" transform="translate(-245.001 -216.974)"/><path class="ai" d="M353.426,372.52s-6.839,19.947-7.5,29.609a.568.568,0,0,1-.587.495h0a.513.513,0,0,1-.458-.587h0c.55-3.245,3.667-21.011,7.554-29.078Z" transform="translate(-241.793 -222.503)"/><path class="am" d="M343.351,390.67c3.08-13.182,8.984-10.139,8.984-10.139,19.4.33,25.668-7.15,26.108-7.609-.33.293-5.83,5.262-17.307,2.438-2.347,1.925-8.415,6.527-3.428-1.027-.642-.22-1.283-.458-1.962-.733C340.179,367.294,343.351,390.67,343.351,390.67Z" transform="translate(-243.287 -222.503)"/><path class="af" d="M388.353,401.467c0,18.884-15.932,34.156-35.586,34.156a36.155,36.155,0,0,1-26.2-11A33.2,33.2,0,0,1,317.18,401.5a32.707,32.707,0,0,1,4-15.767l.917-1.577h61.327A33,33,0,0,1,388.353,401.467Z" transform="translate(-264.876 -212.802)"/><path class="ap" d="M363.569,404.436c0,10.707-16.5,19.379-36.961,19.507a33.111,33.111,0,0,1-5.39-38.868q2.42-.165,4.9-.165C346.793,384.91,363.569,393.655,363.569,404.436Z" transform="translate(-264.843 -212.177)"/><rect class="aq" width="64.316" height="6.325" transform="translate(55.806 168.167)"/></g></g><path class="ar" d="M4468.167,167.167s8.333-.5,12,4" transform="translate(-3922 130)"/><path class="as" d="M392.184,146.955l.477-.11c7.645,4.583,12.632,4.363,15.126.477v-.128c2.127-3.3,1.063-7.242-3.19-9.955a15.236,15.236,0,0,0-12.614-1.522l-1.393-7.572a21.451,21.451,0,0,1,18.444,2.585c8.25,5.317,10.909,13.512,6.16,20.9v.11c-4.767,7.444-12.3,7.334-19.581,4.253l-3.667,4.345-4.785-3.062Zm-9.809,14.172,7.9,5.079-5.225,8.14-7.9-5.079Z" transform="translate(185.643 53.557)"/><path class="as" d="M386.9,139.99l.309-.071c4.96,2.974,8.2,2.831,9.813.309v-.083c1.38-2.141.69-4.7-2.07-6.459a9.885,9.885,0,0,0-8.184-.987l-.9-4.913a13.917,13.917,0,0,1,11.967,1.677c5.353,3.45,7.078,8.767,4,13.56v.071c-3.093,4.829-7.982,4.758-12.7,2.76l-2.379,2.819-3.1-1.986Zm-6.364,9.195,5.127,3.295-3.39,5.281-5.127-3.295Z" transform="matrix(0.643, -0.766, 0.766, 0.643, 176.228, 400.919)"/></g></svg>