<svg xmlns="http://www.w3.org/2000/svg" width="661.821" height="452.728" viewBox="0 0 661.821 452.728"><defs><style>.a{opacity:0.41;}.b,.c,.h{fill:#c5d9ff;}.c{opacity:0.31;}.d{fill:#ecf1f7;}.e{fill:#243762;}.f,.l{fill:#fff;}.g{fill:#af9cda;}.h{opacity:0.43;}.i{opacity:0.26;}.j{fill:none;stroke:#243762;stroke-linecap:round;stroke-width:6px;}.k{fill:#f7a9b4;}.l{opacity:0.25;}.m{fill:#fc2861;}</style></defs><g transform="translate(432.907 5743.025)"><g transform="translate(-432.907 -5743.025)"><g transform="translate(0 0)"><g class="a" transform="translate(56.643)"><path class="b" d="M751.45,415.821c3.214-71.732-32.3-133.342-85.9-168.059a39.94,39.94,0,0,1-17.9-29.119c-.072-.643-.148-1.287-.227-1.934C637.6,137.953,563.989,82.622,485.585,93.292c-75,10.2-128.985,49.835-121.013,126.154.038.36.079.882.125,1.541a36.449,36.449,0,0,1-35.7,38.778q-6.535.153-13.157.84c-89.472,9.349-154.375,89.756-144.848,179.527a162.745,162.745,0,0,0,52.041,102.981H689.42C724.875,509.188,749.376,462.12,751.45,415.821Z" transform="translate(-170.058 -91.975)"/></g><path class="c" d="M229.278,134.021A19.283,19.283,0,1,1,210,114.736,19.281,19.281,0,0,1,229.278,134.021Z" transform="translate(-55.891 -28.583)"/><circle class="c" cx="16.934" cy="16.934" r="16.934" transform="translate(553.933 15.011)"/><path class="c" d="M346.9,152.5a11.524,11.524,0,1,1-11.526-11.522A11.524,11.524,0,0,1,346.9,152.5Z" transform="translate(314.921 44.492)"/><path class="c" d="M178.141,191.484a11.524,11.524,0,1,1-11.522-11.526A11.523,11.523,0,0,1,178.141,191.484Z" transform="translate(-155.093 153.067)"/><g transform="translate(99.434 66.384)"><path class="b" d="M677.2,385.7c2.74-61.175-27.548-113.716-73.261-143.327a34.059,34.059,0,0,1-15.262-24.834c-.06-.549-.125-1.1-.193-1.65-8.384-67.167-71.164-114.355-138.031-105.256-63.961,8.7-110,42.5-103.2,107.588.034.307.068.753.106,1.317a31.082,31.082,0,0,1-30.451,33.07q-5.575.131-11.219.719c-76.308,7.975-131.661,76.55-123.534,153.107a138.795,138.795,0,0,0,44.38,87.829H624.3C654.539,465.334,675.437,425.194,677.2,385.7Z" transform="translate(-181.363 -109.513)"/></g></g><g transform="translate(116.138 139.031)"><g transform="translate(50.349)"><path class="d" d="M583.009,393.83H199.34V136.754a7.786,7.786,0,0,1,7.786-7.786H575.219a7.787,7.787,0,0,1,7.79,7.786Z" transform="translate(-198.348 -127.976)"/><path class="e" d="M584.731,395.552H199.078V137.487a8.789,8.789,0,0,1,8.778-8.781H575.949a8.793,8.793,0,0,1,8.781,8.781Zm-383.669-1.983H582.747V137.487a6.8,6.8,0,0,0-6.8-6.8H207.856a6.8,6.8,0,0,0-6.794,6.8Z" transform="translate(-199.078 -128.706)"/></g><g transform="translate(217.556 250.218)"><rect class="d" width="49.256" height="3.94" transform="translate(0.991 0.994)"/><path class="e" d="M294.492,200.74H243.253v-5.927h51.239Zm-49.256-1.987h47.272V196.8H245.236Z" transform="translate(-243.253 -194.812)"/></g><g transform="translate(239.188 8.108)"><path class="d" d="M255.215,133.953a3,3,0,1,1-2.994-2.843A2.923,2.923,0,0,1,255.215,133.953Z" transform="translate(-248.236 -130.118)"/><path class="e" d="M252.954,138.517a3.837,3.837,0,1,1,3.99-3.834A3.92,3.92,0,0,1,252.954,138.517Zm0-5.685a1.857,1.857,0,1,0,2,1.851A1.931,1.931,0,0,0,252.954,132.831Z" transform="translate(-248.968 -130.848)"/></g><g transform="translate(0 293.909)"><path class="e" d="M660.7,224.074H195.183c-5.049,0-9.145-2.737-9.145-6.109v-9.625c0-.954,1.154-1.722,2.578-1.722h479.05c1.423,0,2.578.768,2.578,1.722V217.7C670.243,221.22,665.97,224.074,660.7,224.074Z" transform="translate(-185.046 -205.625)"/><path class="e" d="M661.427,225.8H195.913c-5.685,0-10.136-3.119-10.136-7.1v-9.625c0-1.525,1.567-2.714,3.569-2.714H668.4c2,0,3.569,1.189,3.569,2.714v9.361C671.965,222.559,667.336,225.8,661.427,225.8ZM189.345,208.338c-.984,0-1.586.473-1.586.731v9.625c0,2.774,3.732,5.117,8.153,5.117H661.427c4.637,0,8.554-2.464,8.554-5.382v-9.361c0-.257-.6-.731-1.586-.731Z" transform="translate(-185.776 -206.355)"/></g><g transform="translate(67.352 21.072)"><rect class="f" width="349.753" height="223.947" rx="2.252" transform="translate(0.947 0.947)"/><path class="e" d="M545.747,360.115H213.04a9.485,9.485,0,0,1-9.47-9.474v-206.9a9.482,9.482,0,0,1,9.47-9.47H545.747a9.479,9.479,0,0,1,9.47,9.47v206.9A9.482,9.482,0,0,1,545.747,360.115ZM213.04,136.166a7.586,7.586,0,0,0-7.578,7.578v206.9a7.587,7.587,0,0,0,7.578,7.581H545.747a7.589,7.589,0,0,0,7.578-7.581v-206.9a7.588,7.588,0,0,0-7.578-7.578Z" transform="translate(-203.57 -134.273)"/><g transform="translate(2.086 2.233)"><path class="g" d="M551.188,148.573v-5.916c0-4.3-3.785-7.793-8.456-7.793H212.577c-4.671,0-8.456,3.49-8.456,7.793V148.6Z" transform="translate(-204.121 -134.863)"/><path class="f" d="M290.967,138.227A1.97,1.97,0,1,1,289,136.255,1.97,1.97,0,0,1,290.967,138.227Z" transform="translate(26.781 -130.986)"/><circle class="f" cx="1.97" cy="1.97" r="1.97" transform="translate(321.687 5.27)"/><circle class="f" cx="1.97" cy="1.97" r="1.97" transform="translate(329.568 5.27)"/></g></g><rect class="h" width="287.382" height="155.342" transform="translate(98.063 61.702)"/><g transform="translate(1.976 264.105)"><path class="d" d="M236.772,198.743l-50.341,29.585h0l480.14-.211L620.2,198.868Z" transform="translate(-185.927 -197.751)"/><path class="e" d="M187.07,230.049H186.8l0-1-.5-.848,50.573-29.721h.273l383.715.125,49.517,31.231Zm50.342-29.584-46.962,27.6,473.062-.208-43.226-27.268Z" transform="translate(-186.298 -198.481)"/></g><g class="i" transform="translate(79.298 264.105)"><path class="d" d="M241.157,198.743,207.69,218.412h0l319.205-.14-30.828-19.446Z" transform="translate(-204.041 -197.751)"/><path class="e" d="M206.726,220.136l36.848-21.655,255.464.083,33.971,21.427Zm37.385-19.671-30.088,17.684,312.127-.136-27.684-17.465Z" transform="translate(-206.726 -198.481)"/></g><g transform="translate(165.56 105.589)"><path class="e" d="M262.265,156.6a2.976,2.976,0,0,0-2.979,2.975,11.908,11.908,0,1,1-23.816,0,2.977,2.977,0,0,0-5.954,0,17.862,17.862,0,1,0,35.724,0A2.975,2.975,0,0,0,262.265,156.6Z" transform="translate(-229.516 -156.602)"/><path class="e" d="M293.749,156.6a2.976,2.976,0,0,0-2.975,2.975,11.908,11.908,0,1,1-23.816,0,2.977,2.977,0,0,0-5.954,0,17.862,17.862,0,1,0,35.724,0A2.979,2.979,0,0,0,293.749,156.6Z" transform="translate(-141.819 -156.602)"/><path class="j" d="M32.237,81.691s11.234-16.475,45.9-16.643,44.506,16.643,44.506,16.643"/></g><path class="e" d="M493.777,140.294H225.807a1.039,1.039,0,0,1,0-2.078h267.97a1.039,1.039,0,1,1,0,2.078Z" transform="translate(-77.174 -102.22)"/></g><g transform="translate(460.772 72.784)"><g transform="translate(18.096)"><path class="e" d="M281.857,178.526V144.415c0-18.176,13.384-32.961,29.834-32.961H335.8c16.446,0,29.83,14.785,29.83,32.961v34.111c0,18.172-13.384,32.957-29.83,32.957H311.691C295.241,211.483,281.857,196.7,281.857,178.526Zm29.834-51.542c-8.7,0-15.776,7.82-15.776,17.43v34.111c0,9.607,7.078,17.427,15.776,17.427H335.8c8.694,0,15.772-7.82,15.772-17.427V144.415c0-9.61-7.078-17.43-15.772-17.43Z" transform="translate(-280.911 -110.508)"/><path class="f" d="M336.495,213.125H312.384c-16.969,0-30.777-15.208-30.777-33.9V145.111c0-18.7,13.808-33.907,30.777-33.907h24.111c16.976,0,30.78,15.209,30.78,33.907v34.111C367.275,197.917,353.471,213.125,336.495,213.125ZM312.384,113.1c-15.928,0-28.884,14.361-28.884,32.014v34.111c0,17.65,12.956,32.011,28.884,32.011h24.111c15.928,0,28.888-14.361,28.888-32.011V145.111c0-17.654-12.96-32.014-28.888-32.014Zm24.111,84.5H312.384c-9.217,0-16.719-8.244-16.719-18.373V145.111c0-10.133,7.5-18.373,16.719-18.373h24.111c9.221,0,16.719,8.24,16.719,18.373v34.111C353.214,189.351,345.715,197.6,336.495,197.6Zm-24.111-68.965c-8.176,0-14.826,7.392-14.826,16.48v34.111c0,9.088,6.65,16.48,14.826,16.48h24.111c8.18,0,14.826-7.392,14.826-16.48V145.111c0-9.088-6.647-16.48-14.826-16.48Z" transform="translate(-281.607 -111.204)"/></g><rect class="k" width="121.861" height="101.168" rx="3.75" transform="translate(0 56.422)"/><path class="e" d="M331.825,212.982H297.6a.946.946,0,1,1,0-1.893h34.229a10.713,10.713,0,0,0,10.7-10.7V132.529a.946.946,0,0,1,1.893,0v67.859A12.608,12.608,0,0,1,331.825,212.982Z" transform="translate(-221.615 -54.446)"/><rect class="l" width="105.192" height="78.334" rx="3.75" transform="translate(8.335 70.261)"/><path class="e" d="M289.165,147.624a14.226,14.226,0,1,1,18.346,13.551v18.4h-8.24v-18.4A14.181,14.181,0,0,1,289.165,147.624Z" transform="translate(-242.461 -49.386)"/></g><path class="e" d="M729.483,213.92H178.535a1.588,1.588,0,0,1,0-3.176H729.483a1.588,1.588,0,0,1,0,3.176Z" transform="translate(-94.222 238.809)"/><g transform="translate(559.445 109.92)"><path class="m" d="M348.733,146.17a22.919,22.919,0,1,1-22.919-22.919A22.919,22.919,0,0,1,348.733,146.17Z" transform="translate(-302.895 -114.788)"/><path class="e" d="M303.427,174.108a.993.993,0,1,1,1.4-1.4,29.124,29.124,0,1,0,0-41.186.993.993,0,0,1-1.4-1.4,31.11,31.11,0,1,1,0,43.994Z" transform="translate(-302.22 -121.015)"/><g transform="translate(19.561 19.856)"><path class="f" d="M311.095,150.255a3.08,3.08,0,0,1-2.177-.8,2.549,2.549,0,0,1-.855-1.938,2.454,2.454,0,0,1,.867-1.942,3.166,3.166,0,0,1,2.165-.757,3.06,3.06,0,0,1,2.154.765,2.5,2.5,0,0,1,.84,1.934,2.565,2.565,0,0,1-.829,1.961A3.066,3.066,0,0,1,311.095,150.255ZM313.7,128.54l-.469,11.885a2.187,2.187,0,0,1-2.188,2.1h0a2.188,2.188,0,0,1-2.188-2.108l-.447-11.885a2.192,2.192,0,0,1,2.188-2.275h.916A2.189,2.189,0,0,1,313.7,128.54Z" transform="translate(-308.063 -126.261)"/></g></g></g></g></svg>