<svg xmlns="http://www.w3.org/2000/svg" xmlns:xlink="http://www.w3.org/1999/xlink" width="339.089" height="100.471" viewBox="0 0 339.089 100.471"><defs><style>.a,.d{fill:#fff;}.b{fill:#c9c6c6;}.c{fill:#010101;}.d{opacity:0.1;}.e{fill:url(#a);}.f{fill:url(#b);}.g{fill:url(#c);}.h{fill:url(#d);}</style><linearGradient id="a" x1="0.5" y1="-0.003" x2="0.5" y2="0.993" gradientUnits="objectBoundingBox"><stop offset="0" stop-color="#267caf"/><stop offset="0.286" stop-color="#4a92b4"/><stop offset="0.767" stop-color="#79bcba"/><stop offset="1" stop-color="#88cebc"/></linearGradient><linearGradient id="b" x1="0.638" y1="0.141" x2="0.339" y2="0.948" gradientUnits="objectBoundingBox"><stop offset="0" stop-color="#f48879"/><stop offset="0.119" stop-color="#f5907a"/><stop offset="0.713" stop-color="#fbb777"/><stop offset="1" stop-color="#fdc874"/></linearGradient><linearGradient id="c" x1="0.866" y1="0.172" x2="0.048" y2="1.029" gradientUnits="objectBoundingBox"><stop offset="0" stop-color="#eb413d"/><stop offset="0.167" stop-color="#d94452"/><stop offset="0.575" stop-color="#af487a"/><stop offset="0.862" stop-color="#954b92"/><stop offset="1" stop-color="#894a9c"/></linearGradient><linearGradient id="d" x1="0.106" y1="0.073" x2="0.888" y2="0.85" gradientUnits="objectBoundingBox"><stop offset="0" stop-color="#54c0ac"/><stop offset="1" stop-color="#dde79a"/></linearGradient></defs><path class="a" d="M492.4,390.977a9.624,9.624,0,0,1-9.625,9.623H167.441a9.637,9.637,0,0,1-9.648-9.623V314.238a9.649,9.649,0,0,1,9.648-9.635H482.758a9.634,9.634,0,0,1,9.635,9.633v0l0,76.738Z" transform="translate(-155.556 -302.367)"/><path class="b" d="M478.949,399.027H163.63a11.886,11.886,0,0,1-11.885-11.861V310.43a11.893,11.893,0,0,1,11.885-11.874H478.947a11.9,11.9,0,0,1,11.885,11.874v76.736a11.884,11.884,0,0,1-11.882,11.861Z" transform="translate(-151.745 -298.556)"/><path class="c" d="M492.4,390.977a9.624,9.624,0,0,1-9.625,9.623H167.441a9.637,9.637,0,0,1-9.648-9.623V314.238a9.649,9.649,0,0,1,9.648-9.635H482.758a9.634,9.634,0,0,1,9.635,9.633v0l0,76.738Z" transform="translate(-155.556 -302.367)"/><path class="d" d="M748.721,298.556H579.827L645.98,399.027H748.721a11.893,11.893,0,0,0,11.885-11.869V310.43A11.9,11.9,0,0,0,748.721,298.556Z" transform="translate(-421.518 -298.556)"/><g transform="translate(35.511 19.581)"><path class="a" d="M450.631,366.875a6.691,6.691,0,0,1-1.719,4.912,7.641,7.641,0,1,1-5.4-13.017,6.542,6.542,0,0,1,2.947.737,5.347,5.347,0,0,1,2.21,1.719l-1.228,1.228a4.579,4.579,0,0,0-3.929-1.719,4.887,4.887,0,0,0-3.93,1.719,5.928,5.928,0,0,0,0,8.35,6.322,6.322,0,0,0,3.93,1.719,5.385,5.385,0,0,0,4.175-1.719,4.065,4.065,0,0,0,1.228-2.947h-5.4v-1.965h7.122v.983Zm11.3-6.14H455.3V365.4h6.14v1.719H455.3v4.666h6.631v1.964h-8.6V359.016h8.6Zm8.1,13.016h-1.965V360.735h-4.175v-1.719h10.315v1.719h-4.175Zm11.3,0V359.016h1.964v14.735Zm10.315,0h-1.965V360.735H485.5v-1.719h10.069v1.719H491.4v13.016Zm23.331-1.964a7.71,7.71,0,1,1,2.21-5.4A7.222,7.222,0,0,1,514.975,371.787Zm-9.333-1.228a5.8,5.8,0,0,0,3.93,1.719,4.886,4.886,0,0,0,3.929-1.719,5.924,5.924,0,0,0,1.719-4.175,5.059,5.059,0,0,0-1.719-4.175,5.8,5.8,0,0,0-3.929-1.719,4.886,4.886,0,0,0-3.93,1.719,5.925,5.925,0,0,0-1.719,4.175A5.059,5.059,0,0,0,505.643,370.559Zm14.244,3.193V359.016h2.21l7.122,11.543V359.016h1.964v14.735h-1.964l-7.613-12.034v12.034Z" transform="translate(-366.325 -356.083)"/><path class="a" d="M500.212,429.413a10.332,10.332,0,0,0-10.561,10.56,10.482,10.482,0,0,0,10.561,10.56,10.332,10.332,0,0,0,10.56-10.56A10.189,10.189,0,0,0,500.212,429.413Zm0,16.7a6.406,6.406,0,0,1,0-12.771c3.193,0,5.894,2.456,5.894,6.385A6.1,6.1,0,0,1,500.212,446.113Zm-22.84-16.7a10.332,10.332,0,0,0-10.561,10.56,10.482,10.482,0,0,0,10.561,10.56,10.332,10.332,0,0,0,10.56-10.56A10.189,10.189,0,0,0,477.372,429.413Zm0,16.7a6.406,6.406,0,0,1,0-12.771c3.193,0,5.894,2.456,5.894,6.385A6.1,6.1,0,0,1,477.372,446.113Zm-27.261-13.508v4.421h10.56a9.286,9.286,0,0,1-2.456,5.648,10.87,10.87,0,0,1-8.1,3.193,11.434,11.434,0,0,1-11.543-11.788,11.585,11.585,0,0,1,11.543-11.789,12.178,12.178,0,0,1,8.1,3.193l3.193-3.193a15.737,15.737,0,0,0-11.051-4.421,16.211,16.211,0,1,0,0,32.418c4.912,0,8.35-1.473,11.3-4.666a14.784,14.784,0,0,0,3.93-10.315,9.212,9.212,0,0,0-.246-2.7Zm111.5,3.439c-.983-2.456-3.438-6.631-8.841-6.631s-9.824,4.175-9.824,10.56a10.278,10.278,0,0,0,10.315,10.56,10.075,10.075,0,0,0,8.6-4.666l-3.439-2.456a5.986,5.986,0,0,1-5.157,2.947,5.33,5.33,0,0,1-5.158-3.193l14-5.894-.491-1.228Zm-14.244,3.438a5.966,5.966,0,0,1,5.4-6.14,4.345,4.345,0,0,1,3.93,2.21l-9.333,3.93Zm-11.543,10.069h4.666v-30.7h-4.666Zm-7.367-17.928a8.087,8.087,0,0,0-5.649-2.456c-5.157,0-10.069,4.666-10.069,10.56a10.169,10.169,0,0,0,10.069,10.315,7.052,7.052,0,0,0,5.4-2.456h.246v1.474c0,3.929-2.21,6.14-5.649,6.14a5.457,5.457,0,0,1-5.157-3.684l-3.929,1.719a10.132,10.132,0,0,0,9.333,6.14c5.4,0,9.823-3.192,9.823-10.806V429.9h-4.42v1.719Zm-5.4,14.49a6.406,6.406,0,0,1,0-12.771c3.193,0,5.649,2.7,5.649,6.385S526.244,446.113,523.052,446.113Zm59.924-27.261H571.924v30.7h4.666V438.008h6.385c5.157,0,10.069-3.684,10.069-9.578S588.133,418.853,582.975,418.853Zm.246,14.736H576.59V423.027h6.631a5.394,5.394,0,0,1,5.4,5.158c-.246,2.7-2.21,5.4-5.4,5.4Zm28.243-4.421c-3.438,0-6.876,1.473-8.1,4.666l4.175,1.719a4.338,4.338,0,0,1,4.175-2.21c2.456,0,4.666,1.473,4.912,3.929v.245a9.743,9.743,0,0,0-4.666-1.228c-4.421,0-8.842,2.456-8.842,6.876,0,4.175,3.684,6.877,7.613,6.877a6.911,6.911,0,0,0,5.894-2.947h.246v2.456h4.421V437.763c-.491-5.4-4.666-8.6-9.824-8.6Zm-.491,16.946c-1.473,0-3.684-.737-3.684-2.7,0-2.456,2.7-3.193,4.912-3.193a9.49,9.49,0,0,1,4.175.983A5.72,5.72,0,0,1,610.973,446.113ZM636.76,429.9,631.6,443.166h-.246l-5.4-13.262h-4.912l8.1,18.665-4.666,10.315h4.666l12.525-28.98H636.76ZM595.5,449.552h4.666v-30.7H595.5Z" transform="translate(-365.069 -393.327)"/><path class="e" d="M248.753,353.686a4.8,4.8,0,0,0-.982,3.438V411.4A4.858,4.858,0,0,0,249,414.838l.246.246L279.7,384.631v-.491Z" transform="translate(-247.771 -352.879)"/><path class="f" d="M343.508,429.682l-10.069-10.069v-.737l10.069-10.069.246.246,12.034,6.877c3.438,1.965,3.438,5.157,0,7.122Z" transform="translate(-301.758 -387.615)"/><path class="g" d="M291.44,447.013,281.126,436.7l-30.7,30.7c1.228,1.228,2.947,1.228,5.157.246l35.856-20.63" transform="translate(-249.445 -405.192)"/><path class="h" d="M291.44,372.695l-35.856-20.384c-2.21-1.228-3.929-.982-5.157.246l30.7,30.453,10.315-10.315Z" transform="translate(-249.445 -351.503)"/></g></svg>