<svg xmlns="http://www.w3.org/2000/svg" width="73.531" height="47.053" viewBox="0 0 73.531 47.053"><defs><style>.a{fill:#fff;stroke:#fff;}</style></defs><g transform="translate(0.5 -91.75)"><g transform="translate(0 92.25)"><path class="a" d="M62.729,112.514a8.281,8.281,0,1,0-9.5,0,14.347,14.347,0,0,0-4.894,2.87,18.566,18.566,0,0,0-6.716-3.66,10.491,10.491,0,1,0-10.85,0,18.72,18.72,0,0,0-6.645,3.617,14.464,14.464,0,0,0-4.836-2.813,8.281,8.281,0,1,0-9.5,0A14.535,14.535,0,0,0,0,126.262v.947a.062.062,0,0,0,.057.057H17.609a19.3,19.3,0,0,0-.158,2.425v.976a7.631,7.631,0,0,0,7.635,7.635H47.33a7.631,7.631,0,0,0,7.635-7.635v-.976a19.3,19.3,0,0,0-.158-2.425H72.474a.062.062,0,0,0,.057-.057v-.947A14.591,14.591,0,0,0,62.729,112.514Zm-10.735-6.788a5.984,5.984,0,1,1,6.1,5.984h-.23A5.976,5.976,0,0,1,51.995,105.726Zm-24.024-2.985a8.195,8.195,0,1,1,8.668,8.18h-.947A8.206,8.206,0,0,1,27.971,102.741ZM8.51,105.726a5.984,5.984,0,1,1,6.1,5.984h-.23A5.985,5.985,0,0,1,8.51,105.726Zm9.5,19.231H2.325a12.262,12.262,0,0,1,12.084-10.95h.172A12.134,12.134,0,0,1,22.4,116.92,18.843,18.843,0,0,0,18.011,124.957Zm34.63,5.712a5.347,5.347,0,0,1-5.339,5.339H25.057a5.347,5.347,0,0,1-5.339-5.339v-.976a16.485,16.485,0,0,1,15.973-16.461c.158.014.33.014.488.014s.33,0,.488-.014A16.485,16.485,0,0,1,52.64,129.692Zm1.708-5.712A18.793,18.793,0,0,0,50,116.977a12.193,12.193,0,0,1,7.893-2.971h.172a12.262,12.262,0,0,1,12.084,10.95Z" transform="translate(0 -92.25)"/></g></g></svg>