<svg xmlns="http://www.w3.org/2000/svg" width="232.002" height="56.205" viewBox="0 0 232.002 56.205"><defs><style>.a{fill:#fc2861;}.b{fill:#fff;}</style></defs><g transform="translate(-72 -74)"><path class="a" d="M836.19,63.508V23.815a3.721,3.721,0,0,1,3.614-3.738h27.55v4.377a3.433,3.433,0,0,1-3.614,3.4H843.962V39.573H861.33v4.273a3.494,3.494,0,0,1-3.543,3.543H844.033l-.071,16.118Z" transform="translate(-764.19 53.923)"/><path class="a" d="M880.959,28.514h7.25V59.058h-7.125l-.372-4.46c-1.735,3.594-6.506,5.329-9.914,5.392-9.046.06-15.736-5.515-15.736-16.234,0-10.534,7-16.049,15.922-15.986,4.09,0,7.993,1.921,9.728,4.956ZM862.62,43.756c0,5.823,4.027,9.293,9.046,9.293,11.9,0,11.9-18.525,0-18.525C866.646,34.524,862.62,37.93,862.62,43.756Z" transform="translate(-753.276 58.372)"/><path class="a" d="M902.248,34.815a2.609,2.609,0,0,1-3.327.535,11.037,11.037,0,0,0-5.81-1.4c-3.594,0-5.576,1.114-5.576,3.035,0,1.981,1.8,3.1,5.7,3.346,5.761.371,13.072,1.673,13.072,9.787,0,5.39-4.4,10.038-13.134,10.038-4.833,0-9.666-.807-14.128-5.453l2.124-3.079a2.619,2.619,0,0,1,3.572-.694,18.326,18.326,0,0,0,8.555,2.66c2.85.063,5.513-1.427,5.513-3.656,0-2.107-1.733-2.974-6.072-3.221-5.761-.436-12.638-2.541-12.638-9.48,0-7.065,7.311-9.541,12.886-9.541,4.772,0,8.366.928,11.9,4.026Z" transform="translate(-739.405 58.327)"/><path class="a" d="M910.989,23.385v7.732l8.949-.006v3.356a3.193,3.193,0,0,1-3.149,3.2h-5.862V50.814c0,2.914,1.61,4.336,3.965,4.336a8.651,8.651,0,0,0,3.654-.927l2.109,6.441a16.9,16.9,0,0,1-6.258,1.3c-6.629.248-10.967-3.531-10.967-11.153l.027-13.17h-2.732a3.015,3.015,0,0,1-3-3V31.111h5.7V23.445Z" transform="translate(-728.597 55.836)"/><g transform="translate(199.405 74)"><path class="b" d="M934.962,50.745H924.731V63.508h-7.822V23.745a3.623,3.623,0,0,1,3.616-3.613c4.943-.016,8.9-.055,14.437-.055C956.152,20.077,956.213,50.745,934.962,50.745Zm-10.234-7.5h10.234c10.471,0,10.408-15.364,0-15.364H924.728Z" transform="translate(-916.909 -20.077)"/><path class="b" d="M965.347,28.514H972.6V59.058h-7.125L965.1,54.6c-1.735,3.594-6.5,5.329-9.914,5.392-9.044.06-15.737-5.515-15.737-16.234,0-10.534,7-16.049,15.923-15.986,4.089,0,7.993,1.921,9.728,4.956ZM947.008,43.756c0,5.823,4.028,9.293,9.046,9.293,11.9,0,11.9-18.525,0-18.525C951.036,34.524,947.008,37.93,947.008,43.756Z" transform="translate(-903.872 -15.628)"/><path class="b" d="M975.709,42.506h0l-4.943-14.259h-8.781l9.852,24.083Z" transform="translate(-890.838 -15.352)"/><path class="b" d="M993.051,28.247l-18.64,43.309h-8.3l3.589-8.375.119-.287,5.91-13.519,3.374-7.752,5.575-13.376Z" transform="translate(-888.453 -15.351)"/></g></g></svg>