<svg xmlns="http://www.w3.org/2000/svg" xmlns:xlink="http://www.w3.org/1999/xlink" width="813.026" height="538.491" viewBox="0 0 813.026 538.491"><defs><style>.a,.ae{fill:none;}.b{fill:#eff5f8;}.c{fill:#a2dff2;}.d{fill:#96cfe0;}.e{fill:#f37168;}.f{fill:#f09959;}.g{fill:#e38540;}.h{fill:#232b57;}.i{fill:#a86b48;}.j{fill:#2e5b9a;}.k{fill:#3e6bab;}.l{fill:#f0ceb4;}.m{fill:#f7a96f;}.n{fill:#054a87;}.o{fill:#6695d6;}.p{fill:#303c60;}.q{fill:#fff;}.r{fill:#c52b60;}.s{fill:#fc2861;}.t,.w{fill:#2b335e;}.t{opacity:0.264;}.u,.x{fill:#9ec8ff;}.v{fill:#feb9b0;}.w{opacity:0.136;}.x,.y{opacity:0.5;}.z{fill:#f39892;}.aa{fill:#9cd499;}.ab{clip-path:url(#a);}.ac{fill:#1dbf73;}.ad{fill:#e7f3fe;}.ae{stroke:#2b335e;}</style><clipPath id="a"><path class="a" d="M411.107,868a40.354,40.354,0,1,0,40.351,40.352A40.355,40.355,0,0,0,411.107,868Zm0,61.728a21.383,21.383,0,1,1,0,.011Z" transform="translate(-370.75 -868)"/></clipPath></defs><g transform="translate(-262.934 -119)"><path class="b" d="M1689.228,344.795c33.107-34.421-129.2-154.2-263.229-165.122-123.389-10.054-286.426,38.616-120.909,110.579C1462.8,358.815,1671.928,362.78,1689.228,344.795Z" transform="translate(-747.12 -59.359)"/><path class="b" d="M282.3,666.876c77.3-110.252,239.625,6.2,378.52,34.487s364.813-16.656,364.248,107.419c-.6,132.274-50.7,206.689-325.5,242.233s-400.616-74-436.545-190.613C235.048,769.629,261.641,696.342,282.3,666.876Z" transform="translate(12 -400.333)"/><path class="c" d="M2498.581,1347.71c-11.345,23.03-25.569,85.961-29.447,89.409s-26.3,16.81-30.162,23.277-2.157,4.309-.432,4.741,99.138.861,99.138.861-11.2-66.811-12.5-67.242S2498.581,1347.71,2498.581,1347.71Z" transform="translate(-1674.272 -882.516)"/><path class="d" d="M2637.15,1465.666c17.892.126,36.77.229,47.164.274l-14.231-85.1c-7.588-14.713-16.8-33.15-16.8-33.15-1.428,2.9-2.9,6.441-4.4,10.413-1.476,63.915,7.73,81.832.816,93.227C2644.3,1460.214,2639.373,1464.19,2637.15,1465.666Z" transform="translate(-1828.971 -882.501)"/><path class="c" d="M2767,1226.06c16.178,14.935,52.193,29.1,52.193,29.1s5.484,50.557,1.739,79.184-1.661,34.435-1.661,34.435l-77.769.66s-6.458-14.491-24.7-57.5c-11.615-27.381-9.542-58.08-9.542-58.08l45.222-20.336Z" transform="translate(-1882.947 -788.663)"/><path class="d" d="M2842.7,1471.871h74.262s-2.072-5.808,1.661-34.435c3.073-23.572-.094-62.012-1.307-74.851l-6.752-2.9c-16.955,4.885-26.734,30.175-29.6,54.89-1.922,16.536-29.319,32.814-47.24,41.776C2839.6,1467.58,2842.7,1471.871,2842.7,1471.871Z" transform="translate(-1980.625 -891.759)"/><path class="d" d="M2914.48,1278.778s.7,21.351,4.341,21.122,24.8-27.07,24.8-27.07l-3.6-1.721Z" transform="translate(-2042.932 -823.419)"/><path class="d" d="M2849.149,1295.161s-4.6,19.651-6.882,19.194-5.367-20.425-5.367-20.425Z" transform="translate(-1983.079 -841.025)"/><path class="e" d="M2856.81,1288.61l6.332.685,2.436,7.54s-5.569,6.517-5.683,9.14,1.227,12.451,1.3,21.362-3.2,44.386-1.716,66.116l1.488,21.73-12.725.5s-.686-23.905,0-49.5,7.97-60.207,7.97-60.207l-2.875-8.8Z" transform="translate(-1991.593 -836.92)"/><path class="f" d="M2877.36,1063.48l11.352,41.5a3.757,3.757,0,0,1-.717,3.361c-2.662,3.279-6.455,10.026-14.1,12.19a18.932,18.932,0,0,1-4.8.539,3.24,3.24,0,0,1-3.2-2.623l-7.6-39.359Z" transform="translate(-1999.581 -663.232)"/><path class="g" d="M2875.176,1078.66l-4.149,1.7L2858.27,1090.8l4.894,24.956,1.954,9.947C2876.73,1118.453,2880.989,1106.64,2875.176,1078.66Z" transform="translate(-1999.565 -674.943)"/><path class="f" d="M2801.689,1041.278c0,13.881-8.358,24.815-18.689,24.422s-16.669-8.205-18.723-25.841c-1.6-13.836,2.385-29.933,12.716-29.542S2801.68,1027.4,2801.689,1041.278Z" transform="translate(-1926.787 -622.211)"/><path class="c" d="M2936.9,1352.229c15.026,3.393,17.823,33.911,22.7,66.1.564,3.7,3.45,35.058,3.45,35.058a9.6,9.6,0,0,1-5.461,8.621c-4.91,2.456-6.9,4.312-35.346,4.6-27.324.276-62.551-.861-62.551-.861s-.313-10.166,2.49-15.136c4.214-7.47,47.416-18.2,51.439-18.773.574-8.048-3.969-37.161,2.3-56.9,4.312-13.58,8.946-20.69,14.75-22.55A11.619,11.619,0,0,1,2936.9,1352.229Z" transform="translate(-2000.657 -885.735)"/><path class="d" d="M2927.34,1490.554c13.47.2,31.955.4,47.1.242,28.45-.286,30.436-2.141,35.346-4.6,5.747-2.875,6.035-7.769,6.035-7.769s-2.9-33.361-3.448-37.069c-3.16-21.554-6.576-46.216-14.525-58.121a162.24,162.24,0,0,1,8.809,48.272,48.135,48.135,0,0,1-1.467,13.3c-1.293,4.239-4.6,6.9-9.771,5.459-10.346-2.872-23.277,3.162-23.277,3.162s9.771-3.448,18.965-.288,28.162,24.139,7.472,31.9C2992.25,1487.424,2954.326,1489.361,2927.34,1490.554Z" transform="translate(-2052.853 -909.927)"/><path class="d" d="M2868.022,1766.144s3.832-6.514,11.685-6.514,7.282,12.835,6.131,17.051-5.747,4.405-5.747,4.405l-15.821-.4Z" transform="translate(-2004.194 -1200.313)"/><path class="h" d="M2200,1832.026h132a6.626,6.626,0,0,0-6.626-6.626H2200Z" transform="translate(-1491.709 -1251.055)"/><path class="f" d="M2722.675,1755.635c-15.913-7.312-20.41-5.459-24.027-6.855-8.934-3.455-11.425-1.36-18.723,14.361-1.456,3.133,2,3.631,5.434,3.926s8.205-6.03,9.6-6.679,5.061-.722,5.061-.722-1.143-.1-3.158,3.2-4.225,4.447-1.551,4.675,3.427-4.131,8.311-2.753,3.884,6.026,16.328,5.623c11.806-.381,20.629.8,21.063-6.661.411-7.083,1.494-10.545-5.1-12.357C2730.849,1749.989,2722.675,1755.635,2722.675,1755.635Z" transform="translate(-1861.709 -1190.842)"/><path class="i" d="M2868.956,1770.2c11.08-.3,6.693,13.1,5.45,14.142s6.078.914,6.078.914a13.274,13.274,0,0,0,1.552-11.736,10.741,10.741,0,0,0-8.029-7.312l-5.1,2.255Z" transform="translate(-2007.774 -1205.39)"/><path class="j" d="M2875.424,1762.486c.089,1.7-2.621,3.231-6.05,3.407s-6.282-1.058-6.371-2.763,2.621-3.231,6.051-3.407S2875.34,1760.781,2875.424,1762.486Z" transform="translate(-2003.215 -1200.372)"/><path class="k" d="M2875.6,1760.328c.08,1.522-2.34,2.886-5.4,3.046s-5.614-.948-5.692-2.47,2.34-2.886,5.4-3.046S2875.522,1758.806,2875.6,1760.328Z" transform="translate(-2004.374 -1198.934)"/><path class="l" d="M2877.417,1760.751c.057,1.1-1.684,2.077-3.885,2.191s-4.04-.686-4.1-1.775,1.686-2.08,3.885-2.194S2877.36,1759.656,2877.417,1760.751Z" transform="translate(-2008.178 -1199.798)"/><path class="f" d="M2457.862,1778.825c8.183-4.545,18.182-3.03,21.817,1.515s4.241,7.575-3.939,7.575-24.543.605-27.269.3S2457.862,1778.825,2457.862,1778.825Z" transform="translate(-1683.096 -1213.005)"/><path class="f" d="M2537.46,1779.506c8.786-2.121,14.788,2.993,22.119,7.878,6.361,4.241,7.641,8.365.605,4.847-10.3-5.15-16.363-5.756-16.363-5.756Z" transform="translate(-1752.06 -1215.267)"/><path class="m" d="M2492.609,1778.538c-4.545-1.828,2.728-16.968,5.153-16.968s11.514,7.271,11.514,7.271-2.139,1.207-9.394-1.211c-1.828-.605-3.334,9.7-5.454,10.908S2492.609,1778.538,2492.609,1778.538Z" transform="translate(-1716.329 -1201.81)"/><path class="c" d="M2844.536,1248.95l2.13,11.356-6.224,13.472-6.761-14.281Z" transform="translate(-1980.594 -806.322)"/><path class="j" d="M2733.076,1006.052c2.614,16.482,8.717,18.225,13.038,19.729s20.485-5.285,22.206-9.8c4.408-11.548-2.7-20.243-1.261-20.359s3.48,3.688,8.139,8.251c.434.425,3.427,3.222,3.354,2.12-1-15.005,5.806-20.981,1.241-35.5-3.368-10.707-10.161-8.553-10.161-8.553s-6.169-8.338-19.948-4.716c-9.227,2.424-16.893,7.611-26.078,11.882s15.906,22.233,26.94,11.934,8.107,8.436,10.333,9.435.983,0,3.551,8.841-7.769,16.822-10.913,18.2c-10.02,4.4-12.09,3-15.113-.526C2735.779,1013.917,2733.076,1006.052,2733.076,1006.052Z" transform="translate(-1894.141 -580.55)"/><path class="f" d="M2925.715,1087.538c-.438,4.357-2.881,7.57-5.459,7.179s-3.267-3.74-3.871-8.6c-.544-4.38,2.881-7.57,5.457-7.177S2926.152,1083.183,2925.715,1087.538Z" transform="translate(-2044.357 -675.134)"/><path class="c" d="M2928.65,1230.1l11.288,10.511s-21.707,20.451-23.6,20.222-5.07-17.366-5.07-17.366Z" transform="translate(-2040.455 -791.78)"/><path class="c" d="M2877.979,1287.495c-2.082.978-1.412,3.951-2.285,4.984s-1.41,1.312-2.121-.128-.6-4.691-1.143-4.856-4.741,12.935-4.741,12.935,3.078-8.377,3.779-7.463.144,1.764,2.692,1.917a18.89,18.89,0,0,0,5.79-.914Z" transform="translate(-2006.833 -836.058)"/><path class="h" d="M2097.322,1621.344h70.505l-29.933-65.869a5.386,5.386,0,0,0-4.9-3.156h-63.774a2.1,2.1,0,0,0-1.912,2.971Z" transform="translate(-1389.19 -1040.373)"/><path class="n" d="M2039.185,1552.32h65.069a5.384,5.384,0,0,1,4.9,3.156l29.933,65.869h-71.794l-30.022-66.052a2.1,2.1,0,0,1,1.912-2.973Z" transform="translate(-1366.019 -1040.373)"/><path class="o" d="M2188.471,1680.728c2.468,5.114,6.474,8.292,8.944,7.1s2.477-6.306,0-11.425-6.473-8.292-8.946-7.1S2186,1675.612,2188.471,1680.728Z" transform="translate(-1481.384 -1130.432)"/><path class="p" d="M1070.694,1075.968c-1.1,0-2.175-.055-3.233-.107-.875-.046-1.78-.091-2.653-.1a.558.558,0,0,1,0-1.113c.9,0,1.828.057,2.7.1,6.626.336,13.465.686,20.135-12.142,2.9-5.569,6.046-16.393,5.4-28.578-.53-9.978-3.912-24.175-17.016-35.129a.557.557,0,0,1,.715-.854c13.411,11.212,16.872,25.726,17.414,35.926.658,12.407-2.564,23.458-5.525,29.15C1082.754,1074.437,1076.491,1075.968,1070.694,1075.968Z" transform="translate(-615.503 -612.656)"/><path class="p" d="M1078.884,1097.269c-.258,0-.516,0-.777-.018a.558.558,0,0,1,.055-1.113c.229,0,.48.018.72.018,6.908,0,13.287-4.892,17.594-13.536,7.083-14.213,7.769-37.528-4.908-52.746a.558.558,0,1,1,.855-.713c12.985,15.581,12.293,39.43,5.05,53.957C1092.968,1092.146,1086.228,1097.269,1078.884,1097.269Z" transform="translate(-625.774 -636.579)"/><path class="p" d="M909.623,990.059c19.989-15.515,38.765-7.289,45.489,13.71,6.281,19.616-1.769,61.765-31.59,54.421-30.847-7.6-33.42-17.044-33.187-30.77A48.713,48.713,0,0,1,909.623,990.059Z" transform="translate(-481.29 -600.386)"/><path class="q" d="M826.674,1289.45,798.1,1300.112s8,58.038,8.683,80.2-10.511,41.392-10.511,41.392h74.719s10.282-60.358,8.226-81.608-16.223-43.266-16.909-43.8-17.823-4.417-17.823-4.417Z" transform="translate(-408.728 -837.568)"/><path class="r" d="M1099.894,1602.11s2.879,26.963,4.067,28.334,45.06,22.85,45.06,22.85l-63.751,4.342Z" transform="translate(-631.692 -1078.786)"/><path class="r" d="M1085.27,1319.44c7.083.153,9.007,11.736,10.673,20.336S1085.27,1319.44,1085.27,1319.44Z" transform="translate(-631.692 -860.706)"/><path class="s" d="M856.367,1342c-3.884-13.938-24.755-52.751-24.755-52.751l-27.342,10.707s6.268,45.487,8.182,71.291l10.385,50.295h33.53S860.252,1355.939,856.367,1342Z" transform="translate(-414.9 -837.414)"/><path class="r" d="M863.4,1737.187l30.817-7.077-2.513,26.277Z" transform="translate(-460.519 -1177.538)"/><path class="t" d="M827.019,1445.934c-5.027-6.8-9.944-14.295-5.157-29.933s5.255-21.25,3.578-35.417-9.291-36.788-24.143-37.474c0,0-.489,4.954-1.28,12.862,2.411,18.682,6.3,50.592,6.763,65.741.685,22.164-10.511,41.392-10.511,41.392l60.78,1.337S832.046,1452.741,827.019,1445.934Z" transform="translate(-408.728 -878.967)"/><path class="s" d="M1061.019,1352.7c-2.057-21.25-16.223-43.266-16.909-43.8-.423-.329-7.129-1.938-12.19-3.119,1.488,3.512,17.185,40.922,16.532,56.332-.686,16.176.021,72.192.021,72.192h4.321S1063.076,1373.955,1061.019,1352.7Z" transform="translate(-590.532 -850.174)"/><rect class="j" width="726.89" height="7.216" rx="3.608" transform="translate(291.898 580.53)"/><rect class="u" width="85.294" height="35.148" rx="15.91" transform="translate(668.407 151.865)"/><path class="u" d="M2070.54,442.834v19.393l22.344-22.347S2070.995,442.834,2070.54,442.834Z" transform="translate(-1391.83 -261.123)"/><rect class="q" width="76.471" height="28.178" rx="13.49" transform="translate(672.819 155.35)"/><path class="u" d="M2105.265,357.71h-34.54a1.515,1.515,0,0,1,0-3.03h34.54a1.515,1.515,0,1,1,0,3.03Z" transform="translate(-1390.804 -195.391)"/><rect class="u" width="65.75" height="1.702" rx="0.851" transform="translate(678.406 166.409)"/><rect class="u" width="65.75" height="1.702" rx="0.851" transform="translate(678.406 169.706)"/><rect class="u" width="3.704" height="3.334" rx="1.667" transform="translate(727.172 178.983)"/><rect class="u" width="3.704" height="3.334" rx="1.667" transform="translate(733.906 178.983)"/><rect class="u" width="3.704" height="3.334" rx="1.667" transform="translate(740.64 178.983)"/><path class="h" d="M1150.678,1825.8h-132a8.471,8.471,0,0,1,8.47-8.47h123.528Z" transform="translate(-580.318 -1244.829)"/><path class="h" d="M1358.984,1621.344H1288.49l29.933-65.869a5.384,5.384,0,0,1,4.9-3.156H1387.1a2.1,2.1,0,0,1,1.915,2.971Z" transform="translate(-788.477 -1040.373)"/><path class="n" d="M1405.9,1552.32h-58.212a5.383,5.383,0,0,0-4.9,3.156l-29.933,65.869h64.928l30.025-66.052a2.1,2.1,0,0,0-1.906-2.973Z" transform="translate(-807.271 -1040.373)"/><path class="o" d="M1537.472,1673.388c-2.468,5.114-6.473,8.294-8.946,7.1s-2.475-6.306,0-11.425,6.473-8.295,8.946-7.1S1539.94,1668.274,1537.472,1673.388Z" transform="translate(-972.234 -1124.77)"/><path class="v" d="M937.778,1107.675s-5.989,30.58-12.609,35.938,15.234,31.2,22.8,24.575.526-21.111.526-21.111-4.1-2.513,2.838-18.6S939.6,1100.42,939.6,1100.42Z" transform="translate(-507.224 -691.731)"/><path class="w" d="M978.809,1100.44l-1.828,7.25s-.834,4.255-2.221,9.866c2.589,12.076,7.426,19.927,11.754,24.92.126-2.783,1.083-7.163,4.024-13.979C997.479,1112.418,978.809,1100.44,978.809,1100.44Z" transform="translate(-546.433 -691.746)"/><path class="v" d="M1027.9,1073.773c-4.024,11.1-13.861,20.012-20.108,17.955-10.2-3.359-17.631-11.333-15.876-28.964,2.057-20.764,18.051-23.145,27.42-20.492S1032.36,1061.489,1027.9,1073.773Z" transform="translate(-559.474 -646.19)"/><path class="r" d="M891.342,1289.25l-9.652,3.779,15.213,19.5-4.341,7.769a61.433,61.433,0,0,1,20.43,34.556,203.8,203.8,0,0,1,4.243,42.213s1.17-46.225-1.143-55.068C911.623,1324.864,891.342,1289.25,891.342,1289.25Z" transform="translate(-474.629 -837.414)"/><path class="r" d="M1031.92,1305.79s12.042,30.92,13.952,39.621,2.29,51.222,2.29,51.222,5.536-37.074,3.937-48.042-3.884-20.878-3.884-20.878l-7.312-5.4s-1.371-14.7-2.159-14.893S1031.92,1305.79,1031.92,1305.79Z" transform="translate(-590.532 -850.175)"/><path class="v" d="M968.971,1773.86c23.426-7.1,20.585-10.648,29.1-6.626s19.194,6.754,14.2,8.045-12.54-2.84-12.54-2.84,1.184,6.4-3.076,8.283-23.172,2.582-33.71-.365S968.971,1773.86,968.971,1773.86Z" transform="translate(-534.612 -1204.878)"/><path class="c" d="M977.316,1797.11h4.664l-2.331,13.253s-9.188-1.371-8.5-2.285S977.316,1797.11,977.316,1797.11Z" transform="translate(-543.617 -1229.229)"/><path class="s" d="M714.339,1336.11c-9.14,15.995-12.039,24.719-19.489,54.652s-10.445,43.554-2.219,47.486c6.809,3.256,56.368,18.12,62.38,16.29,2.742.156,6.951-14,6.951-14l-45.11-20.108s13.056-31.167,15.309-51.64-7.769-32.675-12.8-32.675Z" transform="translate(-324.969 -873.567)"/><path class="v" d="M973.39,1118.615c-2.207,6.928-1.259,8.342-4.314,8.989s-5.847-2.386-6.75-6.642.841-8.226,3.9-8.886S974.713,1114.464,973.39,1118.615Z" transform="translate(-536.657 -700.654)"/><path class="p" d="M992.83,1025.932c-11.955,21.25-35.707,18.129-50.142,10.817-11.765-5.959,33.571-28.539,33.571-28.539Z" transform="translate(-520.186 -620.591)"/><path class="p" d="M885.144,980.392c-4.431-13.367-22.589-10.207-30.818,7.577s4.362,29.677,11.992,25.32S885.144,980.392,885.144,980.392Z" transform="translate(-451.446 -592.773)"/><path class="x" d="M1413.069,451.962a105.985,105.985,0,0,0,3.185-16.26l-16.79-7.556q.126-2.385.13-4.8a89.876,89.876,0,0,0-.968-13.156l15.994-9.109a105.566,105.566,0,0,0-4.712-15.881l-18.376,1.11a88.945,88.945,0,0,0-9.1-15.52l9.933-15.492a107.285,107.285,0,0,0-11.567-11.882l-15.748,9.519a88.954,88.954,0,0,0-15.259-9.519l1.6-18.344a105.394,105.394,0,0,0-15.753-5.132l-9.524,15.766a89.36,89.36,0,0,0-15.485-1.346c-.82,0-1.636.011-2.452.034l-7.106-16.977a106.035,106.035,0,0,0-16.342,2.742l-1.113,18.371a88.321,88.321,0,0,0-16.5,7.175l-14.2-11.7a106.7,106.7,0,0,0-13.173,10.054l7.54,16.783a89.3,89.3,0,0,0-11.281,14l-18.017-3.8a106.038,106.038,0,0,0-7.008,15.012l14.491,11.354a88.493,88.493,0,0,0-3.448,17.645l-17.706,5.009c-.032,1.09-.055,2.182-.055,3.279a107.42,107.42,0,0,0,.823,13.268l18.1,3.328a88.3,88.3,0,0,0,5.119,17.247l-13.356,12.668a105.925,105.925,0,0,0,8.4,14.283l17.574-5.484a89.466,89.466,0,0,0,12.545,12.876l-5.941,17.425a106.375,106.375,0,0,0,14.057,8.774l13.024-13.013a88.327,88.327,0,0,0,17.105,5.575l2.838,18.184a107.016,107.016,0,0,0,16.066,1.209h.457l5.484-17.569a88.746,88.746,0,0,0,17.734-2.989l10.968,14.788a105.647,105.647,0,0,0,15.19-6.608l-3.322-18.1a89.249,89.249,0,0,0,14.29-10.911l16.58,8a107.091,107.091,0,0,0,10.4-12.9L1387.061,468.9a88.438,88.438,0,0,0,7.609-16.3ZM1310.62,467.1a43.762,43.762,0,1,1,43.762-43.757A43.763,43.763,0,0,1,1310.62,467.1Z" transform="translate(-723.501 -144.645)"/><path class="q" d="M1372.481,946.652a1.143,1.143,0,0,1-.914-.457,79.486,79.486,0,0,1-6.656-10.611,1.143,1.143,0,1,1,2.027-1.058,77.134,77.134,0,0,0,6.464,10.305,1.143,1.143,0,0,1-.914,1.828Z" transform="translate(-847.335 -620.269)"/><path class="q" d="M1498.571,1065.122a1.111,1.111,0,0,1-.151,0,79.062,79.062,0,0,1-37.768-15.638,1.142,1.142,0,0,1,1.392-1.812,76.763,76.763,0,0,0,36.674,15.184,1.145,1.145,0,1,1-.146,2.285Z" transform="translate(-920.955 -707.853)"/><rect class="u" width="207.73" height="153.43" transform="translate(588.595 203.86)"/><rect class="q" width="199.504" height="143.147" transform="translate(590.88 206.373)"/><g class="y" transform="translate(593.585 207.399)"><path class="u" d="M1887.653,699.112h-189.2c-.252,0-.457-.286-.457-.639v-132.6c0-.353.2-.639.457-.639h189.2c.252,0,.457.286.457.639v132.6C1888.11,698.825,1887.906,699.112,1887.653,699.112Zm-188.739-1.279H1887.2V566.509H1698.914Z" transform="translate(-1698 -565.23)"/><path class="u" d="M1887.653,911.834h-189.2a.457.457,0,0,1,0-.914h189.2a.457.457,0,1,1,0,.914Z" transform="translate(-1698 -793.751)"/><path class="u" d="M1887.653,842.694h-189.2a.457.457,0,0,1,0-.914h189.2a.457.457,0,1,1,0,.914Z" transform="translate(-1698 -753.136)"/><path class="u" d="M1887.653,773.554h-189.2a.457.457,0,0,1,0-.914h189.2a.457.457,0,1,1,0,.914Z" transform="translate(-1698 -706.158)"/><path class="u" d="M1887.653,704.414h-189.2a.457.457,0,0,1,0-.914h189.2a.457.457,0,1,1,0,.914Z" transform="translate(-1698 -659.18)"/><path class="u" d="M1887.653,635.284h-189.2a.457.457,0,0,1,0-.914h189.2a.457.457,0,1,1,0,.914Z" transform="translate(-1698 -618.572)"/><path class="u" d="M2388.457,699.112c-.252,0-.457-.286-.457-.639v-132.6c0-.353.2-.639.457-.639s.457.286.457.639v132.6C2388.914,698.825,2388.709,699.112,2388.457,699.112Z" transform="translate(-2230.337 -565.23)"/><path class="u" d="M2250.457,699.112c-.252,0-.457-.286-.457-.639v-132.6c0-.353.2-.639.457-.639s.457.286.457.639v132.6C2250.914,698.825,2250.709,699.112,2250.457,699.112Z" transform="translate(-2123.869 -565.23)"/><path class="u" d="M2112.457,699.112c-.253,0-.457-.286-.457-.639v-132.6c0-.353.2-.639.457-.639s.457.286.457.639v132.6C2112.914,698.825,2112.709,699.112,2112.457,699.112Z" transform="translate(-2017.402 -565.23)"/><path class="u" d="M1974.457,699.112c-.252,0-.457-.286-.457-.639v-132.6c0-.353.2-.639.457-.639s.457.286.457.639v132.6C1974.914,698.825,1974.709,699.112,1974.457,699.112Z" transform="translate(-1910.935 -565.23)"/><path class="u" d="M1836.457,699.112c-.252,0-.457-.286-.457-.639v-132.6c0-.353.2-.639.457-.639s.457.286.457.639v132.6C1836.914,698.825,1836.709,699.112,1836.457,699.112Z" transform="translate(-1804.467 -565.23)"/></g><path class="z" d="M1696.909,698.02c-.424,0-.793-.406-.891-.982a1.48,1.48,0,0,1,.482-1.434l31.409-21.952,16.2-21.748,15.044-43.872a1.27,1.27,0,0,1,.229-.4l17.1-21.257a.745.745,0,0,1,.793-.3,1.041,1.041,0,0,1,.644.712l14.418,43.254,17.137,42.463,12.88-20.677a.848.848,0,0,1,.658-.44.78.78,0,0,1,.686.376l14.679,20.575,15.341-64.16a1.37,1.37,0,0,1,.229-.5l31.533-44.083a.746.746,0,0,1,1.293,0,1.654,1.654,0,0,1,0,1.8l-31.4,43.869-15.743,65.84a1.109,1.109,0,0,1-.658.837.757.757,0,0,1-.856-.343l-15.031-21.069-13.106,21.008a.8.8,0,0,1-.782.43.958.958,0,0,1-.7-.643l-17.784-44.083c-.011-.026-.021-.057-.032-.086l-13.913-41.743-16.047,19.96-15.035,43.85a1.348,1.348,0,0,1-.192.367l-16.418,22.041a.984.984,0,0,1-.228.223L1697.309,697.9A.694.694,0,0,1,1696.909,698.02Z" transform="translate(-1102.867 -356.282)"/><path class="u" d="M1696.919,698.132a.966.966,0,0,1-.841-.78,1.666,1.666,0,0,1,.187-1.385l46.239-66.13a.744.744,0,0,1,1.28-.038l16.182,21.2,30.909-43.21a.744.744,0,0,1,1.28-.019l15.746,21.164,14.487-21.119a.748.748,0,0,1,1.309-.019l30.635,42.818,30.968-86.586c.238-.6.77-.824,1.207-.52a1.532,1.532,0,0,1,.427,1.658L1855.4,653.334a1,1,0,0,1-.674.682.772.772,0,0,1-.791-.363l-30.875-43.143-14.473,21.1a.822.822,0,0,1-.642.393.8.8,0,0,1-.653-.358l-15.766-21.173-30.9,43.2a.742.742,0,0,1-1.27.029l-16.178-21.189-45.613,65.234A.816.816,0,0,1,1696.919,698.132Z" transform="translate(-1102.876 -356.394)"/><path class="u" d="M1461.825,349.68h66.849a2.255,2.255,0,0,1,2.255,2.255v87.083a14.921,14.921,0,0,1-14.921,14.921H1459.57v-102A2.255,2.255,0,0,1,1461.825,349.68Z" transform="translate(-920.465 -191.534)"/><path class="q" d="M1465.233,357.4h63.861a2.141,2.141,0,0,1,2.141,2.141v83.292A14.167,14.167,0,0,1,1517.068,457H1463.09V359.541a2.141,2.141,0,0,1,2.143-2.141Z" transform="translate(-923.181 -197.49)"/><path class="u" d="M1392.892,689.137v-1.8a2.412,2.412,0,0,0-2.216-2.566h-68.339a2.406,2.406,0,0,0-2.216,2.566v1.8c0,12.734,8.911,23.058,19.918,23.058h69.824C1398.862,712.194,1392.741,703.032,1392.892,689.137Z" transform="translate(-812.879 -450.056)"/><path class="q" d="M1401.163,699.78v-1.453a2.075,2.075,0,0,0-2.075-2.077h-63.993a2.075,2.075,0,0,0-2.075,2.077v1.453a18.652,18.652,0,0,0,18.652,18.652h68.143C1409.514,718.433,1401.163,713.447,1401.163,699.78Z" transform="translate(-822.832 -458.913)"/><path class="u" d="M1556.234,431.121h-48.67a2.8,2.8,0,0,1-2.794-2.792V401.884a2.8,2.8,0,0,1,2.794-2.794h48.67a2.8,2.8,0,0,1,2.792,2.794v26.444a2.794,2.794,0,0,1-2.792,2.792ZM1507.564,400a1.883,1.883,0,0,0-1.881,1.881v26.444a1.881,1.881,0,0,0,1.881,1.878h48.67a1.881,1.881,0,0,0,1.878-1.878V401.884a1.881,1.881,0,0,0-1.878-1.88Z" transform="translate(-955.337 -229.653)"/><path class="u" d="M1473.9,586.115h-53.5a1.382,1.382,0,0,1,0-2.765h53.5a1.382,1.382,0,0,1,0,2.765Z" transform="translate(-889.173 -371.81)"/><path class="u" d="M1473.9,608.185h-53.5a1.382,1.382,0,0,1,0-2.765h53.5a1.382,1.382,0,1,1,0,2.765Z" transform="translate(-889.173 -388.838)"/><path class="u" d="M1473.9,629.485h-53.5a1.382,1.382,0,0,1,0-2.765h53.5a1.382,1.382,0,0,1,0,2.765Z" transform="translate(-889.173 -405.271)"/><rect class="u" width="3.156" height="2.84" rx="1.42" transform="translate(585.142 173.645)"/><rect class="u" width="3.156" height="2.84" rx="1.42" transform="translate(590.88 173.645)"/><rect class="u" width="3.156" height="2.84" rx="1.42" transform="translate(596.618 173.645)"/><rect class="u" width="7.205" height="11.893" transform="translate(554.757 185.452)"/><rect class="u" width="7.205" height="10.904" transform="translate(574.618 186.444)"/><rect class="u" width="7.205" height="15.771" transform="translate(586.104 181.577)"/><rect class="u" width="7.205" height="7.205" transform="translate(564.493 190.143)"/><path class="u" d="M3326.654,779.756H3352.3a25.65,25.65,0,1,1-25.656-25.647Z" transform="translate(-2341.133 -503.552)"/><path class="s" d="M3457.716,764.037a25.647,25.647,0,0,0-25.647-25.647v25.647Z" transform="translate(-2442.253 -491.424)"/><path class="z" d="M3319.83,850.63a25.647,25.647,0,0,0,25.647,25.647A25.77,25.77,0,0,1,3319.83,850.63Z" transform="translate(-2355.66 -578.018)"/><path class="z" d="M3345.477,738.39a25.647,25.647,0,0,0-25.647,25.647A25.77,25.77,0,0,1,3345.477,738.39Z" transform="translate(-2355.66 -491.424)"/><path class="z" d="M3432.07,876.276a25.647,25.647,0,0,0,25.647-25.647A25.77,25.77,0,0,1,3432.07,876.276Z" transform="translate(-2442.253 -578.018)"/><circle class="z" cx="2.274" cy="2.274" r="2.274" transform="translate(671.468 228.681) rotate(-13.28)"/><circle class="u" cx="2.274" cy="2.274" r="2.274" transform="translate(637.649 270.507) rotate(-13.28)"/><circle class="u" cx="2.274" cy="2.274" r="2.274" transform="translate(686.365 248.668)"/><circle class="u" cx="2.274" cy="2.274" r="2.274" transform="translate(717.897 248.668)"/><circle class="z" cx="2.274" cy="2.274" r="2.274" transform="translate(749.432 248.668)"/><circle class="aa" cx="12.27" cy="12.27" r="12.27" transform="translate(504.897 262.136) rotate(-45)"/><path class="q" d="M1366.891,795.4h-.025a.686.686,0,0,1-.489-.229l-3.334-3.779a.688.688,0,0,1,1.028-.914l2.856,3.245,6.6-6.462a.686.686,0,0,1,.96.98l-7.12,6.967A.686.686,0,0,1,1366.891,795.4Z" transform="translate(-845.861 -528.976)"/><rect class="u" width="8.169" height="44.559" transform="translate(348.871 205.307)"/><rect class="u" width="8.169" height="31.597" transform="translate(383.489 218.27)"/><rect class="u" width="8.169" height="44.559" transform="translate(400.795 205.307)"/><rect class="u" width="8.169" height="15.798" transform="translate(418.104 234.068)"/><rect class="u" width="8.169" height="75.181" transform="translate(366.18 174.683)"/><rect class="u" width="8.169" height="31.597" transform="translate(435.47 218.27)"/><rect class="u" width="8.169" height="23.634" transform="translate(851.445 200.581)"/><rect class="u" width="8.169" height="15.945" transform="translate(956.138 208.267)"/><rect class="u" width="8.169" height="63.593" transform="translate(886.062 160.619)"/><rect class="u" width="8.169" height="24.856" transform="translate(903.369 199.358)"/><rect class="u" width="8.169" height="31.891" transform="translate(920.678 192.323)"/><rect class="u" width="8.169" height="39.238" transform="translate(868.754 184.974)"/><rect class="u" width="8.169" height="56.624" transform="translate(938.043 167.588)"/><g class="ab" transform="translate(299.312 283.581)"><path class="c" d="M532.82,1032.575l-36.481-22.3-6.6,42.241A42.8,42.8,0,0,0,532.82,1032.575Z" transform="translate(-455.982 -969.908)"/><path class="ac" d="M549.55,981.516l.221-.374a42.751,42.751,0,0,0,.948-42.082c-12.909,6.761-5.223,2.653-37.679,20.2C549.57,981.6,543.9,978.157,549.55,981.516Z" transform="translate(-472.672 -918.9)"/><path class="u" d="M371.72,887.682,411.8,902.455l37.619-20.336C431.828,849.587,384.475,853.487,371.72,887.682Z" transform="translate(-371.445 -862.092)"/><path class="s" d="M398.429,1015.213l6.588-42.241L364.935,958.2C355.4,983.762,372.322,1011.1,398.429,1015.213Z" transform="translate(-364.659 -932.61)"/><path class="ad" d="M439.877,920.672a44.349,44.349,0,0,0,1.106-41.571h.023l-.675-1.248-.043-.074-.55-1.027h-.023a43.659,43.659,0,0,0-17.621-17.093,44.511,44.511,0,0,0-61.515,22.605h-.023l-.514,1.319-.5,1.333h.026a43.619,43.619,0,0,0,3.736,36.03,44.207,44.207,0,0,0,29.945,21.278v.026l1.4.221,1.4.221v-.026A44.2,44.2,0,0,0,438.428,923l.028.017.284-.454.454-.743.2-.335.028-.048.023-.04.451-.735ZM435.6,882.1l2.948-1.541a41.5,41.5,0,0,1-1.067,38.584l-.284-.159c-1.489-.882-2.136-1.265-5.107-3.078L404.3,898.92l23.065-12.483C430.771,884.63,432.161,883.9,435.6,882.1Zm-72.367,1.135a41.361,41.361,0,0,1,73.91-5.3l-11.11,6.015c-2.292,1.234-5.5,2.97-10.866,5.873l-13.306,7.2-.343.187-1.118-.684-.06.389-17.564-6.471Zm2.536,36.286a40.788,40.788,0,0,1-3.526-33.627l26.407,9.754,11.246,4.142-6.2,39.662a41.381,41.381,0,0,1-27.931-19.922Zm30.734,20.35,6.046-38.714,15.737,9.623c6.344,3.881,9.972,6.1,12.259,7.5l5.43,3.322A41.163,41.163,0,0,1,396.5,939.884Z" transform="translate(-361.107 -858.487)"/></g><path class="u" d="M353.325,1299.5a10.253,10.253,0,1,1-10.253-10.253A10.253,10.253,0,0,1,353.325,1299.5Z" transform="translate(-51.175 -916.414)"/><path class="q" d="M375.977,1318.743a5.143,5.143,0,1,1-5.144-5.143A5.144,5.144,0,0,1,375.977,1318.743Z" transform="translate(-76.534 -935.2)"/><rect class="u" width="38.993" height="38.993" rx="19.497" transform="translate(962.068 343.956)"/><path class="q" d="M3390.9,1225.258h-25.453a7.92,7.92,0,0,1-7.913-7.91v-25.455a7.921,7.921,0,0,1,7.913-7.913H3390.9a7.922,7.922,0,0,1,7.913,7.913v25.453a7.919,7.919,0,0,1-7.913,7.913Zm-25.453-38.988a5.635,5.635,0,0,0-5.628,5.628v25.448a5.633,5.633,0,0,0,5.628,5.626H3390.9a5.632,5.632,0,0,0,5.628-5.626V1191.89a5.635,5.635,0,0,0-5.628-5.628Z" transform="translate(-2384.746 -835.198)"/><path class="u" d="M1465.707,1277.239l-6.5-7.493a2.742,2.742,0,0,1,.276-3.866l7.49-6.5a2.742,2.742,0,0,1,3.869.274l6.5,7.492a2.742,2.742,0,0,1-.274,3.869l-7.493,6.5A2.742,2.742,0,0,1,1465.707,1277.239Z" transform="translate(-920.672 -864.854)"/><path class="u" d="M1621.9,1347.847a5.738,5.738,0,1,1-5.738-5.738A5.738,5.738,0,0,1,1621.9,1347.847Z" transform="translate(-1037.854 -929.195)"/><path class="u" d="M3770.495,1270.162a5.712,5.712,0,1,1-5.712-5.713A5.712,5.712,0,0,1,3770.495,1270.162Z" transform="translate(-2694.535 -897.281)"/><path class="u" d="M3123.425,760.1a5.712,5.712,0,1,1-5.712-5.712A5.712,5.712,0,0,1,3123.425,760.1Z" transform="translate(-2195.319 -503.768)"/><circle class="u" cx="4.456" cy="4.456" r="4.456" transform="translate(1027.536 330.842) rotate(-80.78)"/><rect class="u" width="98.46" height="44.495" rx="8.17" transform="translate(781.278 227.619)"/><rect class="q" width="93.076" height="30.717" rx="6.6" transform="translate(783.97 239.309)"/><rect class="q" width="3.857" height="3.471" rx="1.735" transform="translate(785.336 230.893)"/><rect class="q" width="3.857" height="3.471" rx="1.735" transform="translate(792.351 230.893)"/><rect class="q" width="3.857" height="3.471" rx="1.735" transform="translate(799.364 230.893)"/><path class="u" d="M2750.961,724.4h-49.241a1.474,1.474,0,0,1,0-2.945h49.241a1.474,1.474,0,0,1,0,2.945Z" transform="translate(-1877.694 -478.355)"/><path class="u" d="M2588.51,823.841h-49.232a1.474,1.474,0,1,1,0-2.945h49.232a1.474,1.474,0,1,1,0,2.945Z" transform="translate(-1752.281 -555.077)"/><rect class="u" width="6.101" height="2.945" rx="1.473" transform="translate(839.7 265.819)"/><path class="u" d="M2809.222,820.9h5.1a.5.5,0,0,1,.5.5v1.938a.5.5,0,0,1-.5.5h-5.094a.5.5,0,0,1-.5-.5V821.4a.5.5,0,0,1,.5-.5Z" transform="translate(-1961.337 -555.081)"/><path class="u" d="M2645.187,755.675h-81.528a1,1,0,1,1,0-2h81.528a1,1,0,0,1,0,2Z" transform="translate(-1771.463 -503.216)"/><path class="u" d="M2645.187,774.545h-81.528a1,1,0,1,1,0-2h81.528a1,1,0,0,1,0,2Z" transform="translate(-1771.463 -517.775)"/><circle class="u" cx="11.308" cy="11.308" r="11.308" transform="translate(280.692 234.889) rotate(-76.72)"/><path class="u" d="M799.368,784.318H718.1a1.51,1.51,0,0,1,0-3.018h81.263a1.51,1.51,0,0,1,0,3.018Z" transform="translate(-344.298 -511.529)"/><path class="u" d="M799.368,817.308H718.1a1.51,1.51,0,0,1,0-3.018h81.263a1.51,1.51,0,0,1,0,3.018Z" transform="translate(-344.298 -536.981)"/><path class="x" d="M2033.628,1090.422a57.145,57.145,0,0,0,.356-6.348c0-1.131-.037-2.255-.1-3.373l-10.49-3.393a46.049,46.049,0,0,0-3.713-12.567l6.955-8.569a56.673,56.673,0,0,0-5.509-8l-10.49,3.427a46.632,46.632,0,0,0-10.388-7.982l.6-11.023a56.264,56.264,0,0,0-9.158-3.245l-6.478,8.939a46.688,46.688,0,0,0-13.1-.343l-6-9.27a56.04,56.04,0,0,0-9.318,2.742l.007,11.041a46.51,46.51,0,0,0-10.792,7.424l-10.282-3.971a56.609,56.609,0,0,0-5.925,7.7l6.494,8.911a46.016,46.016,0,0,0-4.378,12.352l-10.652,2.833a57.028,57.028,0,0,0-.359,6.348c0,1.143.039,2.258.105,3.373l10.488,3.393a46.206,46.206,0,0,0,3.713,12.567l-6.953,8.557a56.517,56.517,0,0,0,5.509,8l10.49-3.427a46.635,46.635,0,0,0,10.385,7.984l-.6,11.02a55.979,55.979,0,0,0,9.158,3.247l6.478-8.939a46.723,46.723,0,0,0,7.769.649,47.213,47.213,0,0,0,5.333-.306l6,9.27a56.185,56.185,0,0,0,9.316-2.742l-.014-11.039a46.55,46.55,0,0,0,10.794-7.424l10.282,3.971a56.852,56.852,0,0,0,5.927-7.707l-6.5-8.911a46.125,46.125,0,0,0,4.38-12.353Zm-56.183,15.828a22.164,22.164,0,1,1,22.176-22.172A22.164,22.164,0,0,1,1977.445,1106.25Z" transform="translate(-1276.39 -683.384)"/><path class="q" d="M2296.844,1250.746a1.142,1.142,0,0,1-.877-1.874,37.2,37.2,0,0,0,6.553-35.831,1.143,1.143,0,0,1,2.162-.745,39.5,39.5,0,0,1-6.958,38.038A1.143,1.143,0,0,1,2296.844,1250.746Z" transform="translate(-1565.543 -824.449)"/><path class="q" d="M2238.295,1118.975a1.142,1.142,0,0,1-.784-.311,36.954,36.954,0,0,0-12.785-7.879,1.142,1.142,0,1,1,.779-2.148,39.233,39.233,0,0,1,13.573,8.363,1.143,1.143,0,0,1-.784,1.974Z" transform="translate(-1510.204 -745.018)"/><path class="q" d="M2126.829,1102.018a1.143,1.143,0,0,1-.279-2.251,39.638,39.638,0,0,1,9.677-1.2,1.143,1.143,0,1,1,0,2.285,37.234,37.234,0,0,0-9.119,1.129A1.181,1.181,0,0,1,2126.829,1102.018Z" transform="translate(-1434.375 -737.304)"/><path class="ae" d="M-1284.417,306.763s4.608,4.215,9.712,3.061" transform="translate(1730 129)"/></g></svg>