<svg xmlns="http://www.w3.org/2000/svg" width="132.094" height="32.001" viewBox="0 0 132.094 32.001"><defs><style>.a{fill:#fc2861;}.b{fill:#fff;}</style></defs><g transform="translate(-72 -74)"><path class="a" d="M836.19,44.8v-22.6a2.119,2.119,0,0,1,2.058-2.128h15.686v2.492a1.955,1.955,0,0,1-2.058,1.933H840.615v6.675H850.5V33.61a1.989,1.989,0,0,1-2.018,2.018h-7.831l-.041,9.177Z" transform="translate(-764.19 53.923)"/><path class="a" d="M869.806,28.193h4.128V45.584h-4.057l-.212-2.54c-.988,2.046-3.7,3.034-5.645,3.07-5.15.034-8.96-3.14-8.96-9.243,0-6,3.986-9.138,9.066-9.1a6.385,6.385,0,0,1,5.538,2.822Zm-10.442,8.678a4.982,4.982,0,0,0,5.15,5.291c6.773,0,6.773-10.548,0-10.548A4.952,4.952,0,0,0,859.365,36.872Z" transform="translate(-766.102 53.144)"/><path class="a" d="M892.255,31.748a1.485,1.485,0,0,1-1.894.3,6.284,6.284,0,0,0-3.308-.8c-2.046,0-3.175.634-3.175,1.728,0,1.128,1.023,1.764,3.245,1.905,3.28.211,7.443.953,7.443,5.573,0,3.069-2.5,5.716-7.478,5.716a10.179,10.179,0,0,1-8.044-3.1l1.209-1.753a1.491,1.491,0,0,1,2.034-.4,10.434,10.434,0,0,0,4.871,1.514c1.623.036,3.139-.812,3.139-2.081,0-1.2-.987-1.693-3.457-1.834-3.28-.248-7.2-1.447-7.2-5.4,0-4.022,4.163-5.432,7.337-5.432a9.337,9.337,0,0,1,6.773,2.293Z" transform="translate(-768.532 53.152)"/><path class="a" d="M905.279,23.385v4.4l5.1,0v1.911a1.818,1.818,0,0,1-1.793,1.823h-3.338V39a2.158,2.158,0,0,0,2.257,2.469,4.926,4.926,0,0,0,2.08-.528l1.2,3.667a9.623,9.623,0,0,1-3.563.741c-3.774.141-6.244-2.01-6.244-6.35l.015-7.5h-1.556a1.716,1.716,0,0,1-1.706-1.706V27.784h3.246V23.419Z" transform="translate(-770.425 53.588)"/><g transform="translate(144.54 74)"><path class="b" d="M927.188,37.538h-5.825V44.8h-4.454V22.166a2.063,2.063,0,0,1,2.059-2.057c2.815-.009,5.068-.031,8.22-.031C939.253,20.077,939.288,37.538,927.188,37.538Zm-5.827-4.269h5.827c5.962,0,5.926-8.748,0-8.748h-5.827Z" transform="translate(-916.909 -20.077)"/><path class="b" d="M954.195,28.193h4.128V45.584h-4.057l-.212-2.54c-.988,2.046-3.7,3.034-5.645,3.07-5.15.034-8.96-3.14-8.96-9.243,0-6,3.987-9.138,9.066-9.1a6.385,6.385,0,0,1,5.539,2.822Zm-10.442,8.678a4.982,4.982,0,0,0,5.15,5.291c6.773,0,6.773-10.548,0-10.548A4.952,4.952,0,0,0,943.753,36.872Z" transform="translate(-919.193 -20.856)"/><path class="b" d="M969.8,36.366h0l-2.815-8.119h-5l5.609,13.712Z" transform="translate(-921.476 -20.905)"/><path class="b" d="M981.448,28.247,970.836,52.906h-4.727l2.044-4.768.068-.163,3.365-7.7,1.921-4.414,3.174-7.616Z" transform="translate(-921.894 -20.905)"/></g></g></svg>