<svg xmlns="http://www.w3.org/2000/svg" width="793.137" height="394" viewBox="0 0 793.137 394"><defs><style>.a{opacity:0.671;}.b{fill:#f7931e;}.c{fill:#d6efff;}.d{fill:#598891;}.e{fill:#bdcfd3;}.f{fill:#43666d;opacity:0.34;}.g{fill:#245058;}.h{fill:#1b3c42;}.i{fill:#fff;}.j{fill:#858aa4;opacity:0.44;}.k{fill:#77a1a8;}.l{fill:#e0c57d;}.m{fill:#f3e8cb;}.n{fill:#f15a24;}.o{fill:#debdb5;}.p{fill:#a0a2b3;}.q{fill:#dbe1ff;}.r{fill:#ed1e79;}.s{fill:#ff8abd;}.t{fill:#787a86;}.u{fill:#50515a;}.v{fill:#fff7cf;}.w{fill:#564779;}.x{fill:#41355b;}.y{fill:#fd5e5a;}.z{fill:#c40056;}.aa{fill:#ff6dad;}.ab{fill:#c2ccff;}.ac{fill:#29abe2;}.ad{fill:#bfe6ff;}.ae{fill:#121841;}.af{fill:#428263;}.ag,.an{fill:#386d51;}.ah{fill:#387053;}.ai{fill:#398755;}.aj{fill:#2b5e41;}.ak{fill:#499161;}.al{fill:#3e5b45;}.am{fill:#214c35;}.an{opacity:0.43;}.ao{fill:#3d7f59;}.ap{fill:#367252;}.aq{fill:#366b4f;}.ar{fill:#aa9157;}.as{fill:#4778e3;}.at{fill:#6badff;}.au{fill:#57a4ea;}.av{fill:#5fa9f9;}.aw{fill:#c3daf4;}.ax{fill:#fa6b5b;}.ay{fill:#1d2251;}.az{fill:#322144;}.ba{fill:#4b3f56;}.bb{fill:#fa835b;}.bc{fill:#e06d48;opacity:0.54;}.bd{fill:#403160;}.be{fill:#316662;}.bf{fill:#5a9693;}.bg{fill:#508784;}.bh{fill:#e68c6e;}.bi{fill:#d98568;}.bj{fill:#67ada9;}.bk{fill:#36706c;}.bl{fill:#ffe19f;}.bm{fill:#7cd1cc;}.bn{fill:#6eb7b1;}.bo{fill:#ffc661;}</style></defs><g class="a" transform="translate(-0.047 0.004)"><ellipse class="b" cx="313.611" cy="11.705" rx="313.611" ry="11.705" transform="translate(31.721 366.048)"/><path class="c" d="M1104.623,979.747a186.418,186.418,0,0,0-41.8-20.3c-160.468-56.1-334.151-58.926-499.024-22.868-54.188,11.849-112.674,26.971-157.208,62.8-43.421,34.944-61.67,99.326-29.274,149.2,17.035,26.229,44.5,43.106,72.255,56.283,95.236,45.2,200.912,64.558,305.135,68.045,130.564,4.367,333.711,1.888,389.912-151.419,12.114-33.05,13.762-71.814-2.958-102.643C1132.84,1002.653,1119.757,989.841,1104.623,979.747Z" transform="translate(-360.77 -912.78)"/><path class="d" d="M1169.046,1377.722,1156.07,1365.7c-5.607-18.249-8.388-38.695-4.065-58.813a159.365,159.365,0,0,1,29.7,9.641l6.991,15.1,3.329-9.924c7.319,4.159,14.172,9.3,19.061,15.537l-3.958,20.559,9.4-11.025a30.247,30.247,0,0,1,1.624,6.362c4.8,34.057,4.1,76.263,4.1,76.263h-33.037a217.848,217.848,0,0,1-27.147-47.159Z" transform="translate(-653.29 -1058.883)"/><path class="e" d="M1189.247,1415.986c8.017,4.1,13.737,4.128,15.8,3.958-10.276-13.844-19.174-31.376-26.078-47.2-.5,0-.982.038-1.466.038a32.134,32.134,0,0,1-21.068-8.219q-.283-.944-.547-1.888c5.078,4.713,12.661,9.364,22.654,9.036-2.014-4.631-3.914-9.269-5.758-13.958-7.551-1.007-15.015-5.739-20.2-9.792l-.264-1.6c5.034,4.015,12.51,9.036,20.018,10.245-9.313-23.913-15.159-43.213-15.222-43.421l-1.856-4.336,2.624,3.014c.1.371,4.915,16.022,12.221,35.794,3.889-8.5,1.781-29.262,1.12-34.869l1.1.39c.768,6.582,2.807,27.733-1.724,35.819a415.97,415.97,0,0,0,17.337,40.331c2.775-4.329-1.831-32.339,5.9-43.421,4.713-6.74,5.349-14.587,5.091-19.8.359.239.717.485,1.07.736.157,5.374-.629,13.045-5.318,19.7-7.784,11.132-2.442,40.029-6.224,43.786,1.34,2.643,2.719,5.267,4.128,7.841,7.759-25.171,7.658-26.084,6.6-36.064-.629-5.745-1.183-11.17,2.517-15,3.228-3.329,4.292-9.911,4.588-15.254.34.308.68.629,1.007.931-.371,5.349-1.561,11.68-4.858,15.1-5.915,6.1.233,16.991-2.429,27.8-2.41,9.792-6.123,21.8-6.733,23.775,2.9,5.217,5.947,10.238,9.118,14.908,1.309-1.139,6.809-6.7,5.248-18.394-1.259-9.5,7.338-21.591,13.064-28.444l.151,1.523c-5.588,6.859-13.334,18.136-12.183,26.77,1.668,12.491-4.273,18.249-5.664,19.432a111.869,111.869,0,0,0,12.045,14.876h-1.472q-1.095-1.152-2.184-2.372c-4.078,1.321-10.4.629-16.67-4.185a14.512,14.512,0,0,0-11.271-2.794c-.214-.315-.428-.629-.629-.975a15.563,15.563,0,0,1,12.542,2.907c7.136,5.462,13.215,4.657,15.254,4.147-1.617-1.888-3.216-3.845-4.776-5.909-5.242.8-12.12-1.5-16.991-4a21.4,21.4,0,0,0-9.32-2.29l-.673-1.083a22.653,22.653,0,0,1,10.383,2.41Z" transform="translate(-654.191 -1059.61)"/><path class="f" d="M1249.16,1374.939l3.983-4.669a30.249,30.249,0,0,1,1.624,6.362c4.8,34.057,4.1,76.263,4.1,76.263S1245.963,1421.959,1249.16,1374.939Z" transform="translate(-689.902 -1082.379)"/><path class="g" d="M1377.411,1456.56c-1.391,0-19.124-9.32-49.386,0a177.772,177.772,0,0,0-52.325,26.795s34.611,6.922,66.239,1.529S1377.411,1456.56,1377.411,1456.56Z" transform="translate(-699.93 -1112.833)"/><path class="h" d="M1280.943,1480.805c19.86-14.1,50.286-28.809,75.886-28.381-5.374,15.669-12.586,27.059-27.015,34.076a226.7,226.7,0,0,1-49.714-2.467C1280.326,1483.033,1280.616,1481.951,1280.943,1480.805Z" transform="translate(-701.561 -1112.832)"/><path class="g" d="M1272.1,1235.395l12.982,14.109-5.122-29.469a147.175,147.175,0,0,1,15.644-22.51c15.651-18.249,43.824-45.434,43.824-45.434a179.172,179.172,0,0,1,13.769,39.752L1338.64,1207.2l16.877-1.737c12.485,99.087-75.042,166.547-75.042,166.547h-18s-8.086-80.656-1.561-105.393A196.58,196.58,0,0,1,1272.1,1235.395Z" transform="translate(-693.504 -1001.497)"/><path class="i" d="M1260,1276.006c.176-1.6.378-3.146.629-4.531,3.776,10.773,13.844,36.725,24.744,43.528q.554-1.624,1.145-3.241c-10.868-4.147-19.646-31.961-23.963-48.4.371-1.259.755-2.586,1.158-3.876,4.518,17.985,13.649,46.624,23.542,50.268a151.731,151.731,0,0,1,10.981-23.705c3.461-5.89,7-13.989,10.478-23.284-9.383-7.394-16.563-38.808-19.76-55.465q.812-1.145,1.636-2.266c2.926,15.543,10.188,47.889,18.879,55.623,2.517-6.859,4.971-14.31,7.344-21.981-7.973-12.328-10.616-38.437-11.44-50.972.629-.7,1.309-1.41,1.97-2.114.667,10.931,2.983,37.329,10.3,50.393,11.7-38.456,21.5-80.794,21.635-81.442l.787-1.491v1.617c-.157.73-11.044,54.345-24.794,95.708,15.512,5.33,32.5-5.94,41.678-13.586-.075,1-.157,2-.252,2.989a87.69,87.69,0,0,1-7.986,5.708c-8.81,5.582-17.293,8.414-24.958,8.414a28.055,28.055,0,0,1-9.162-1.491,246.152,246.152,0,0,1-11.579,29.205c13.964,5.034,34.271-.566,45.573-4.531-.3.881-.629,1.762-.919,2.63-8.181,2.8-20.2,6.073-31.464,6.073a40.905,40.905,0,0,1-14.165-2.246q-1.007,1.944-2.02,3.656c-18.161,30.835-25.593,80.6-26.254,85.205h-2.108a345.341,345.341,0,0,1,13.02-55.3C1274.027,1310.831,1264.581,1288.516,1260,1276.006Z" transform="translate(-694.109 -1001.853)"/><path class="j" d="M1283.688,1454.567H1266.93s3.908-37.078,37.2-61.752l4.009,6.488.629-9.7q2.9-1.888,6.06-3.65l5.21,12.586,2.259-16.3a115.892,115.892,0,0,1,22.73-7.457C1323.22,1423.455,1285.123,1453.453,1283.688,1454.567Z" transform="translate(-696.679 -1084.051)"/><path class="k" d="M1153.019,1389.269l3.505,16.028,4.229-11.5a101.111,101.111,0,0,1,12.787,9.622l1.259,7.973,4.109-2.781a71.37,71.37,0,0,1,19.892,45.705h-27.821s-59.826-17.116-61.909-80.209a150.787,150.787,0,0,1,43.949,15.159Z" transform="translate(-638.158 -1083.803)"/><path class="e" d="M1188.786,1454.649h-4.651c-32.723-18.306-69.291-73.589-70.889-76.018L1111,1375l4,2.4C1115.405,1378.039,1155.679,1438.992,1188.786,1454.649Z" transform="translate(-638.873 -1084.133)"/><path class="l" d="M1307.511,1407.4l3.43,5.563.516-8.307q2.486-1.623,5.2-3.146l4.462,10.767,1.932-13.97a107.229,107.229,0,0,1,32.937-8.571s-2.788,39.072-19.508,56.283-42.791,14.247-42.791,14.247H1275.6S1279,1428.542,1307.511,1407.4Z" transform="translate(-699.893 -1089.597)"/><path class="m" d="M1299.587,1460.776h-2.737c39.853-28.318,64.061-68.045,64.307-68.448l2.1-1.259-.768,2.133C1362.245,1393.581,1338.616,1432.351,1299.587,1460.776Z" transform="translate(-707.77 -1090.09)"/><path class="d" d="M590.992,1376.162l12.976-12.019c5.607-18.249,8.388-38.695,4.065-58.813a159.2,159.2,0,0,0-29.7,9.641l-7,15.1-3.329-9.924c-7.312,4.16-14.165,9.3-19.061,15.537l3.958,20.552-9.4-11.019a30.137,30.137,0,0,0-1.617,6.362c-4.808,34.057-4.109,76.263-4.109,76.263h33.038a218.017,218.017,0,0,0,27.154-47.159Z" transform="translate(-426.359 -1058.305)"/><path class="e" d="M573.11,1414.426c-8.011,4.09-13.737,4.128-15.8,3.958,10.27-13.844,19.168-31.376,26.071-47.2.5,0,.988.038,1.466.038a32.167,32.167,0,0,0,21.068-8.219c.189-.629.371-1.259.554-1.888-5.085,4.713-12.668,9.364-22.654,9.037,2.014-4.638,3.914-9.269,5.758-13.958,7.551-1.013,15.015-5.739,20.2-9.792l.264-1.6c-5,4.015-12.51,9.036-20.018,10.245,9.313-23.913,15.16-43.213,15.222-43.421l1.856-4.336-2.618,3.014c-.107.371-4.921,16.022-12.227,35.794-3.889-8.5-1.775-29.262-1.114-34.869l-1.1.39c-.774,6.582-2.813,27.726,1.718,35.813a412.261,412.261,0,0,1-17.337,40.337c-2.775-4.329,1.831-32.339-5.9-43.421-4.713-6.74-5.343-14.587-5.091-19.8-.359.239-.717.485-1.07.736-.157,5.374.667,13.045,5.318,19.7,7.784,11.132,2.442,40.029,6.224,43.786q-2.007,3.965-4.128,7.841c-7.759-25.171-7.658-26.084-6.595-36.064.629-5.745,1.183-11.17-2.517-15-3.222-3.329-4.292-9.911-4.587-15.254-.34.308-.68.629-1.007.931.371,5.349,1.561,11.68,4.858,15.1,5.922,6.1-.233,16.991,2.429,27.8,2.41,9.792,6.123,21.8,6.74,23.775-2.907,5.217-5.947,10.238-9.125,14.908-1.309-1.139-6.809-6.7-5.248-18.394,1.259-9.5-7.337-21.591-13.064-28.444-.05.5-.1,1.013-.145,1.523,5.582,6.859,13.335,18.136,12.177,26.77-1.668,12.491,4.273,18.249,5.664,19.432a112.353,112.353,0,0,1-12.019,14.87h1.466q1.1-1.152,2.19-2.373c4.078,1.322,10.39.629,16.664-4.185a14.518,14.518,0,0,1,11.27-2.794l.629-.975a15.574,15.574,0,0,0-12.548,2.907c-7.13,5.462-13.215,4.657-15.254,4.147,1.624-1.888,3.216-3.845,4.776-5.909,5.242.8,12.12-1.5,16.991-4a21.35,21.35,0,0,1,9.32-2.291l.667-1.082a22.6,22.6,0,0,0-10.4,2.416Z" transform="translate(-427.759 -1059.032)"/><path class="f" d="M547.489,1373.379l-3.983-4.669a30.134,30.134,0,0,0-1.617,6.362c-4.808,34.057-4.109,76.263-4.109,76.263S550.692,1420.4,547.489,1373.379Z" transform="translate(-426.359 -1081.801)"/><path class="g" d="M365.36,1454.99c1.391,0,19.13-9.32,49.386,0a178.034,178.034,0,0,1,52.331,26.789s-34.611,6.922-66.245,1.523S365.36,1454.99,365.36,1454.99Z" transform="translate(-362.454 -1112.251)"/><path class="h" d="M476.552,1479.275c-19.86-14.1-50.293-28.815-75.892-28.381,5.374,15.669,12.586,27.059,27.015,34.076a226.662,226.662,0,0,0,49.714-2.467C477.162,1481.484,476.879,1480.4,476.552,1479.275Z" transform="translate(-375.54 -1112.264)"/><path class="g" d="M472.659,1233.835l-12.982,14.109,5.116-29.469a147.145,147.145,0,0,0-15.638-22.51c-15.657-18.249-43.823-45.434-43.823-45.434a179.211,179.211,0,0,0-13.775,39.752l14.555,15.361-16.833-1.737c-12.517,99.081,75.011,166.541,75.011,166.541h18s8.086-80.656,1.567-105.393a197.234,197.234,0,0,0-11.2-31.219Z" transform="translate(-370.867 -1000.919)"/><path class="i" d="M485.649,1274.439c-.182-1.611-.384-3.146-.629-4.537-3.776,10.78-13.844,36.731-24.744,43.534q-.554-1.623-1.145-3.241c10.874-4.147,19.653-31.962,23.963-48.4q-.554-1.932-1.152-3.883c-4.525,17.991-13.656,46.63-23.542,50.274a151.78,151.78,0,0,0-10.981-23.705c-3.461-5.89-7-13.989-10.478-23.283,9.383-7.394,16.563-38.808,19.76-55.465-.541-.761-1.082-1.517-1.636-2.265-2.92,15.543-10.188,47.889-18.879,55.623-2.517-6.859-4.965-14.31-7.338-21.987,7.967-12.321,10.61-38.43,11.44-50.972l-1.976-2.121c-.661,10.937-2.977,37.335-10.3,50.4-11.7-38.456-21.5-80.794-21.635-81.448l-.78-1.491v1.592c.157.73,11.05,54.339,24.794,95.708-15.506,5.33-32.5-5.94-41.678-13.586.076,1,.164,2,.258,2.989a87.887,87.887,0,0,0,7.979,5.708c8.81,5.582,17.293,8.414,24.958,8.414a28.054,28.054,0,0,0,9.162-1.491,243.972,243.972,0,0,0,11.579,29.205c-13.964,5.034-34.271-.566-45.573-4.531.3.881.629,1.756.925,2.63,8.181,2.8,20.194,6.073,31.464,6.073a40.741,40.741,0,0,0,14.165-2.253q1.01,1.945,2.02,3.662c18.167,30.867,25.6,80.6,26.254,85.205h2.108a344.942,344.942,0,0,0-13.014-55.3C471.584,1309.264,481.03,1286.949,485.649,1274.439Z" transform="translate(-371.114 -1001.267)"/><path class="j" d="M473.011,1452.975h16.758s-3.908-37.078-37.2-61.752l-4.009,6.488-.6-9.7q-2.895-1.888-6.066-3.65l-5.21,12.586-2.259-16.343a115.9,115.9,0,0,0-22.73-7.457C433.48,1421.869,471.583,1451.867,473.011,1452.975Z" transform="translate(-379.633 -1083.447)"/><path class="k" d="M596.811,1387.709l-3.5,16.028-4.235-11.5a101.557,101.557,0,0,0-12.787,9.622l-1.259,7.973-4.109-2.781a71.37,71.37,0,0,0-19.892,45.705h27.821s59.826-17.116,61.916-80.209a150.792,150.792,0,0,0-43.956,15.159Z" transform="translate(-431.285 -1083.224)"/><path class="e" d="M568.09,1453.094h4.644c32.723-18.306,69.291-73.589,70.889-76.018l2.265-3.606-3.99,2.4C641.49,1376.491,601.165,1437.443,568.09,1453.094Z" transform="translate(-437.609 -1083.565)"/><path class="l" d="M447.828,1405.84l-3.43,5.563-.516-8.313q-2.479-1.617-5.192-3.146l-4.468,10.767-1.932-13.97a107.234,107.234,0,0,0-32.931-8.571s2.781,39.073,19.476,56.283,42.791,14.247,42.791,14.247h18.054S476.353,1426.978,447.828,1405.84Z" transform="translate(-375.059 -1089.015)"/><path class="m" d="M463.995,1459.216h2.731c-39.853-28.318-64.061-68.045-64.3-68.448l-2.1-1.259.761,2.127C401.337,1392.021,424.96,1430.791,463.995,1459.216Z" transform="translate(-375.418 -1089.512)"/><path class="n" d="M467.8,1491.956s-33.384-15.392-55.535-13.492S367.3,1505.8,367.3,1505.8s7.268,2.693,17.733,5.361l9.861-8.086-2.756,9.773c16.361,3.568,37.279,5.959,51.6-.3C470.409,1500.867,467.8,1491.956,467.8,1491.956Z" transform="translate(-363.173 -1122.428)"/><path class="o" d="M468.809,1491.974s-.428-.2-1.743-.768c-6.626-.428-27.978-1.586-46.567-.868-3.109-2.517-4.4-7.935-4.94-11.988-.51,0-1.019.038-1.523.076.491,3.813,1.642,8.892,4.355,12-.862.044-6.922.547-8.98.875-3.272-2.429-3.99-7.375-3.99-11.233-.5.157-1.013.327-1.523.5.057,3.688.787,8.181,3.562,11.057-1.989.359-3.933.787-5.821,1.259-4.235-.711-6.79-4.405-8.181-7.451-.447.258-.894.516-1.334.78,1.259,2.693,3.367,5.871,6.721,7.419-1.649.466-3.247.963-4.789,1.479-5.506-1.573-7.621-3.423-8.432-4.588-.422.3-.837.629-1.259.912.919,1.309,2.914,3.021,7.231,4.531a151.092,151.092,0,0,0-18.74,8.181l-2.826,1.737,4.015-.384c.189-.113,17.7-10.629,38.531-13.064-5.487,4.55-7.809,14.09-9.156,19.6-.22.919-.459,1.888-.673,2.656l1.5.233c.182-.629.384-1.473.629-2.517,1.491-6.129,4.254-17.456,11.151-20.3,1.114-.076,6.689-.3,8.036-.333-5.229,4.669-9.2,17.507-10.987,24.215l1.529.126c2.385-8.842,7.2-22.843,12.5-24.4C447.52,1491.389,468.809,1491.974,468.809,1491.974Z" transform="translate(-364.185 -1122.446)"/><path class="p" d="M1425.282,990.25H1312.149c-15.323,0-27.739,12.856-27.739,28.714v246.126c0,15.858,12.416,28.708,27.739,28.708h113.133c15.323,0,27.745-12.85,27.745-28.708V1018.964C1453.027,1003.106,1440.605,990.25,1425.282,990.25Z" transform="translate(-703.159 -941.501)"/><path class="q" d="M1316.575,1293.691a20.414,20.414,0,0,1-20.225-20.552v-241.7a20.418,20.418,0,0,1,20.225-20.552h113.133a20.416,20.416,0,0,1,20.232,20.552v241.7a20.42,20.42,0,0,1-20.232,20.552Z" transform="translate(-707.585 -949.152)"/><path class="r" d="M1449.94,1035.516v-4.034a20.42,20.42,0,0,0-20.232-20.552H1316.575a20.414,20.414,0,0,0-20.225,20.552v4.034Z" transform="translate(-707.585 -949.167)"/><path class="s" d="M1499.718,1010.89H1485.2c9.062,0,16.437,9.219,16.437,20.552v4.059h18.312v-4.034A20.421,20.421,0,0,0,1499.718,1010.89Z" transform="translate(-777.594 -949.152)"/><path class="r" d="M1474.079,1010.89H1455.2c2.259,0,4.1,9.219,4.1,20.552v4.059h31.2v-4.034C1490.516,1020.109,1483.14,1010.89,1474.079,1010.89Z" transform="translate(-766.473 -949.152)"/><path class="s" d="M1352.408,1010.89h-22.981c-9.062,0-16.437,9.219-16.437,20.552v4.059h31.2v-4.034C1344.19,1020.109,1347.878,1010.89,1352.408,1010.89Z" transform="translate(-713.754 -949.152)"/><path class="r" d="M1397.942,1010.89h-27.154c-4.531,0-8.219,9.219-8.219,20.552v4.059h31.269v-4.034C1393.839,1020.109,1395.683,1010.89,1397.942,1010.89Z" transform="translate(-732.134 -949.152)"/><path class="s" d="M1439.294,1010.89h-22.931c-2.259,0-4.1,9.219-4.1,20.552v4.059H1443.4v-4.034C1443.4,1020.109,1441.553,1010.89,1439.294,1010.89Z" transform="translate(-750.554 -949.152)"/><rect class="t" width="116.173" height="9.074" rx="4.537" transform="translate(606.844 50.719)"/><path class="u" d="M1500.595,998.548a3.562,3.562,0,1,1-3.562-3.688A3.625,3.625,0,0,1,1500.595,998.548Z" transform="translate(-780.661 -943.21)"/><rect class="u" width="66.113" height="3.159" rx="1.58" transform="translate(636.635 53.759)"/><rect class="i" width="129.784" height="249.034" transform="translate(600.753 87.664)"/><rect class="v" width="110.805" height="169.303" transform="translate(615.409 150.385)"/><path class="w" d="M1497.43,1121.05a2.121,2.121,0,1,0,2.121-2.19,2.158,2.158,0,0,0-2.121,2.19Z" transform="translate(-782.128 -989.178)"/><path class="x" d="M1499,1121.643a1.152,1.152,0,1,0,1.145-1.183A1.164,1.164,0,0,0,1499,1121.643Z" transform="translate(-782.71 -989.771)"/><path class="w" d="M1482.77,1121.05a2.121,2.121,0,1,0,2.121-2.19,2.158,2.158,0,0,0-2.121,2.19Z" transform="translate(-776.693 -989.178)"/><path class="x" d="M1484.31,1121.643a1.152,1.152,0,1,0,1.151-1.183A1.17,1.17,0,0,0,1484.31,1121.643Z" transform="translate(-777.264 -989.771)"/><path class="w" d="M1481.592,1106.356l-3.958-7.079a1,1,0,0,1,.044-1.057,1.214,1.214,0,0,1,1.019-.522h15.732a.365.365,0,1,1,0,.73H1478.7a.384.384,0,0,0-.334.17.321.321,0,0,0,0,.346l3.958,7.08a.39.39,0,0,0,.346.2h10.289l2.605-9.439a2.517,2.517,0,0,1,2.416-1.888h2.9a.415.415,0,0,1,0,.824h-2.9a1.731,1.731,0,0,0-1.649,1.259l-3.411,12.384h-11.164a.415.415,0,0,1,0-.831h10.559l.44-1.586h-10.068a1.208,1.208,0,0,1-1.095-.585Z" transform="translate(-774.741 -980.292)"/><ellipse class="y" cx="7.715" cy="7.979" rx="7.715" ry="7.979" transform="translate(678.942 115.913)"/><path class="z" d="M1296.35,1065.216A16.11,16.11,0,0,0,1306.828,1050h-10.471Z" transform="translate(-707.585 -963.651)"/><path class="aa" d="M1328.594,1066.1a15.881,15.881,0,0,0,15.6-16.141H1313C1313,1058.871,1319.979,1066.1,1328.594,1066.1Z" transform="translate(-713.757 -963.636)"/><path class="z" d="M1378.17,1066.1a15.881,15.881,0,0,0,15.6-16.141h-31.2A15.88,15.88,0,0,0,1378.17,1066.1Z" transform="translate(-732.134 -963.636)"/><path class="aa" d="M1427.75,1066.1a15.882,15.882,0,0,0,15.606-16.141H1412.15A15.881,15.881,0,0,0,1427.75,1066.1Z" transform="translate(-750.513 -963.636)"/><path class="z" d="M1477.34,1066.1a15.881,15.881,0,0,0,15.6-16.141h-31.2A15.88,15.88,0,0,0,1477.34,1066.1Z" transform="translate(-768.897 -963.636)"/><path class="aa" d="M1529.632,1065.871V1050H1511.32a15.881,15.881,0,0,0,15.6,16.141A15.43,15.43,0,0,0,1529.632,1065.871Z" transform="translate(-787.277 -963.651)"/><rect class="p" width="460.436" height="323.013" rx="37.36" transform="translate(83.845 46.887)"/><rect class="q" width="300.465" height="439.764" rx="20.21" transform="translate(533.942 58.157) rotate(90)"/><path class="ab" d="M938,1005.2H522.58c-6.708,0-12.17,5.959-12.17,13.284v30.206H950.174v-30.206C950.174,1011.159,944.712,1005.2,938,1005.2Z" transform="translate(-416.226 -947.043)"/><rect class="i" width="362.727" height="21.559" rx="10.78" transform="translate(113.069 66.288)"/><rect class="ac" width="35.133" height="18.426" rx="9.213" transform="translate(486.915 67.855)"/><rect class="i" width="382.952" height="199.352" rx="29.18" transform="translate(121.526 123.949)"/><path class="ab" d="M919.246,1109.74h-347.8c-9.71,0-17.576,8.59-17.576,19.181v7.715H936.822v-7.715C936.822,1118.33,928.95,1109.74,919.246,1109.74Z" transform="translate(-432.337 -985.797)"/><rect class="i" width="18.539" height="15.222" transform="translate(401.471 129.178)"/><path class="i" d="M1056.53,1121.089h-19.237a1.133,1.133,0,0,1,0-2.259h19.237a1.133,1.133,0,0,1,0,2.259Z" transform="translate(-611.16 -989.167)"/><path class="i" d="M1056.53,1131.169h-19.237a1.133,1.133,0,0,1,0-2.259h19.237a1.133,1.133,0,0,1,0,2.259Z" transform="translate(-611.16 -992.904)"/><path class="i" d="M1056.53,1141.249h-19.237a1.133,1.133,0,0,1,0-2.259h19.237a1.133,1.133,0,0,1,0,2.259Z" transform="translate(-611.16 -996.641)"/><rect class="ad" width="75.489" height="148.165" transform="translate(171.448 166.627)"/><rect class="ad" width="75.489" height="143.842" transform="translate(279.628 166.627)"/><rect class="ad" width="75.489" height="140.715" transform="translate(387.809 166.627)"/><path class="ae" d="M1094.7,1036.516l-2.517-4.518a4.826,4.826,0,0,0,1.687-3.719,4.311,4.311,0,1,0-4.292,4.682,3.909,3.909,0,0,0,1.661-.365l1.787,4.845a1.089,1.089,0,0,0,.069.151.906.906,0,0,0,1.3.346A1.089,1.089,0,0,0,1094.7,1036.516Zm-8.4-8.263a3.272,3.272,0,1,1,3.266,3.555A3.43,3.43,0,0,1,1086.3,1028.253Z" transform="translate(-629.338 -953.86)"/><path class="w" d="M1112.609,1143.129a2.341,2.341,0,1,0,2.335-2.549A2.448,2.448,0,0,0,1112.609,1143.129Z" transform="translate(-639.469 -997.23)"/><path class="x" d="M1114.309,1143.818a1.259,1.259,0,1,0,1.259-1.378A1.328,1.328,0,0,0,1114.309,1143.818Z" transform="translate(-640.1 -997.92)"/><path class="w" d="M1096.479,1143.129a2.341,2.341,0,1,0,2.335-2.549A2.448,2.448,0,0,0,1096.479,1143.129Z" transform="translate(-633.489 -997.23)"/><path class="x" d="M1098.179,1143.818a1.259,1.259,0,1,0,1.259-1.378A1.328,1.328,0,0,0,1098.179,1143.818Z" transform="translate(-634.12 -997.92)"/><path class="w" d="M1095.23,1126.031l-4.355-8.212a1.208,1.208,0,0,1,.05-1.227,1.315,1.315,0,0,1,1.114-.629h17.3a.428.428,0,1,1,0,.85h-17.3a.434.434,0,0,0-.365.2.39.39,0,0,0,0,.4l4.355,8.181a.428.428,0,0,0,.384.22h11.327l2.863-10.975a2.838,2.838,0,0,1,2.662-2.2h3.191a.466.466,0,0,1,.44.485.459.459,0,0,1-.44.478h-3.191a1.926,1.926,0,0,0-1.812,1.491l-3.776,14.367h-12.284a.466.466,0,0,1-.441-.478.472.472,0,0,1,.441-.485h11.617l.484-1.838H1096.4A1.321,1.321,0,0,1,1095.23,1126.031Z" transform="translate(-631.359 -986.872)"/><path class="af" d="M1394.208,1274.77c-.736.182-6.437,53.552-6.437,53.552s.2-1.063,4.927.806,14.713,2.756,14.713,2.756,2.838-24.1,4.279-25.593l6.186,25.593s19.936-4.525,20.559-4.525l-10.276-52s-14.335,3.511-16.833,3.511S1396.914,1274.084,1394.208,1274.77Z" transform="translate(-741.476 -1046.951)"/><path class="ag" d="M1394.208,1274.771c-.736.182-6.437,53.552-6.437,53.552s.2-1.063,4.927.806a39.2,39.2,0,0,0,7.356,1.806c.541-8.81.686-14.681-1.617-26.191-1.573-7.86.9-18.96,3.109-28.576C1398.355,1275.23,1395.384,1274.468,1394.208,1274.771Z" transform="translate(-741.476 -1046.951)"/><path class="ah" d="M1446.905,1275.74s-4.229,1.038-8.5,1.982c1.026,5.462,3.442,15.575,7.551,17.513a12.125,12.125,0,0,0,5.034,1.384Z" transform="translate(-760.248 -1047.336)"/><path class="ai" d="M1457.76,1322.939a38.959,38.959,0,0,1,1.623,3.719c1.183,3.184,1.353,12.9.831,14.121s-7.64,1.888-9.741,1.07c-1.3-.5-1.617-11.8-1.693-17.211,0-1.6,1.152-1.995,2.7-2.146C1455.627,1322.1,1457.03,1321.485,1457.76,1322.939Z" transform="translate(-764.093 -1064.492)"/><path class="aj" d="M1453.144,1340.652c-1.429-.547-1.655-12.818-1.693-17.312,0,0-2.693,0-2.681,1.328.069,5.2.359,17.161,1.7,17.67,2.1.8,9.219.151,9.741-1.07a2.9,2.9,0,0,0,.139-.629C1457.939,1341.08,1454.5,1341.168,1453.144,1340.652Z" transform="translate(-764.089 -1064.982)"/><path class="ak" d="M1460.832,1328.612a23.927,23.927,0,0,0-.334-2.788,7.891,7.891,0,0,0-4.147-5.085l-5.664.409a2.114,2.114,0,0,0-1.888,2.146c0,1.479.05,3.637.132,5.953Z" transform="translate(-764.1 -1064.018)"/><path class="al" d="M1390.555,1358.39s-2.825-.22-2.825.95,15.159,4,19.64,3.562C1407.37,1362.9,1393.173,1358.39,1390.555,1358.39Z" transform="translate(-741.461 -1077.969)"/><path class="ah" d="M1438.187,1347.7c-2.171-5.481-4.587-12.227-5.928-16.991-.994-3.511-5.336-14.172-6.519-7.212l6.186,25.593Z" transform="translate(-755.552 -1064.185)"/><path class="af" d="M1442.229,1280.7s5.387,13.3,8.105,14.266h.806l1.259,10.547-6.865.957-7.142-24.819Z" transform="translate(-760.241 -1049.174)"/><path class="am" d="M1444.49,1280.7c2.442,5.2,6,13.215,8.118,14.234h0l.806.038-.812.038h0C1449.776,1293.9,1445.522,1283.6,1444.49,1280.7Z" transform="translate(-762.502 -1049.174)"/><path class="ah" d="M1396.717,1274.771c-.264.063-1.145,6.8-2.177,15.468,2.75.8,5.745,1.259,6.362-.214.843-2.026,1.749-9.766,2.2-14.134C1400.285,1275.085,1397.768,1274.5,1396.717,1274.771Z" transform="translate(-743.985 -1046.952)"/><path class="af" d="M1400.344,1280.7s-7.073,12.957-8.344,12.957l.113,11.434,7.866,2.442,3.618-25.952Z" transform="translate(-743.044 -1049.174)"/><path class="an" d="M1397.739,1288c-2.152,3.719-4.978,8.338-5.739,8.338l.113,11.434,6.614.812C1398.085,1302.555,1397.827,1294.79,1397.739,1288Z" transform="translate(-743.044 -1051.881)"/><path class="am" d="M1400.344,1280.7c-1.749,3.625-7.036,12.894-8.344,12.957.868-.138,4.2-6.066,6.343-9.634C1398.545,1283.683,1397.594,1285.256,1400.344,1280.7Z" transform="translate(-743.044 -1049.174)"/><path class="ai" d="M1390.127,1319.46a38.1,38.1,0,0,0-2.8,5.55c-1.259,3.146-.491,12.888,0,14.127s6.387,2.108,8.483,1.315c1.3-.491,1.963-12.957,2.184-17.947a2.184,2.184,0,0,0-1.888-2.284Z" transform="translate(-741.057 -1063.543)"/><path class="aj" d="M1395.947,1320.58c-.214,4.921-.887,17.551-2.184,18.042s-4.348.321-6.394-.214a6.442,6.442,0,0,0,.245,1.145c.491,1.259,6.387,2.108,8.483,1.315,1.3-.491,1.97-12.976,2.184-17.96a2.177,2.177,0,0,0-1.888-2.272Z" transform="translate(-741.327 -1063.958)"/><path class="aj" d="M1397.257,1270.59l-.157,5.368s15.285,3.48,19.967,2.58V1274.3S1404,1274.089,1397.257,1270.59Z" transform="translate(-744.934 -1045.427)"/><path class="ao" d="M1423.469,1277.386h0a2.593,2.593,0,0,0,2.92,2.624l15.663-2.278-.289-5.972s-4.191,1.85-16.034,2.989A2.6,2.6,0,0,0,1423.469,1277.386Z" transform="translate(-754.71 -1045.86)"/><path class="ap" d="M1423.074,1286.44c.541,8.42,0,17.286.875,19.288a3.539,3.539,0,0,0,3.618,1.491c-2.215.743-4.141-.346-4.524-1.888-.831-2.63-.673-9.93-.51-12.869C1422.64,1290.442,1422.779,1288.441,1423.074,1286.44Z" transform="translate(-754.314 -1051.302)"/><path class="am" d="M1427.943,1279.659a1.1,1.1,0,1,1-1.1-1.139A1.12,1.12,0,0,1,1427.943,1279.659Z" transform="translate(-755.552 -1048.366)"/><path class="aq" d="M1046.609,366.609l-1.919-.39,1.126-5.959,1.919.434Z" transform="translate(-387.263 -133.555)"/><path class="aq" d="M1076.107,368.385l-1.347-6.633,1.938-.3,1.328,6.519Z" transform="translate(-398.411 -133.996)"/><path class="ah" d="M1387.12,1330.23a4.529,4.529,0,0,1-.176,3.1,2.1,2.1,0,0,1-1.724.912l.12,1.347a3.335,3.335,0,0,0,2.706-1.529,5.445,5.445,0,0,0,.409-3.826Z" transform="translate(-740.53 -1067.536)"/><rect class="ar" width="2.322" height="0.673" transform="translate(646.282 264.595)"/><path class="ak" d="M1460.8,1331.763l1.611-.283c.126.761.692,2.87,1.743,3.48a1.258,1.258,0,0,0,1.259,0l.094,1.737C1462.656,1337.88,1461.31,1334.847,1460.8,1331.763Z" transform="translate(-768.549 -1067.999)"/><rect class="ar" width="3.348" height="0.535" transform="translate(692.037 265.822)"/><path class="ak" d="M1397.515,1327.959c.126-2.2.239-4.543.308-6.035a1.768,1.768,0,0,0-1.41-1.838l-6.469-.837s-2.649.333-3.536,5.664c-.088.535-.145,1.177-.258,1.957Z" transform="translate(-740.875 -1063.465)"/><path class="i" d="M584.192,1154.407l-.938.856c-.894-1.259-1.888-.547-1.46.069.761,1.019,2.517,1.674,2.517,3.253,0,2.133-3.014,2.876-4.191.459l1.063-.667c.774,1.473,1.888.868,1.888.264,0-.969-2.63-1.932-2.63-3.6C580.435,1153.552,582.455,1152.324,584.192,1154.407Z" transform="translate(-442.069 -1001.945)"/><path class="i" d="M590.417,1153.57h1.259l2.561,6.922h-1.259l-.522-1.422h-2.75l-.541,1.422H587.85Zm.629,1.825-.894,2.372h1.787Z" transform="translate(-444.934 -1002.046)"/><path class="i" d="M599.6,1153.57h1.259v5.664H602.7v1.259h-3.1Z" transform="translate(-449.29 -1002.046)"/><path class="i" d="M606.1,1153.57h3.637v1.259h-2.379v1.259h2.379v1.259h-2.379v1.812h2.379v1.259H606.1Z" transform="translate(-451.7 -1002.046)"/><path class="as" d="M693,1229.553l1.642-2.3s1.473,5.664,6.375,6.595,8.395-6.595,8.395-6.595l1.743,4.94-6.349,13.089-7.017-.831L693,1230.038Z" transform="translate(-483.915 -1029.36)"/><path class="at" d="M713.041,1289.458c-2.983-20.634-2.354-21.773-4.846-27.317-.4-.868-1.743-3.977-2.309-5.368-1.976-4.858,2.586-15.229,2.586-15.229l-.975-8.017a35.838,35.838,0,0,1,0-4.858l-3.354-1.422c.145.812.145,1.661.352,3.146a7.438,7.438,0,0,1-1.768,5.978c-2.133,2.354-5.431,3.776-8.011,2.807s-5.3-3.776-5.4-6.721a24.933,24.933,0,0,1,.057-5.217l-3.367,1.259a23.776,23.776,0,0,1,.629,5.45l-.472,8.923a19.467,19.467,0,0,1,3.09,14.474c-.371,2.391-2.228,4.814-3.48,8.854-2.706,8.722-4.7,21.773-6.884,33.088,9.144,5.173,27.059,6.84,36.675-.415A32.029,32.029,0,0,1,713.041,1289.458Z" transform="translate(-478.684 -1029.356)"/><path class="au" d="M727.3,1289.928c-2.983-20.634-2.354-21.773-4.845-27.317-.4-.869-1.743-3.977-2.31-5.368-1.976-4.858,2.586-15.229,2.586-15.229l-.975-8.017a35.826,35.826,0,0,1,0-4.858l-1.5-.629.787,12.68s-3.688,11.39-3.688,14.662,4.034,8.521,4.9,16.361c.7,6.4,1.787,23.85,2.165,30.03a21.325,21.325,0,0,0,5.418-2.914A31.634,31.634,0,0,1,727.3,1289.928Z" transform="translate(-492.942 -1029.827)"/><path class="av" d="M687.071,1270.273c1.888-9.4,4.4-10.459,4.4-15.1s-2.838-11.573-2.838-11.573a30.03,30.03,0,0,1-.837-7.633,32.944,32.944,0,0,0-.969-7.224l-.755.271a23.773,23.773,0,0,1,.629,5.45l-.472,8.923a19.466,19.466,0,0,1,3.09,14.474c-.371,2.391-2.228,4.814-3.48,8.854-2.706,8.722-4.7,21.773-6.884,33.088a27.876,27.876,0,0,0,4.682,2.083C684.051,1296.281,685.46,1278.158,687.071,1270.273Z" transform="translate(-478.71 -1029.912)"/><path class="aw" d="M719.737,1228.255a.113.113,0,0,1-.107-.113v-.308a.11.11,0,1,1,.22,0v.3a.12.12,0,0,1-.107.12Z" transform="translate(-493.787 -1029.534)"/><path class="aw" d="M702.3,1241.358h-.05a5.442,5.442,0,0,1-.554,0,.107.107,0,0,1-.1-.12.12.12,0,0,1,.12-.107,5.131,5.131,0,0,0,.541,0h.044a.113.113,0,0,1,0,.227Zm.6-.031a.113.113,0,0,1-.113-.1.119.119,0,0,1,.1-.126,3.113,3.113,0,0,0,.585-.082.115.115,0,0,1,.038.227,6.168,6.168,0,0,1-.629.082Zm-1.781-.076h0c-.2-.044-.4-.094-.585-.157a.113.113,0,1,1,.063-.214,5.758,5.758,0,0,0,.566.145.107.107,0,0,1,.088.132.113.113,0,0,1-.164.094Zm2.951-.132a.113.113,0,0,1-.107-.088.12.12,0,0,1,.082-.138l.566-.17a.107.107,0,0,1,.138.076.113.113,0,0,1-.069.145l-.585.17Zm-4.09-.226h-.044c-.182-.076-.365-.164-.547-.252a.114.114,0,1,1,.094-.208c.176.088.359.176.541.252a.107.107,0,0,1,.057.145.113.113,0,0,1-.132.063Zm5.229-.151a.12.12,0,0,1-.107-.076.113.113,0,0,1,.063-.145c.182-.076.365-.157.541-.245a.114.114,0,0,1,.094.208l-.554.252Zm-6.293-.39h-.05c-.176-.1-.346-.208-.516-.321a.12.12,0,0,1-.038-.157.113.113,0,0,1,.157-.038c.164.113.334.214.5.315a.126.126,0,0,1,.044.157.107.107,0,0,1-.145.044Zm7.388-.132a.107.107,0,0,1-.1-.057.126.126,0,0,1,.044-.157c.176-.094.346-.2.516-.3a.113.113,0,0,1,.151.038.12.12,0,0,1-.038.157c-.17.107-.346.214-.522.308a.082.082,0,0,1-.094.012Zm-8.407-.529a.106.106,0,0,1-.063,0l-.478-.384a.113.113,0,1,1,.138-.176c.151.132.308.252.466.371a.12.12,0,0,1,0,.164A.1.1,0,0,1,697.894,1239.69Zm9.408-.1a.113.113,0,0,1-.094-.05.126.126,0,0,1,0-.163c.164-.114.321-.233.478-.353a.1.1,0,0,1,.151,0,.113.113,0,0,1,0,.157c-.157.126-.321.252-.484.365a.088.088,0,0,1-.076.038Zm-10.327-.68a.106.106,0,0,1-.075,0c-.151-.138-.3-.289-.434-.434a.12.12,0,0,1,0-.164.113.113,0,0,1,.157,0,5.419,5.419,0,0,0,.422.428.12.12,0,0,1,0,.164.1.1,0,0,1-.094,0Zm11.271-.069a.118.118,0,0,1-.082-.2c.145-.132.3-.271.434-.409a.113.113,0,0,1,.157,0,.12.12,0,0,1,0,.164c-.145.145-.29.283-.447.415a.1.1,0,0,1-.088.025Zm-12.095-.824a.126.126,0,0,1-.088-.038c-.126-.164-.252-.327-.371-.5a.12.12,0,0,1,0-.157.113.113,0,0,1,.157,0c.113.164.233.321.359.478a.12.12,0,0,1,0,.164.1.1,0,0,1-.082.044Zm12.957,0a.108.108,0,0,1-.076,0,.126.126,0,0,1,0-.164,5.525,5.525,0,0,0,.377-.466.1.1,0,0,1,.151,0,.12.12,0,0,1,0,.164c-.12.164-.252.327-.384.484a.119.119,0,0,1-.094-.057Zm-13.656-.969a.1.1,0,0,1-.094-.057c-.107-.182-.2-.365-.289-.547a.107.107,0,0,1,.05-.151.1.1,0,0,1,.145.05q.132.264.283.529a.113.113,0,0,1-.038.157Zm14.367,0h-.057a.126.126,0,0,1-.038-.163c.1-.17.2-.346.289-.529a.107.107,0,0,1,.145-.05.12.12,0,0,1,.05.157c-.088.183-.189.371-.3.548a.113.113,0,0,1-.12-.019Zm-14.914-1.133a.1.1,0,0,1-.1-.076,4.329,4.329,0,0,1-.182-.6.113.113,0,1,1,.214-.057,5.4,5.4,0,0,0,.17.579.107.107,0,0,1-.063.145Zm15.424,0h-.038a.113.113,0,0,1-.063-.151c.069-.182.132-.377.189-.573a.113.113,0,0,1,.138-.076.126.126,0,0,1,.075.145c-.057.195-.126.4-.2.591A.1.1,0,0,1,710.329,1235.914Zm.34-1.177h0a.113.113,0,0,1-.088-.132c.038-.2.069-.4.094-.6a.113.113,0,0,1,.12-.107.126.126,0,0,1,.1.132,3.807,3.807,0,0,1-.094.629.113.113,0,0,1-.132.05Zm-16.053,0a.107.107,0,0,1-.107-.1v-.617a.113.113,0,1,1,.22,0v.226a1.556,1.556,0,0,0,.031.384.113.113,0,0,1-.094.126Zm16.185-1.221h0a.113.113,0,0,1-.107-.12v-.6a.113.113,0,0,1,.107-.12.1.1,0,0,1,.113.107q0,.227,0,.453v.17a.113.113,0,0,1-.113.082Zm-16.28,0a.107.107,0,0,1-.107-.107l-.038-.629a.107.107,0,0,1,.107-.12.107.107,0,0,1,.113.107l.038.629a.12.12,0,0,1-.107.126Zm16.2-1.259a.113.113,0,0,1-.113-.094,5.964,5.964,0,0,0-.082-.629.113.113,0,0,1,.094-.132.119.119,0,0,1,.126.1,4.807,4.807,0,0,0,.082.629.113.113,0,0,1-.094.132Zm-16.267,0a.113.113,0,0,1-.107-.107v-.629a.11.11,0,1,1,.22-.006v.629a.113.113,0,0,1-.107.12Zm16.1-1.215a.113.113,0,0,1-.113-.1,5.5,5.5,0,0,0-.069-.629.114.114,0,1,1,.227-.025,6.082,6.082,0,0,0,.063.629.107.107,0,0,1-.094.126Zm-16.129,0a.113.113,0,0,1-.113-.113v-.629a.113.113,0,0,1,.107-.113h0a.113.113,0,0,1,.107.113v.629a.107.107,0,0,1-.107.113Zm16-1.208a.113.113,0,0,1-.113-.1,2.966,2.966,0,0,0-.044-.629.107.107,0,0,1,.1-.12.12.12,0,0,1,.12.107,3.211,3.211,0,0,0,.044.629.113.113,0,0,1-.1.126Zm-16,0h0a.107.107,0,0,1-.107-.12v-.629a.107.107,0,0,1,.12-.107.113.113,0,0,1,.107.113v.629a.113.113,0,0,1-.12.057Z" transform="translate(-484.404 -1030.001)"/><path class="aw" d="M694.487,1228.378h0a.107.107,0,0,1-.107-.12v-.3a.11.11,0,1,1,.22.012v.3a.113.113,0,0,1-.113.107Z" transform="translate(-484.426 -1029.582)"/><path class="aw" d="M695.791,1344.485H695.2a.12.12,0,0,1-.107-.12.107.107,0,0,1,.113-.113h.585a.113.113,0,0,1,0,.227Zm.591,0a.113.113,0,0,1,0-.227h.592a.127.127,0,0,1,.113.113.119.119,0,0,1-.113.12Zm-1.768,0h-.592a.107.107,0,0,1-.1-.12.113.113,0,0,1,.113-.107h.592a.12.12,0,0,1,.107.12.113.113,0,0,1-.12.082Zm2.951,0a.12.12,0,0,1-.113-.113.107.107,0,0,1,.107-.113h.592a.107.107,0,0,1,.113.107.113.113,0,0,1-.107.12h-.592Zm1.177-.057a.113.113,0,0,1-.006-.227l.591-.038a.1.1,0,0,1,.113.1.113.113,0,0,1-.1.126l-.591.038Zm-5.3,0h-.591a.113.113,0,0,1-.1-.126.107.107,0,0,1,.12-.1h.585a.113.113,0,0,1,.1.12.107.107,0,0,1-.113.082Zm6.482-.088a.107.107,0,0,1-.107-.1.113.113,0,0,1,.1-.126l.585-.057a.119.119,0,0,1,.12.107.113.113,0,0,1-.1.126l-.585.05Zm-7.658,0h0l-.591-.082a.114.114,0,0,1,.031-.227l.585.082a.113.113,0,0,1,.094.126.107.107,0,0,1-.12.057Zm8.81-.094a.114.114,0,0,1-.013-.226l.585-.076a.114.114,0,0,1,.025.227l-.585.076Zm-10.006-.076h0l-.585-.107a.12.12,0,0,1-.088-.132.113.113,0,0,1,.132-.094l.579.107a.12.12,0,0,1,0,.233Zm11.176-.075a.12.12,0,0,1-.113-.1.113.113,0,0,1,.094-.126l.585-.088a.113.113,0,0,1,.126.094.119.119,0,0,1-.094.132l-.585.088Zm-12.334-.151h0l-.579-.132a.113.113,0,1,1,.05-.22l.573.132a.107.107,0,0,1,.088.132.113.113,0,0,1-.107.044Zm13.5,0a.113.113,0,0,1-.107-.1.12.12,0,0,1,.088-.132l.579-.1a.107.107,0,0,1,.132.088.113.113,0,0,1-.088.132l-.585.107Zm1.164-.226a.12.12,0,0,1-.113-.088.126.126,0,0,1,.088-.138l.579-.12a.112.112,0,1,1,.044.22l-.579.126Zm-15.82,0h0l-.573-.151a.114.114,0,1,1,.057-.22l.566.151a.107.107,0,0,1,.082.138.113.113,0,0,1-.107-.006Zm16.991-.245a.113.113,0,0,1-.107-.088.12.12,0,0,1,.082-.138l.573-.145a.113.113,0,0,1,.138.082.119.119,0,0,1-.082.138l-.579.151Zm-18.111-.063H687.6l-.573-.164a.126.126,0,0,1-.076-.145.113.113,0,0,1,.138-.076l.566.164a.083.083,0,1,1-.019.132Zm19.256-.239a.115.115,0,0,1-.025-.227c.189-.05.378-.107.56-.17a.115.115,0,1,1,.063.22c-.182.063-.378.12-.566.17Zm-20.4-.1h0l-.566-.176a.113.113,0,0,1-.069-.145.107.107,0,0,1,.138-.076l.56.182a.083.083,0,1,1-.057.126Zm21.547-.327a.113.113,0,0,1-.031-.22l.554-.2a.114.114,0,0,1,.145.076.12.12,0,0,1-.069.145l-.56.2Zm-22.654-.113h-.031l-.56-.2a.107.107,0,0,1-.069-.145.113.113,0,0,1,.138-.069l.56.189a.119.119,0,0,1,.069.145.107.107,0,0,1-.107.063Zm23.768-.283a.113.113,0,0,1-.038-.22l.547-.227a.113.113,0,0,1,.145.069.107.107,0,0,1-.063.145l-.554.227Zm-24.888-.107h-.031l-.56-.208a.12.12,0,0,1-.069-.145.107.107,0,0,1,.145-.069l.554.2a.12.12,0,0,1,.069.145.113.113,0,0,1-.12.063Zm25.983-.353a.107.107,0,0,1-.1-.069.113.113,0,0,1,.057-.151l.535-.252a.114.114,0,0,1,.094.208l-.541.258Zm-27.059-.063h-.038l-.554-.22a.113.113,0,0,1,.076-.214l.554.22a.113.113,0,0,1-.038.22Zm-1.108-.44h-.038l-.554-.227a.113.113,0,0,1-.057-.151.107.107,0,0,1,.145-.057l.547.22a.126.126,0,0,1,.063.151.113.113,0,0,1-.151.05Zm29.268,0a.1.1,0,0,1-.1-.063.113.113,0,0,1,.05-.151l.516-.283a.107.107,0,0,1,.151.044.113.113,0,0,1-.044.151c-.17.1-.346.2-.522.29a.082.082,0,0,1-.094-.019Zm-30.363-.434h-.044l-.547-.233a.12.12,0,0,1-.057-.151.113.113,0,0,1,.145-.063l.547.239a.113.113,0,0,1,.057.151.107.107,0,0,1-.145.025Zm31.4-.157a.1.1,0,0,1-.094-.057.113.113,0,0,1,.038-.157l.491-.321a.113.113,0,0,1,.157,0,.12.12,0,0,1,0,.157c-.164.113-.333.22-.5.327Zm-32.484-.321h-.044c-.352-.157-.541-.252-.541-.252a.113.113,0,0,1,.088-.208l.541.252a.113.113,0,0,1,.057.151.107.107,0,0,1-.145.025Zm33.465-.352a.1.1,0,0,1-.088-.044.12.12,0,0,1,0-.164l.434-.34a.107.107,0,0,1,.151,0,.12.12,0,0,1,0,.164c-.138.12-.289.233-.44.346a.107.107,0,0,1-.1.006Zm.862-.629a.1.1,0,0,1-.088-.044.119.119,0,0,1,0-.164c.145-.107.289-.22.428-.34a.113.113,0,0,1,.157,0,.12.12,0,0,1,0,.164l-.441.346a.119.119,0,0,1-.1,0Z" transform="translate(-478.815 -1070.753)"/><path class="ax" d="M1408.462,1191.96l-3.9-16.9,1.838-.95s11.371,2.517,20.578-1.013l3.933,1.473-3.656,18.2Z" transform="translate(-747.7 -1009.286)"/><path class="ay" d="M1429.15,1174.164l1.718.522v-.113l-3.933-1.473c-9.206,3.556-20.578,1.013-20.578,1.013l-1.838.95.057.258C1407.887,1175.806,1419.484,1177.184,1429.15,1174.164Z" transform="translate(-747.685 -1009.286)"/><path class="az" d="M1385.975,1210.33l-6.7.3s-.717,1.259,1.208,3.266,10.7,6.425,10.906,5.55a8.9,8.9,0,0,0-1.4-4.757C1389.241,1213.91,1385.975,1210.33,1385.975,1210.33Z" transform="translate(-738.277 -1023.087)"/><path class="ba" d="M1379.39,1200.468s10.761,4.663,12.114,8.81l1.485-6.922.875-13.9-6.834-5.525Z" transform="translate(-738.369 -1012.93)"/><path class="az" d="M1452.81,1217.862a17.716,17.716,0,0,1,.749-4.078c.667-2.114,6.67-5.94,8.055-6.293s2.744-.579,3.146.56S1454.629,1218.63,1452.81,1217.862Z" transform="translate(-765.587 -1021.929)"/><path class="ba" d="M1456.215,1180.29l7.8,17.815s-10.937,3.656-11.956,9.779l-1.2-6.224v-11.252Z" transform="translate(-764.864 -1011.951)"/><path class="bb" d="M1391.53,1179.363s6.035,14.562,6.035,18.249-2.278,33.749-4.128,42.326c0,0,24.769,5.374,38.443.736,0,0-4.462-27.808-2.983-41.6.075-.755,5.324-21.4,5.324-21.4l-11.994-4.493s-2.712,10.578-10.893,10.578c-6.551,0-10-9.483-10-9.483Z" transform="translate(-742.869 -1009.319)"/><path class="bc" d="M1399.73,1222.493c1.183-5.034,12.529-3.09,4.21-11.7-6.872-7.111-7.344-25.757-7.3-32.024l-5.11,2.643s6.035,14.562,6.035,18.249-2.278,33.749-4.128,42.326a136.038,136.038,0,0,0,18.558,2.454,10.547,10.547,0,0,0-1.573-7.633C1406.576,1231.353,1398.553,1227.533,1399.73,1222.493Z" transform="translate(-742.869 -1011.388)"/><path class="bd" d="M1416.528,1185.157c6.022,0,10.182-7.551,11.956-11.591l-1.259-.466s-2.781,10.2-10.975,10.2c-6.545,0-9.6-9.188-9.6-9.188l-1.378.718C1407.378,1178.524,1411.808,1185.157,1416.528,1185.157Z" transform="translate(-747.963 -1009.286)"/><path class="be" d="M653.547,334.68l1.781.132.346,2.133-3.3-.447Z" transform="translate(-241.825 -124.072)"/><path class="be" d="M1060.889,1249.869a1.4,1.4,0,0,1,.95-1.139h3.209l.881,2.693-5.229-.522Z" transform="translate(-620.226 -1037.323)"/><path class="bf" d="M1031.534,1237.8s3.26-24.221,4.663-25.8a2.619,2.619,0,0,1,4.046,0c.78,1.41,2.807,26.43,2.807,26.43h3.083s-2.844-25.505-5.72-27.689-5.519.138-6.343,2.517-5.55,23.573-5.55,23.573Z" transform="translate(-608.297 -1022.915)"/><path class="bg" d="M1008.151,1272.89s-7.054,6.557-7.551,10.61l.365,6.293a2.682,2.682,0,0,0,.774-1.693,16.751,16.751,0,0,1,3.524-7.551c3.146-4.141,3.99-4.732,3.99-4.732Z" transform="translate(-597.946 -1046.279)"/><path class="bh" d="M1008,1250.07l5.034,32.534s26.084.629,28.091-.227,7.5-24.586,6.7-30.206Z" transform="translate(-600.69 -1037.819)"/><path class="bi" d="M1044.121,1291.212c1.2-.529,3.644-9.206,5.248-17.312-2.328,4.21-5.947,9.5-10.188,11.327-7.444,3.2-23.151,6.217-23.151,6.217S1042.114,1292.093,1044.121,1291.212Z" transform="translate(-603.666 -1046.654)"/><path class="bj" d="M1047.084,1261.215c.629-3.933,1-7.356.755-9.081l-39.859-2.064,1.6,10.264Z" transform="translate(-600.682 -1037.819)"/><path class="bk" d="M1024.973,1248.857s-7.054.321-11.17,0-5.959,0-5.846.717,8,3.014,16.141,2.586,9.993.371,13.8.743,9.546.271,9.918-1.259C1047.98,1251.009,1029.378,1248.322,1024.973,1248.857Z" transform="translate(-600.672 -1037.323)"/><path class="bj" d="M1024.1,1238.108s3.209-23.359,5.034-25.247c1.58-1.636,4.034-.994,4.556,0s2.977,25.266,2.977,25.266l3.467.434s-2.813-24.668-6.06-26.921-6.406.063-7.338,2.517-5.664,23.554-5.664,23.554Z" transform="translate(-605.535 -1023.234)"/><path class="bl" d="M1011.427,1264.878h-.5a.051.051,0,0,1-.044-.05.057.057,0,0,1,.044-.038h.5a.038.038,0,0,1,.038.044S1011.453,1264.878,1011.427,1264.878Z" transform="translate(-601.757 -1043.276)"/><path class="bl" d="M1047.338,1265.889h-1.032a.044.044,0,0,1,0-.088h1.026a.044.044,0,1,1,0,.088Zm-2.058-.057h0l-1.032-.031a.039.039,0,0,1-.038-.044.044.044,0,0,1,.038-.044h1.032a.038.038,0,0,1,.029.013.038.038,0,0,1,.009.031.044.044,0,0,1-.038.076Zm-2.058-.063H1042.2a.044.044,0,0,1,0-.088h0l1.032.031a.039.039,0,0,1,.038.044A.038.038,0,0,1,1043.222,1265.77Zm-2.064-.057h-1.026a.05.05,0,0,1-.044-.044.044.044,0,0,1,.044-.044h1.032a.044.044,0,1,1,0,.082Zm-2.058-.057h-1.032a.057.057,0,0,1-.038-.05.044.044,0,0,1,.044-.038h1.026a.05.05,0,0,1,.044.044.044.044,0,0,1-.044.044Zm-2.07-.076H1036a.037.037,0,0,1-.029-.013.043.043,0,0,1,.029-.069h1.032a.044.044,0,0,1,.044.044A.05.05,0,0,1,1037.03,1265.581Zm-2.058-.057h-1.026a.044.044,0,1,1,0-.088h1.032a.039.039,0,0,1,.038.044.044.044,0,0,1-.031.063Zm-2.064-.057h-1.026a.044.044,0,1,1,0-.088h1.032a.055.055,0,0,1,.006.107Zm-2.058-.063h-1.032a.039.039,0,0,1-.038-.044.044.044,0,0,1,.038-.044h1.026a.056.056,0,0,1,.019.107Zm-2.058-.057h-1.032a.038.038,0,0,1-.038-.044.044.044,0,0,1,.038-.044h1.032a.044.044,0,1,1,0,.088Zm-2.058-.057h-1.026a.041.041,0,1,1,0-.082h1.032a.039.039,0,0,1,.038.044.044.044,0,0,1,0,.035.043.043,0,0,1-.028.021Zm-2.064-.057h-1.026a.044.044,0,1,1,0-.088h1.026a.044.044,0,0,1,0,.088Zm-2.058-.057h0l-1.032-.031a.044.044,0,0,1,.006-.088h1.026a.044.044,0,1,1,0,.088Zm-2.058-.063h-1.032a.037.037,0,0,1-.029-.013.038.038,0,0,1-.008-.031.044.044,0,0,1,.038-.044h0l1.032.031a.044.044,0,0,1,.044.044.044.044,0,0,1-.031.031Zm-2.058-.057h-1.026a.05.05,0,0,1-.044-.044.044.044,0,0,1,.044-.044h1.032a.039.039,0,0,1,.038.044.038.038,0,0,1-.031.063Zm-2.064-.057h-1.026a.05.05,0,0,1-.044-.044.044.044,0,0,1,.044-.044h1.032a.039.039,0,0,1,.038.044.045.045,0,0,1,0,.039.044.044,0,0,1-.031.024Zm-2.058-.051h-1.032a.044.044,0,0,1,0-.082h1.026a.044.044,0,1,1,0,.088Z" transform="translate(-602.66 -1043.306)"/><path class="bl" d="M1069.491,1266.512h-.5a.041.041,0,1,1,0-.082h.5a.041.041,0,1,1-.006.082Z" transform="translate(-623.285 -1043.884)"/><path class="bm" d="M1008,1250.07c.422.875,7.967,2.637,14.864,2.473,1.51,0,2.517-.151,5.085-.182,6.922-.038,8.86,1.309,15.2,1.107,1.133-.038,4.405-.189,4.713-1.321-.176.717-1.473,1.045-2.171,1.183-4.808.963-11.233-.258-12.68-.4-7.514-.8-11.075.912-20.263-1.114C1012.1,1251.675,1008.151,1250.718,1008,1250.07Z" transform="translate(-600.69 -1037.819)"/><path class="bn" d="M1064.617,1256.326a1.674,1.674,0,0,1-1.649-1.712c0-1.794.157-4.405,0-5.1-.151-.805-.529-.786-.529-.786h3.146a.68.68,0,0,1,.629.472,14.076,14.076,0,0,1,.629,2.813,20.462,20.462,0,0,1,.17,2.593,1.668,1.668,0,0,1-1.643,1.712Z" transform="translate(-620.871 -1037.323)"/><path class="bl" d="M1069.281,1257.75h0a.082.082,0,0,1-.063-.1,1.891,1.891,0,0,0,.057-.491.088.088,0,0,1,.088-.088h0a.082.082,0,0,1,.082.082,2.153,2.153,0,0,1-.063.535A.088.088,0,0,1,1069.281,1257.75Z" transform="translate(-623.383 -1040.414)"/><path class="bl" d="M1066.369,1259.662a.088.088,0,0,1,0-.17,1.139,1.139,0,0,0,.73-.371.075.075,0,0,1,.12,0,.088.088,0,0,1,0,.12,1.3,1.3,0,0,1-.837.422Zm-.887,0h0a1.328,1.328,0,0,1-.837-.422.088.088,0,0,1,0-.126.076.076,0,0,1,.057-.026.075.075,0,0,1,.057.026,1.171,1.171,0,0,0,.73.371.088.088,0,0,1,0,.17Z" transform="translate(-621.679 -1041.163)"/><path class="bl" d="M1063.988,1257.732a.1.1,0,0,1-.082-.069,2.149,2.149,0,0,1-.057-.535.082.082,0,0,1,.082-.088.094.094,0,0,1,.082.088,2.1,2.1,0,0,0,.057.491.082.082,0,0,1-.007.068.081.081,0,0,1-.056.039Z" transform="translate(-621.394 -1040.403)"/><path class="bo" d="M1017.1,1253.951h-3.335a.894.894,0,0,1,0-1.781h3.335a.894.894,0,0,1,0,1.781Zm-3.335-1.435a.541.541,0,0,0-.529.547.535.535,0,0,0,.529.541h3.335a.535.535,0,0,0,.529-.541.541.541,0,0,0-.529-.547Z" transform="translate(-602.524 -1038.598)"/><path class="bm" d="M1035.768,1258.839a1.976,1.976,0,0,1,1.731-1.649c2.442-.277,8.69-.8,11.7.667,3.776,1.844-2.517,2.366-9.188,2.825C1036.272,1260.929,1035.617,1259.834,1035.768,1258.839Z" transform="translate(-610.976 -1040.34)"/><path class="bo" d="M1017.059,1257.367h-3.335a.894.894,0,0,1,0-1.787h3.335a.894.894,0,1,1,0,1.787Zm-3.335-1.441a.547.547,0,1,0,0,1.095h3.335a.547.547,0,1,0,0-1.095Z" transform="translate(-602.48 -1039.862)"/><rect class="bo" width="1.51" height="0.944" transform="translate(412.162 215.126)"/><path class="bg" d="M1014.08,1257.57s1.2,21.44,1.183,23.6c0,.881-.365,4.443-.365,4.443l1.705-.176s.409-.484,1-3.2.283-24.668.283-24.668Z" transform="translate(-602.944 -1040.6)"/><path class="bn" d="M1014.892,1247.46l-.182,3.5h3.04v-3.052a.44.44,0,0,0-.428-.447Z" transform="translate(-603.177 -1036.852)"/><path class="bj" d="M1012.671,1293.661s-1.334,3.411-6.746,1.888-5.355-5.859-5.355-5.859l.315,5.966a1.453,1.453,0,0,0,.862,1.259c1.819.787,6.161,2.568,7.809,2.391C1011.671,1299.117,1012.558,1295.064,1012.671,1293.661Z" transform="translate(-597.935 -1052.507)"/><path class="ab" d="M1056.608,1455.7a3.448,3.448,0,1,1-3.448-3.568,3.511,3.511,0,0,1,3.448,3.568Z" transform="translate(-616.153 -1112.726)"/><path class="ab" d="M1079.931,1455.7a3.455,3.455,0,1,1-3.449-3.568,3.511,3.511,0,0,1,3.448,3.568Z" transform="translate(-624.794 -1112.726)"/><path class="ab" d="M1103.3,1455.7a3.455,3.455,0,1,1-3.455-3.568A3.518,3.518,0,0,1,1103.3,1455.7Z" transform="translate(-633.458 -1112.726)"/><rect class="i" width="53.464" height="4.336" transform="translate(183.788 291.918)"/><rect class="i" width="53.464" height="4.336" transform="translate(290.641 291.918)"/><rect class="i" width="53.464" height="4.336" transform="translate(398.821 255.363)"/></g></svg>