<svg xmlns="http://www.w3.org/2000/svg" width="153" height="130.016" viewBox="0 0 153 130.016">
  <g id="laptop" transform="translate(0 -38.457)">
    <g id="Group_13393" data-name="Group 13393" transform="translate(0 38.457)">
      <path id="Path_15124" data-name="Path 15124" d="M192.918,113.068a2.989,2.989,0,0,0,5.87-1.131l-.2-1.009a20.762,20.762,0,0,1-.655-4.731,5.457,5.457,0,0,1,5.112-5.05,5.4,5.4,0,0,1,4.382,1.869,4.825,4.825,0,0,0,7.323,0,5.379,5.379,0,0,1,4.382-1.869,5.458,5.458,0,0,1,5.112,5.05,20.76,20.76,0,0,1-.655,4.73l-.2,1.009a2.989,2.989,0,0,0,5.87,1.131l.194-1a24.247,24.247,0,0,0,.753-6.242,11.388,11.388,0,0,0-19.122-7.614,11.388,11.388,0,0,0-19.121,7.613,24.252,24.252,0,0,0,.753,6.243Z" transform="translate(-134.593 -78.213)" fill="#ddd"/>
      <path id="Path_15125" data-name="Path 15125" d="M150.012,138.933h-1.246v-92.3a8.183,8.183,0,0,0-8.173-8.174H12.408a8.183,8.183,0,0,0-8.173,8.174v92.3H2.988A2.988,2.988,0,0,0,0,141.921v17.027a9.535,9.535,0,0,0,9.525,9.525H143.476A9.535,9.535,0,0,0,153,158.948V141.921a2.988,2.988,0,0,0-2.988-2.988Zm-139.8-92.3a2.2,2.2,0,0,1,2.2-2.2H140.592a2.2,2.2,0,0,1,2.2,2.2v92.3H10.211ZM57.82,144.909H95.18v5.805H57.82Zm89.2,14.039a3.552,3.552,0,0,1-3.548,3.548H9.525a3.552,3.552,0,0,1-3.548-3.548V144.909H51.844V153.7a2.988,2.988,0,0,0,2.988,2.988H98.168a2.988,2.988,0,0,0,2.988-2.988v-8.793h45.867Z" transform="translate(0 -38.457)" fill="#ddd"/>
      <path id="Path_15126" data-name="Path 15126" d="M198.025,336.85a2.988,2.988,0,0,0-2.988-2.989H114.871a2.989,2.989,0,0,0,0,5.978h80.167a2.988,2.988,0,0,0,2.988-2.989Z" transform="translate(-78.454 -245.587)" fill="#ddd"/>
      <path id="Path_15127" data-name="Path 15127" d="M407.3,203.084a2.989,2.989,0,0,0,4.227,0l6.385-6.385a3.007,3.007,0,0,0,0-4.227l-6.385-6.385a2.989,2.989,0,1,0-4.227,4.227l4.272,4.272-4.272,4.271A2.989,2.989,0,0,0,407.3,203.084Z" transform="translate(-284.982 -141.359)" fill="#ddd"/>
      <path id="Path_15128" data-name="Path 15128" d="M75.713,186.087a2.989,2.989,0,0,0-4.227,0L65.1,192.472a3.007,3.007,0,0,0,0,4.227l6.385,6.385a2.989,2.989,0,1,0,4.227-4.227l-4.272-4.271,4.272-4.272A2.989,2.989,0,0,0,75.713,186.087Z" transform="translate(-45.035 -141.359)" fill="#ddd"/>
    </g>
    <g id="Group_13397" data-name="Group 13397" transform="translate(46.72 69.035)">
      <g id="Group_13396" data-name="Group 13396">
        <g id="Group_13394" data-name="Group 13394">
          <path id="Path_15129" data-name="Path 15129" d="M156.362,140.793h59.56v11.572h-59.56Z" transform="translate(-156.362 -140.793)" fill="#ddd"/>
        </g>
        <g id="Group_13395" data-name="Group 13395" transform="translate(4.427 11.572)">
          <path id="Path_15130" data-name="Path 15130" d="M171.173,179.51H221.88v34.533H171.173Z" transform="translate(-171.173 -179.51)" fill="#ddd"/>
        </g>
      </g>
    </g>
  </g>
</svg>
