<svg id="shoe-shop" xmlns="http://www.w3.org/2000/svg" width="153" height="153" viewBox="0 0 153 153">
  <g id="Group_13363" data-name="Group 13363" transform="translate(0 0)">
    <path id="Path_15093" data-name="Path 15093" d="M11.577,62v45.463a2.242,2.242,0,0,0,4.483,0V62A12.843,12.843,0,0,0,24.383,56.7a12.892,12.892,0,0,0,21.132,0,12.892,12.892,0,0,0,21.132,0,12.892,12.892,0,0,0,21.131,0,12.892,12.892,0,0,0,21.132,0,12.892,12.892,0,0,0,21.132,0A12.844,12.844,0,0,0,138.364,62v8.314a2.242,2.242,0,0,0,4.483,0V62a12.7,12.7,0,0,0,10.567-12.438V43.908h0a2.182,2.182,0,0,0-.238-1L133.415,4.474A8.252,8.252,0,0,0,126.032,0H28.393a8.254,8.254,0,0,0-7.384,4.474L1.252,42.907a2.182,2.182,0,0,0-.238,1h0v5.659A12.7,12.7,0,0,0,11.577,62Zm2.24-4.225a8.279,8.279,0,0,1-8.324-8.213V46.119H22.142v3.448A8.279,8.279,0,0,1,13.817,57.78ZM52.081,4.423,43.715,41.7H27.585L41.348,4.423Zm15.461,0L64.574,41.7H48.307L56.672,4.423Zm14.843,0L85.354,41.7H69.071L72.039,4.423Zm15.367,0L106.118,41.7H89.85L86.882,4.423Zm15.324,0L126.839,41.7h-16.13L102.343,4.423ZM34.949,57.78a8.279,8.279,0,0,1-8.324-8.213V46.119H43.273v3.448A8.279,8.279,0,0,1,34.949,57.78Zm21.132,0a8.279,8.279,0,0,1-8.324-8.213V46.119H64.405v3.448A8.279,8.279,0,0,1,56.081,57.78Zm21.132,0a8.279,8.279,0,0,1-8.324-8.213V46.119H85.537v3.448A8.279,8.279,0,0,1,77.212,57.78Zm21.132,0a8.279,8.279,0,0,1-8.325-8.213V46.119h16.649v3.448A8.278,8.278,0,0,1,98.344,57.78Zm21.132,0a8.279,8.279,0,0,1-8.325-8.213V46.119H127.8v3.448A8.279,8.279,0,0,1,119.476,57.78Zm21.132,0a8.279,8.279,0,0,1-8.325-8.213V46.119h16.649v3.448A8.278,8.278,0,0,1,140.607,57.78ZM129.418,6.474,147.523,41.7H131.61L117.847,4.423h8.184A3.784,3.784,0,0,1,129.418,6.474Zm-104.411,0a3.785,3.785,0,0,1,3.386-2.051h8.184L22.814,41.7H6.9Z" transform="translate(-0.712 0)" fill="#d5d6d8"/>
    <path id="Path_15094" data-name="Path 15094" d="M224.447,252.541a2.211,2.211,0,0,0-2.211,2.211v51.227a2.211,2.211,0,0,0,2.211,2.211h60.758a2.211,2.211,0,0,0,2.211-2.211V254.752a2.211,2.211,0,0,0-2.211-2.211Zm2.211,4.423h56.335v37.274H226.659Zm56.335,46.8H226.659V298.66h56.335Z" transform="translate(-154.669 -176.039)" fill="#d5d6d8"/>
    <path id="Path_15095" data-name="Path 15095" d="M159.8,334.364a2.211,2.211,0,0,0-2.211,2.211v11.913a2.211,2.211,0,1,0,4.423,0V336.575A2.211,2.211,0,0,0,159.8,334.364Z" transform="translate(-110.475 -234.285)" fill="#d5d6d8"/>
    <path id="Path_15096" data-name="Path 15096" d="M147.741,315.084h-5.609V258.72a2.241,2.241,0,0,0-4.482,0v56.364H61.233V254.752a2.226,2.226,0,0,0-2.241-2.211H22.768a2.226,2.226,0,0,0-2.241,2.211v60.332H15.351V295.87a2.241,2.241,0,0,0-4.482,0v19.214H5.259A5.232,5.232,0,0,0,0,320.276v3.573a5.231,5.231,0,0,0,5.259,5.189H121.381a2.211,2.211,0,1,0,0-4.423H5.259a.773.773,0,0,1-.777-.767v-3.573a.774.774,0,0,1,.777-.77H147.741a.774.774,0,0,1,.777.77v3.573a.773.773,0,0,1-.777.767h-15.9a2.211,2.211,0,1,0,0,4.423h15.9A5.231,5.231,0,0,0,153,323.85v-3.573A5.232,5.232,0,0,0,147.741,315.084ZM25.009,256.964H56.751v58.121H25.009Z" transform="translate(0 -176.039)" fill="#d5d6d8"/>
    <path id="Path_15097" data-name="Path 15097" d="M308.637,296.273l-10.126-4.17a2.212,2.212,0,0,0-2.521.606l-2.912,3.4h-4.642a11.159,11.159,0,0,0-11.146,11.146v5.361a2.211,2.211,0,0,0,2.211,2.211H307.8a2.211,2.211,0,0,0,2.211-2.211v-14.3a2.211,2.211,0,0,0-1.37-2.045ZM305.584,310.4H281.713v-3.15a6.731,6.731,0,0,1,6.724-6.724H294.1a2.211,2.211,0,0,0,1.679-.772l2.533-2.955,7.277,3Z" transform="translate(-194.122 -204.489)" fill="#d5d6d8"/>
  </g>
</svg>
