<svg xmlns="http://www.w3.org/2000/svg" width="26.624" height="25.871" viewBox="0 0 26.624 25.871"><defs><style>.a{fill:#ced7dc;}</style></defs><g transform="translate(-763.261 -6578.238)"><path class="a" d="M927.363,6732.086c-.6-.072-1.066-.156-1.066-.521,0-.49.642-.563,1.025-.563a1.393,1.393,0,0,1,1.112.489l.049.081.952-.44-.048-.1a1.877,1.877,0,0,0-1.468-1.018v-.634H926.8v.632c-1.035.153-1.65.728-1.65,1.55,0,1.341,1.218,1.477,2.106,1.577.79.093,1.158.288,1.158.613,0,.621-.861.669-1.125.669a1.449,1.449,0,0,1-1.318-.682l-.041-.1-1.034.438.042.1a2.173,2.173,0,0,0,1.861,1.27v.686h1.114v-.72a1.715,1.715,0,0,0,1.685-1.661C929.6,6732.362,928.309,6732.2,927.363,6732.086Z" transform="translate(-146.858 -137.323)"/><path class="a" d="M787.863,6586.771a8.692,8.692,0,1,0,7.784,8.644A8.7,8.7,0,0,0,787.863,6586.771Zm-15.555.158a6.867,6.867,0,1,1,6.867,6.868A6.876,6.876,0,0,1,772.307,6586.929Zm14.647,15.354a6.875,6.875,0,0,1-6.864-6.711,8.71,8.71,0,0,0,7.615-6.983,6.868,6.868,0,0,1-.751,13.694Z" transform="translate(-6.562 0)"/><path class="a" d="M964.789,6588.989l-1.9-1.277-1.019,1.514,4.419,2.973,3.043-4.522-1.514-1.019-1.265,1.88a6,6,0,0,0-5.782-4.444v1.825A4.17,4.17,0,0,1,964.789,6588.989Z" transform="translate(-179.449 -5.321)"/><path class="a" d="M767.806,6766.747l1.9,1.277,1.019-1.514-4.419-2.974-3.042,4.522,1.514,1.019,1.265-1.881a6,6,0,0,0,5.782,4.445v-1.825A4.169,4.169,0,0,1,767.806,6766.747Z" transform="translate(0 -168.353)"/><path class="a" d="M831.026,6619.968c-.682-.082-1.2-.176-1.2-.588,0-.552.724-.635,1.157-.635a1.57,1.57,0,0,1,1.255.552l.055.091,1.074-.5-.054-.109a2.116,2.116,0,0,0-1.657-1.148v-.716H830.4v.713c-1.168.173-1.862.822-1.862,1.75,0,1.514,1.374,1.667,2.376,1.779.892.1,1.307.325,1.307.692,0,.7-.972.756-1.269.756a1.634,1.634,0,0,1-1.487-.77l-.046-.11-1.167.495.047.11a2.455,2.455,0,0,0,2.1,1.434v.774h1.257v-.813a1.936,1.936,0,0,0,1.9-1.874C833.555,6620.28,832.094,6620.1,831.026,6619.968Z" transform="translate(-58.312 -34.09)"/></g></svg>