<svg xmlns="http://www.w3.org/2000/svg" width="55.043" height="49" viewBox="0 0 55.043 49"><defs><style>.a{fill:#fff;stroke:#fff;}</style></defs><g transform="translate(0.503 0.5)"><g transform="translate(22.818 7.2)"><path class="a" d="M209.548,89.247l-16.8-12a2.4,2.4,0,0,0-2.79,0L179.48,84.731a4.8,4.8,0,0,1,1.669,1.758l10.2-7.289,16.8,12h-4.8v21.6H179.559l-.19,2.4h23.984a2.4,2.4,0,0,0,2.4-2.4V93.6h2.4a2.4,2.4,0,0,0,1.4-4.353Z" transform="translate(-179.369 -76.8)"/></g><g transform="translate(0.003 16.8)"><path class="a" d="M19.163,194.37l-2.4-13.2A2.4,2.4,0,0,0,14.4,179.2H4.8a2.4,2.4,0,0,0-2.361,1.971l-2.4,13.2A2.4,2.4,0,0,0,2.4,197.2H3.936l.874,10.99A2.4,2.4,0,0,0,7.2,210.4H12a2.4,2.4,0,0,0,2.393-2.21l.874-10.99H16.8a2.4,2.4,0,0,0,2.361-2.83Zm-6.111.43L12,208H7.2l-1.05-13.2H2.4l2.4-13.2H8.4v7.3a1.2,1.2,0,0,0,2.4,0v-7.3h3.6l2.4,13.2Z" transform="translate(-0.003 -179.2)"/></g><g transform="translate(2.402)"><path class="a" d="M32.8,0A7.2,7.2,0,1,0,40,7.2,7.209,7.209,0,0,0,32.8,0Zm0,12a4.8,4.8,0,1,1,4.8-4.8A4.8,4.8,0,0,1,32.8,12Z" transform="translate(-25.598)"/></g></g></svg>