<svg xmlns="http://www.w3.org/2000/svg" width="53.199" height="47.595" viewBox="0 0 53.199 47.595"><defs><style>.a{fill:#fff;}</style></defs><path class="a" d="M54.941,18.574,52.147,7.019A5.22,5.22,0,0,0,47.065,3H10.107A5.218,5.218,0,0,0,5.051,7.019L2.257,18.574a8.881,8.881,0,0,0,1.65,7.615,10.166,10.166,0,0,0,.745.767V45.307A5.321,5.321,0,0,0,9.973,50.6H47.225a5.321,5.321,0,0,0,5.322-5.288V26.956a9.811,9.811,0,0,0,.745-.74A8.851,8.851,0,0,0,54.941,18.574ZM46.985,8.262l2.794,11.555a3.568,3.568,0,0,1-.665,3.094,3.127,3.127,0,0,1-2.5,1.243,3.317,3.317,0,0,1-3.22-3.014L41.85,8.288ZM31.26,8.288h5.215L37.912,20.24a3.54,3.54,0,0,1-.878,2.829,3.182,3.182,0,0,1-2.528,1.084A3.373,3.373,0,0,1,31.26,20.69Zm-12,11.952L20.723,8.288h5.215v12.4a3.408,3.408,0,0,1-3.432,3.464,3.21,3.21,0,0,1-2.368-1.084A3.741,3.741,0,0,1,19.26,20.24ZM7.419,19.817,10.107,8.288h5.242L13.805,21.139a3.337,3.337,0,0,1-3.22,3.014,3.068,3.068,0,0,1-2.475-1.243A3.48,3.48,0,0,1,7.419,19.817Zm2.554,25.49V29.362a4.846,4.846,0,0,0,.612.079,8.351,8.351,0,0,0,5.96-2.512,8.585,8.585,0,0,0,6.146,2.512,8.462,8.462,0,0,0,5.934-2.459,8.75,8.75,0,0,0,6.093,2.459,8.475,8.475,0,0,0,5.96-2.512,8.351,8.351,0,0,0,5.96,2.512,4.846,4.846,0,0,0,.612-.079V45.307Z" transform="translate(-2.005 -3)"/></svg>