<svg xmlns="http://www.w3.org/2000/svg" width="25.852" height="27.956" viewBox="0 0 25.852 27.956"><defs><style>.a{fill:#ced7dc;}</style></defs><g transform="translate(-201.926 -276.565)"><g transform="translate(201.926 290.504)"><path class="a" d="M4568.931,9954.715c-1.35,0-2.447-.6-2.447-1.328s1.1-1.326,2.447-1.326h20.959c1.347,0,2.445.6,2.445,1.326s-1.1,1.328-2.445,1.328Z" transform="translate(-4566.484 -9946.378)"/><path class="a" d="M4571.786,9963.074a1.325,1.325,0,0,1-1.1-2.068l3.117-4.621a.571.571,0,0,0,0-.635l-3.117-4.621a1.326,1.326,0,1,1,2.2-1.484l3.833,5.68a1.325,1.325,0,0,1,0,1.484l-3.833,5.68A1.32,1.32,0,0,1,4571.786,9963.074Z" transform="translate(-4551.095 -9949.057)"/></g><g transform="translate(201.926 276.565)"><path class="a" d="M4589.887,9954.715c1.349,0,2.448-.6,2.448-1.328s-1.1-1.326-2.448-1.326h-20.959c-1.347,0-2.444.6-2.444,1.326s1.1,1.328,2.444,1.328Z" transform="translate(-4566.484 -9946.378)"/><path class="a" d="M4575.618,9963.074a1.325,1.325,0,0,0,1.1-2.068l-3.118-4.621a.569.569,0,0,1,0-.635l3.118-4.621a1.333,1.333,0,0,0-.356-1.844,1.32,1.32,0,0,0-1.841.359l-3.832,5.68a1.323,1.323,0,0,0,0,1.484l3.832,5.68A1.319,1.319,0,0,0,4575.618,9963.074Z" transform="translate(-4570.459 -9949.057)"/></g></g></svg>