<svg xmlns="http://www.w3.org/2000/svg" width="25.872" height="25.873" viewBox="0 0 25.872 25.873"><defs><style>.a{fill:#ced7dc;}</style></defs><path class="a" d="M4555.749,9966.932c-1.83,0-3.264-1.8-3.264-4.1v-17.666c0-2.3,1.434-4.1,3.264-4.1h12.089c1.83,0,3.264,1.8,3.264,4.1v4.3a.847.847,0,1,1-1.693,0v-4.3c0-1.309-.719-2.41-1.571-2.41h-12.089c-.853,0-1.572,1.1-1.572,2.41v17.666c0,1.307.72,2.408,1.572,2.408h12.089c.852,0,1.571-1.1,1.571-2.408v-1.279a.847.847,0,0,1,1.693,0v1.279c0,2.3-1.435,4.1-3.264,4.1Z" transform="translate(-4552.485 -9941.059)"/><path class="a" d="M4557.33,9957.215a.848.848,0,0,1,0-1.7h6.044a.361.361,0,0,0,.362-.361v-1.812a.36.36,0,0,0-.362-.36h-4.818a2.059,2.059,0,0,1-2.057-2.057v-1.813a2.059,2.059,0,0,1,2.057-2.056h5.97a.847.847,0,1,1,0,1.693h-5.97a.362.362,0,0,0-.363.362v1.813a.362.362,0,0,0,.363.361h4.818a2.057,2.057,0,0,1,2.055,2.056v1.813a2.056,2.056,0,0,1-2.055,2.057Z" transform="translate(-4551.649 -9939.806)"/><path class="a" d="M4560.331,9957.959a.852.852,0,0,1-.848-.848v-1.2a.847.847,0,0,1,1.694,0v1.2A.851.851,0,0,1,4560.331,9957.959Z" transform="translate(-4551.021 -9938.135)"/><path class="a" d="M4560.331,9947.961a.848.848,0,0,1-.848-.849V9945.9a.847.847,0,1,1,1.694,0v1.208A.847.847,0,0,1,4560.331,9947.961Z" transform="translate(-4551.021 -9940.221)"/><path class="a" d="M4567.331,9953.755a.848.848,0,0,1,0-1.7h7.253a.848.848,0,0,1,0,1.7Z" transform="translate(-4549.558 -9938.762)"/><path class="a" d="M4571.307,9958.007a.846.846,0,0,1-.7-1.32l1.99-2.95a.366.366,0,0,0,0-.406l-1.99-2.95a.849.849,0,0,1,.227-1.176.836.836,0,0,1,.472-.146.849.849,0,0,1,.7.375l2.447,3.626a.844.844,0,0,1,0,.947l-2.447,3.627A.845.845,0,0,1,4571.307,9958.007Z" transform="translate(-4548.729 -9939.388)"/></svg>